<?xml version="1.0" encoding="UTF-8" standalone="no"?>
<!-- Created with Inkscape (http://www.inkscape.org/) -->

<svg
   xmlns:dc="http://purl.org/dc/elements/1.1/"
   xmlns:cc="http://creativecommons.org/ns#"
   xmlns:rdf="http://www.w3.org/1999/02/22-rdf-syntax-ns#"
   xmlns:svg="http://www.w3.org/2000/svg"
   xmlns="http://www.w3.org/2000/svg"
   xmlns:xlink="http://www.w3.org/1999/xlink"
   xmlns:sodipodi="http://sodipodi.sourceforge.net/DTD/sodipodi-0.dtd"
   xmlns:inkscape="http://www.inkscape.org/namespaces/inkscape"
   version="1.0"
   width="600"
   height="660"
   id="svg2"
   sodipodi:version="0.32"
   inkscape:version="0.48.1 r9760"
   sodipodi:docname="Blason_louis_II_de_Hongrie.svg"
   inkscape:output_extension="org.inkscape.output.svg.inkscape">
  <metadata
     id="metadata67">
    <rdf:RDF>
      <cc:Work
         rdf:about="">
        <dc:format>image/svg+xml</dc:format>
        <dc:type
           rdf:resource="http://purl.org/dc/dcmitype/StillImage" />
      </cc:Work>
    </rdf:RDF>
  </metadata>
  <sodipodi:namedview
     inkscape:window-height="678"
     inkscape:window-width="1284"
     inkscape:pageshadow="2"
     inkscape:pageopacity="0.0"
     guidetolerance="10.0"
     gridtolerance="10.0"
     objecttolerance="10.0"
     borderopacity="1.0"
     bordercolor="#666666"
     pagecolor="#ffffff"
     id="base"
     showgrid="false"
     showguides="true"
     inkscape:guide-bbox="true"
     inkscape:zoom="0.60277503"
     inkscape:cx="300.68154"
     inkscape:cy="381.56828"
     inkscape:window-x="-4"
     inkscape:window-y="0"
     inkscape:current-layer="svg2"
     inkscape:window-maximized="0">
    <sodipodi:guide
       orientation="1,0"
       position="868.57143,427.14286"
       id="guide3643" />
  </sodipodi:namedview>
  <desc
     id="desc4">Flag of Canton of Valais (Wallis)</desc>
  <defs
     id="defs6">
    <linearGradient
       id="linearGradient2893">
      <stop
         style="stop-color:#ffffff;stop-opacity:0.3137255"
         offset="0"
         id="stop2895" />
      <stop
         style="stop-color:#ffffff;stop-opacity:0.25098041"
         offset="0.19"
         id="stop2897" />
      <stop
         style="stop-color:#6b6b6b;stop-opacity:0.1254902"
         offset="0.60000002"
         id="stop2901" />
      <stop
         style="stop-color:#000000;stop-opacity:0.1254902"
         offset="1"
         id="stop2899" />
    </linearGradient>
    <radialGradient
       inkscape:collect="always"
       xlink:href="#linearGradient2893"
       id="radialGradient2445"
       gradientUnits="userSpaceOnUse"
       gradientTransform="matrix(1.353218,0,0,1.348928,-79.12935,-84.24693)"
       cx="221.44487"
       cy="226.33101"
       fx="221.44487"
       fy="226.33101"
       r="300" />
  </defs>
  <g
     style="display:inline"
     id="layer3">
    <path
       d="M 300.25,2.1875 L 300.25,658.40625 C 302.98825,657.3698 598.5,544.84878 598.5,260.71875 C 598.50001,-24.732784 598.5,2.1875 598.5,2.1875 L 300.25,2.1875 z "
       style="fill:#e20909;fill-opacity:1;fill-rule:evenodd;stroke:#000000;stroke-width:3;stroke-linecap:butt;stroke-linejoin:miter;stroke-miterlimit:4;stroke-dasharray:none;stroke-opacity:1"
       id="path2855" />
    <path
       d="M 1.5,2.1875 L 1.5,260.71875 C 1.5,546.17026 300,658.5 300,658.5 C 300,658.5 300.23726,658.41107 300.25,658.40625 L 300.25,2.1875 L 1.5,2.1875 z "
       style="fill:#e20909;fill-opacity:1;fill-rule:evenodd;stroke:#000000;stroke-width:3;stroke-linecap:butt;stroke-linejoin:miter;stroke-opacity:1"
       id="path2187" />
  </g>
  <g
     id="layer4">
    <g
       transform="matrix(0.5026455,0,0,1,300,-1.7460329)"
       style="display:inline"
       id="g3373">
      <g
         id="g7979">
        <rect
           width="600"
           height="660"
           x="0"
           y="-7.1054274e-015"
           style="fill:none;fill-opacity:1;fill-rule:nonzero;stroke:none;stroke-width:6.20345545;stroke-linecap:round;stroke-linejoin:round;stroke-miterlimit:4;stroke-dasharray:none;stroke-opacity:1"
           id="rect7092" />
        <g
           id="g2770"
           transform="matrix(0.8550899,0,0,0.953082,886.9177,167.50448)">
          <g
             id="g2860" />
          <g
             id="g2862" />
        </g>
      </g>
    </g>
    <g
       transform="matrix(0.5033838,0,0,0.6223078,-0.2242183,-103.13684)"
       style="display:inline"
       id="g3379">
      <g
         id="g3381">
        <rect
           width="600"
           height="660"
           x="0"
           y="-7.1054274e-015"
           style="fill:none;fill-opacity:1;fill-rule:nonzero;stroke:none;stroke-width:6.20345545;stroke-linecap:round;stroke-linejoin:round;stroke-miterlimit:4;stroke-dasharray:none;stroke-opacity:1"
           id="rect3385" />
      </g>
    </g>
    <path
       d="M 300.94163,82.951001 L 3.1036562,82.951001 L 3.9917172,166.92554 L 300.02529,166.92554"
       style="fill:#ffffff;fill-opacity:1;fill-rule:evenodd;stroke:#000000;stroke-width:2.29999995000000013;stroke-linecap:butt;stroke-linejoin:miter;stroke-miterlimit:4;stroke-dasharray:none;stroke-opacity:1;display:inline"
       id="path6294" />
    <path
       d="m 299.37677,247.91567 -297.8379806,0 c 1.6407391,26.09017 -3.131217,33.85835 6.9186281,83.97453 l 290.0030225,0"
       style="fill:#ffffff;fill-opacity:1;fill-rule:evenodd;stroke:#000000;stroke-width:2.29999995;stroke-linecap:butt;stroke-linejoin:miter;stroke-miterlimit:4;stroke-opacity:1;stroke-dasharray:none;display:inline"
       id="path6298"
       inkscape:connector-curvature="0"
       sodipodi:nodetypes="cccc" />
    <path
       d="m 299.8139,412.3673 -266.568862,0 c 17.756338,35.92802 31.70743,58.83943 49.903345,83.97454 l 217.749177,0"
       style="fill:#ffffff;fill-opacity:1;fill-rule:evenodd;stroke:#000000;stroke-width:2.29999995;stroke-linecap:butt;stroke-linejoin:miter;stroke-miterlimit:4;stroke-opacity:1;stroke-dasharray:none;display:inline"
       id="path6302"
       inkscape:connector-curvature="0"
       sodipodi:nodetypes="cccc" />
    <path
       d="m 298.68094,581.23876 -129.16895,0 c 39.3305,32.90588 75.79908,51.48925 129.91173,76.96435"
       style="fill:#ffffff;fill-opacity:1;fill-rule:evenodd;stroke:#000000;stroke-width:2.29999995;stroke-linecap:butt;stroke-linejoin:miter;stroke-miterlimit:4;stroke-opacity:1;stroke-dasharray:none;display:inline"
       id="path6306"
       inkscape:connector-curvature="0"
       sodipodi:nodetypes="ccc" />
  </g>
  <g
     id="layer2" />
  <g
     inkscape:groupmode="layer"
     id="layer5"
     inkscape:label="dessin">
    <g
       style="display:inline"
       id="g2772"
       transform="matrix(0.6815416,0,0,0.8794739,248.30458,66.95493)">
      <path
         style="fill:#5ab532;fill-opacity:1;fill-rule:evenodd;stroke:#000000;stroke-width:3;stroke-linecap:butt;stroke-linejoin:miter;stroke-miterlimit:4;stroke-dasharray:none;stroke-opacity:1;display:inline"
         id="path4758"
         d="M 135.80491,415.69918 C 112.08623,415.89949 92.861887,436.73181 77.569074,454.40705 C 77.250106,465.47673 82.382251,504.47079 77.658983,508.49711 C 157.94136,509.62503 223.81096,624.28054 239.67377,527.25759 C 212.01062,457.69182 168.35048,412.7408 135.80491,415.69918 z"
         sodipodi:nodetypes="ccccc" />
      <path
         style="fill:#5ab532;fill-opacity:1;fill-rule:evenodd;stroke:#000000;stroke-width:3;stroke-linecap:butt;stroke-linejoin:miter;stroke-miterlimit:4;stroke-dasharray:none;stroke-opacity:1"
         id="path2776"
         d="M 443.75,422.375 C 388.37395,422.37912 342.15057,486.5896 300.34375,536.125 C 326.36172,539.16736 371.49155,525.28976 450.95669,422.73855 C 448.53702,422.49392 446.1349,422.37482 443.75,422.375 z"
         sodipodi:nodetypes="cccc" />
      <g
         style="fill:#ffffff;stroke:#000000;stroke-width:1.5;stroke-miterlimit:4;stroke-dasharray:none;stroke-opacity:1"
         id="g10347"
         transform="matrix(2,0,0,2,-591.8775,-687.3038)">
        <path
           style="fill:#ffffff;fill-opacity:1;stroke:#000000;stroke-width:1.5;stroke-linecap:round;stroke-linejoin:round;stroke-miterlimit:4;stroke-dasharray:none;stroke-dashoffset:0;stroke-opacity:1"
           id="rect3996"
           d="M 433.43875,359.44 L 433.43875,398.5025 L 394.00125,398.5025 L 394.00125,421.65875 L 433.43875,421.65875 L 433.43875,455.65875 L 364.345,455.65875 L 364.345,478.44 L 433.43875,478.44 L 433.43875,599.565 L 457.6575,599.565 L 457.6575,478.44 L 526.0325,478.44 L 526.0325,455.65875 L 457.6575,455.65875 L 457.6575,421.65875 L 496.37625,421.65875 L 496.37625,398.5025 L 457.6575,398.5025 L 457.6575,359.44 L 433.43875,359.44 z" />
      </g>
      <path
         style="fill:#5ab532;fill-opacity:1;fill-rule:evenodd;stroke:#000000;stroke-width:3;stroke-linecap:butt;stroke-linejoin:miter;stroke-miterlimit:4;stroke-dasharray:none;stroke-opacity:1"
         id="path10350"
         d="M 290.09375,394.71408 C 212.99167,395.62044 134.96415,497.25422 90.96875,508.3125 C 91.29492,508.75975 85.523775,509.34577 78.231727,509.96571 C 79.389869,563.15042 79.802545,566.8754 78.920196,671.71301 C 245.52538,611.33195 338.04811,546.97698 409.5882,471.89658 C 399.77933,462.75171 390.3224,453.42292 381.34375,444.74533 C 352.65255,407.55644 321.44295,394.34556 290.09375,394.71408 z"
         sodipodi:nodetypes="ccccccc" />
      <g
         style="fill:#fcef3c;fill-opacity:1;stroke:#000000;stroke-width:3.00598168;stroke-miterlimit:4;stroke-dasharray:none;stroke-opacity:1;display:inline"
         id="g8096"
         transform="matrix(0.1659664,0,0,0.1659664,271.09526,260.27257)">
        <g
           style="fill:#fcef3c;fill-opacity:1;stroke:#000000;stroke-width:3.00598168;stroke-miterlimit:4;stroke-dasharray:none;stroke-opacity:1"
           id="g8098">
          <path
             style="font-size:12px;fill:#fcef3c;fill-opacity:1;stroke:#000000;stroke-width:3.00598168;stroke-miterlimit:4;stroke-dasharray:none;stroke-opacity:1"
             id="path8100"
             d="M 164.7967,830.15822 C 95.522289,830.2931 33.346172,838.97619 -10.418217,852.45327 C -6.7819564,850.72788 -12.156958,835.26889 -16.676956,823.61673 C -22.144021,809.52309 -30.16887,807.44319 -30.16887,807.44319 C 18.215309,793.15121 90.126907,783.06976 165.08895,782.97422 C 240.07909,783.06976 312.36139,792.82405 360.75116,807.11603 C 360.75116,807.11603 351.18083,810.24445 345.718,824.33973 C 341.19937,835.99025 337.52188,850.72788 341.16377,852.45327 C 297.40496,838.97619 234.0655,830.2931 164.7967,830.15822" />
          <path
             style="font-size:12px;fill:#fcef3c;fill-opacity:1;stroke:#000000;stroke-width:3.00598168;stroke-miterlimit:4;stroke-dasharray:none;stroke-opacity:1"
             id="path8102"
             d="M 165.21539,786.41054 C 90.253347,786.52857 22.901037,795.44771 -25.483141,809.76218 C -28.709123,810.72884 -32.120576,809.46431 -33.165929,806.41258 C -34.211294,803.35523 -32.47465,799.84827 -29.248669,798.85913 C 19.343459,783.95456 88.432413,774.59704 165.23225,774.43968 C 242.04895,774.58018 311.40207,783.95456 359.99985,798.85913 C 363.22577,799.84827 364.96241,803.35523 363.91708,806.41258 C 362.86616,809.46431 359.45467,810.72884 356.23422,809.76218 C 307.84447,795.44771 240.20553,786.52857 165.21539,786.41054" />
          <path
             style="font-size:12px;fill:#fcef3c;fill-opacity:1;stroke:#000000;stroke-width:3.00598168;stroke-miterlimit:4;stroke-dasharray:none;stroke-opacity:1"
             id="path8104"
             d="M 165.50098,728.73105 L 172.06112,729.96413 C 171.00422,732.6758 170.78536,735.63845 170.78536,738.75933 C 170.78536,752.6669 182.47506,763.98282 196.86572,763.98282 C 208.41663,763.98282 218.25414,756.67166 221.63296,746.57244 C 222.01195,746.8398 224.12037,737.44988 225.20924,737.56445 C 226.122,737.66266 226.02593,747.31993 226.36224,747.14534 C 228.03297,759.86349 239.40241,768.46773 252.20236,768.46773 C 266.57164,768.46773 278.224,757.21181 278.224,743.27698 C 278.224,742.24031 278.16527,741.20365 278.02648,740.19974 L 286.19326,731.92832 L 290.58089,742.46947 C 288.83546,745.78132 288.14156,749.49692 288.14156,753.47986 C 288.14156,766.77633 299.27081,777.53028 313.0102,777.53028 C 321.65209,777.53028 329.24236,773.27999 333.69941,766.8309 L 338.9251,760.03807 L 338.88766,768.36951 C 338.88766,776.73915 342.34661,784.24673 350.3373,785.57255 C 350.3373,785.57255 359.51285,786.1509 371.66701,776.39542 C 383.83168,766.63993 390.53069,758.55946 390.53069,758.55946 L 391.57686,768.33131 C 391.57686,768.33131 381.4831,784.28491 370.49266,790.78858 C 364.48769,794.36777 355.36539,798.11611 348.11137,796.90485 C 340.43569,795.63357 334.96981,789.34271 332.15144,782.09156 C 326.68023,785.38159 320.22155,787.30214 313.30383,787.30214 C 298.43812,787.30214 285.0777,778.97069 279.79332,766.42715 C 272.9556,773.96746 263.43301,778.60513 252.26643,778.60513 C 240.39523,778.60513 229.52217,773.14359 222.70584,764.75212 C 216.00697,770.98843 206.90069,774.83497 196.86572,774.83497 C 183.72412,774.83497 172.00238,768.25493 165.35687,758.32486 C 158.72201,768.25493 147.01094,774.83497 133.89073,774.83497 C 123.86106,774.83497 114.73348,770.98843 108.02925,764.75212 C 101.2396,773.14359 90.345217,778.60513 78.479339,778.60513 C 67.307408,778.60513 57.784822,773.96746 50.941787,766.42715 C 45.662736,778.97069 32.307646,787.30214 17.436628,787.30214 C 10.513532,787.30214 4.0815161,785.38159 -1.3843521,782.09156 C -4.2294048,789.34271 -9.6952616,795.63357 -17.349622,796.90485 C -24.603643,798.11611 -33.725889,794.36777 -39.746897,790.78858 C -50.742697,784.28491 -60.825741,768.33131 -60.825741,768.33131 L -59.768862,758.55946 C -59.768862,758.55946 -53.064627,766.63993 -40.921198,776.39542 C -28.756437,786.16727 -19.591493,785.57255 -19.591493,785.57255 C -11.60085,784.24673 -8.1473036,776.73915 -8.1473036,768.36951 L -8.1846783,760.03807 L -2.9590048,766.8309 C 1.4927068,773.27999 9.1097041,777.53028 17.735535,777.53028 C 31.469615,777.53028 42.598848,766.77633 42.598848,753.47986 C 42.598848,749.49692 41.899613,745.78132 40.15417,742.46947 L 44.541812,731.92832 L 52.719282,740.19974 C 52.596489,741.20365 52.521774,742.24031 52.521774,743.27698 C 52.521774,757.21181 64.158114,768.46773 78.538052,768.46773 C 91.359374,768.46773 102.70748,759.86349 104.37819,747.14534 C 104.73582,747.31993 104.63975,737.66266 105.54717,737.56445 C 106.62539,737.44988 108.74983,746.8398 109.10746,746.57244 C 112.50762,756.67166 122.32912,763.98282 133.9174,763.98282 C 148.30268,763.98282 159.95504,752.6669 159.95504,738.75933 C 159.95504,735.63845 159.77356,732.6758 158.70066,729.96413 L 165.50098,728.73105" />
          <path
             style="fill:#fcef3c;fill-opacity:1;fill-rule:evenodd;stroke:#000000;stroke-width:3.00598168;stroke-linecap:butt;stroke-linejoin:miter;stroke-miterlimit:4;stroke-dasharray:none;stroke-opacity:1"
             id="path8106"
             d="M 165.23308,635.67924 C 164.21818,635.98249 160.41714,638.56508 156.79128,641.41397 C 152.56894,644.73151 149.84549,652.27789 149.84549,652.2779 C 149.84549,652.2779 145.57844,651.38741 142.86408,651.38741 C 140.14973,651.38741 135.95392,652.27789 135.95391,652.2779 C 135.95391,652.2779 135.50447,655.59181 136.91563,660.00732 C 138.3268,664.42283 138.69888,667.40503 139.69395,667.73673 C 139.69395,667.73673 137.95821,668.50606 135.84705,669.41085 C 133.73588,670.31563 132.96187,672.47413 132.96187,672.47412 C 132.96187,672.47412 138.68933,677.00015 141.40368,677.60332 C 144.11804,678.20651 144.69002,678.21119 147.10279,678.81438 C 149.51554,679.41756 150.59348,683.69425 150.5935,683.69424 C 150.5935,683.69424 148.41136,683.7465 145.99859,683.44491 C 143.58582,683.14331 143.77717,680.58884 139.65833,678.52942 C 135.53948,676.47 126.62163,678.52942 126.62161,678.52942 C 126.62161,678.52942 127.64963,683.28085 130.96719,686.89999 C 134.28473,690.51913 138.23355,689.60707 138.23355,689.60707 L 139.51585,693.41835 C 139.51585,693.41835 135.54364,694.94359 132.96187,692.99092 C 130.42419,691.07158 129.49047,687.88069 124.80502,688.18229 C 119.90717,688.49755 119.70208,693.12846 117.28932,696.446 C 114.87656,699.76356 110.62849,702.35883 110.62849,702.35883 C 110.62849,702.35883 114.64048,706.169 117.50304,709.4471 C 120.94552,713.38927 121.95053,715.75175 125.26808,715.75174 C 128.58563,715.75174 132.74816,710.5513 132.74816,710.5513 L 135.70457,710.65816 L 135.06342,715.21744 C 135.06342,715.21744 133.05469,715.54971 129.43555,718.56567 C 125.81641,721.58162 126.69286,732.02982 126.69285,732.02982 C 126.69285,732.02982 136.12469,732.84965 139.58709,729.18026 C 143.15448,725.39961 142.8997,720.34663 142.8997,720.34664 L 146.81783,718.92187 L 147.17403,724.05106 C 147.17403,724.05106 142.93064,726.95261 141.72426,731.17495 C 140.51788,735.39729 141.33429,736.62367 141.40368,740.22229 C 141.45664,742.96815 139.15966,747.27493 139.15966,747.27494 C 139.15966,747.27494 152.26969,744.78651 157.39681,741.46897 C 171.03865,729.87902 160.18758,730.98918 173.35432,741.46897 C 178.48144,744.78651 191.59147,747.27494 191.59147,747.27494 C 191.59146,747.27493 189.29449,742.96815 189.34744,740.22229 C 189.41682,736.62367 190.23324,735.39729 189.02687,731.17495 C 187.82047,726.95261 183.57709,724.05106 183.57709,724.05106 L 183.93329,718.92187 L 187.85143,720.34664 C 187.85144,720.34663 187.59664,725.39961 191.16403,729.18026 C 194.62643,732.84965 204.05827,732.02982 204.05827,732.02982 C 204.05827,732.02982 204.93471,721.58162 201.31557,718.56567 C 197.69642,715.54971 195.6877,715.21744 195.6877,715.21744 L 195.04655,710.65816 L 198.00297,710.5513 C 198.00296,710.5513 202.20111,715.75174 205.51867,715.75174 C 208.83621,715.75175 209.80561,713.38927 213.24809,709.4471 C 216.11066,706.169 220.12264,702.35883 220.12264,702.35883 C 220.12263,702.35883 215.87457,699.76356 213.4618,696.446 C 211.04903,693.12846 210.84395,688.49755 205.9461,688.18229 C 201.26065,687.88069 200.32694,691.07158 197.78925,692.99092 C 195.20747,694.94359 191.27089,693.41835 191.27089,693.41835 L 192.51757,689.60707 C 192.51757,689.60707 196.4664,690.51913 199.78394,686.89999 C 203.10148,683.28085 204.12951,678.52942 204.12951,678.52942 C 204.12952,678.52942 195.21164,676.47 191.0928,678.52942 C 186.97395,680.58884 187.1653,683.14331 184.75254,683.44491 C 182.33977,683.7465 180.15763,683.69424 180.15763,683.69424 C 180.15762,683.69425 181.23558,679.41756 183.64833,678.81438 C 186.06111,678.21119 186.63308,678.20651 189.34744,677.60332 C 192.0618,677.00015 197.78925,672.47412 197.78925,672.47412 C 197.78924,672.47413 197.01524,670.31563 194.90408,669.41085 C 192.79292,668.50606 191.05718,667.73673 191.05718,667.73673 C 192.05223,667.40503 192.42432,664.42283 193.83549,660.00732 C 195.24667,655.59181 194.79722,652.2779 194.79722,652.2779 C 194.79722,652.27789 190.6014,651.38741 187.88705,651.38741 C 185.17267,651.38741 180.90564,652.2779 180.90564,652.2779 C 180.90565,652.27789 178.18218,644.73151 173.95985,641.41397 C 171.19371,639.42646 168.37825,636.82646 165.23308,635.67924 z" />
          <path
             style="fill:#fcef3c;fill-opacity:1;fill-rule:evenodd;stroke:#000000;stroke-width:3.00598168;stroke-linecap:round;stroke-linejoin:miter;stroke-miterlimit:4;stroke-dasharray:none;stroke-opacity:1"
             id="path8108"
             d="M 159.42685,721.14899 C 159.42685,721.14899 158.17887,725.39212 157.18049,727.1393 C 156.18211,728.88646 152.68776,732.38082 152.68776,732.38082" />
          <path
             style="fill:#fcef3c;fill-opacity:1;fill-rule:evenodd;stroke:#000000;stroke-width:3.00598168;stroke-linecap:round;stroke-linejoin:miter;stroke-miterlimit:4;stroke-dasharray:none;stroke-opacity:1"
             id="path8110"
             d="M 151.93898,710.16676 C 147.0222,710.44702 143.0982,712.80033 139.45917,715.40827" />
          <path
             style="fill:#fcef3c;fill-opacity:1;fill-rule:evenodd;stroke:#000000;stroke-width:3.00598168;stroke-linecap:round;stroke-linejoin:miter;stroke-miterlimit:4;stroke-dasharray:none;stroke-opacity:1"
             id="path8112"
             d="M 151.19018,702.42929 C 146.23312,701.31286 140.42175,701.05072 133.46887,701.93009" />
          <path
             style="fill:#fcef3c;fill-opacity:1;fill-rule:evenodd;stroke:#000000;stroke-width:3.00598168;stroke-linecap:round;stroke-linejoin:miter;stroke-miterlimit:4;stroke-dasharray:none;stroke-opacity:1"
             id="path8114"
             d="M 152.43817,693.69342 C 152.43817,693.69342 149.69261,690.94786 147.19664,690.19908 C 144.70068,689.45029 142.95352,687.45352 142.95352,687.45352" />
          <path
             style="fill:#fcef3c;fill-opacity:1;fill-rule:evenodd;stroke:#000000;stroke-width:3.00598168;stroke-linecap:round;stroke-linejoin:miter;stroke-miterlimit:4;stroke-dasharray:none;stroke-opacity:1"
             id="path8116"
             d="M 164.91797,681.21362 C 164.41877,679.96564 164.91797,661.24594 164.91797,661.24594" />
          <path
             style="fill:#fcef3c;fill-opacity:1;fill-rule:evenodd;stroke:#000000;stroke-width:3.00598168;stroke-linecap:round;stroke-linejoin:miter;stroke-miterlimit:4;stroke-dasharray:none;stroke-opacity:1"
             id="path8118"
             d="M 160.17564,682.9608 C 160.17564,682.9608 160.00542,681.58229 157.43008,677.71928 C 154.93412,673.97534 151.68937,671.97857 151.68937,671.97857" />
          <path
             style="fill:#fcef3c;fill-opacity:1;fill-rule:evenodd;stroke:#000000;stroke-width:3.00598168;stroke-linecap:round;stroke-linejoin:miter;stroke-miterlimit:4;stroke-dasharray:none;stroke-opacity:1"
             id="path8120"
             d="M 170.90827,721.14899 C 170.90827,721.14899 172.15625,725.39212 173.15463,727.1393 C 174.15301,728.88646 177.64736,732.38082 177.64736,732.38082" />
          <path
             style="fill:#fcef3c;fill-opacity:1;fill-rule:evenodd;stroke:#000000;stroke-width:3.00598168;stroke-linecap:round;stroke-linejoin:miter;stroke-miterlimit:4;stroke-dasharray:none;stroke-opacity:1"
             id="path8122"
             d="M 178.39615,710.16676 C 183.31292,710.44702 187.23693,712.80033 190.87596,715.40827" />
          <path
             style="fill:#fcef3c;fill-opacity:1;fill-rule:evenodd;stroke:#000000;stroke-width:3.00598168;stroke-linecap:round;stroke-linejoin:miter;stroke-miterlimit:4;stroke-dasharray:none;stroke-opacity:1"
             id="path8124"
             d="M 179.14494,702.42929 C 184.10201,701.31286 189.91338,701.05072 196.86626,701.93009" />
          <path
             style="fill:#fcef3c;fill-opacity:1;fill-rule:evenodd;stroke:#000000;stroke-width:3.00598168;stroke-linecap:round;stroke-linejoin:miter;stroke-miterlimit:4;stroke-dasharray:none;stroke-opacity:1"
             id="path8126"
             d="M 177.89695,693.69342 C 177.89695,693.69342 180.64251,690.94786 183.13848,690.19908 C 185.63444,689.45029 187.3816,687.45352 187.3816,687.45352" />
          <path
             style="fill:#fcef3c;fill-opacity:1;fill-rule:evenodd;stroke:#000000;stroke-width:3.00598168;stroke-linecap:round;stroke-linejoin:miter;stroke-miterlimit:4;stroke-dasharray:none;stroke-opacity:1"
             id="path8128"
             d="M 170.15949,682.9608 C 170.15949,682.9608 170.32971,681.58229 172.90504,677.71928 C 175.401,673.97534 178.64576,671.97857 178.64576,671.97857" />
          <path
             style="font-size:12px;fill:#fcef3c;fill-opacity:1;stroke:#000000;stroke-width:3.00598168;stroke-miterlimit:4;stroke-dasharray:none;stroke-opacity:1"
             id="path8130"
             d="M 151.78403,702.91079 C 151.78403,691.16812 157.86678,681.69486 165.36296,681.69486 C 172.85913,681.69486 178.96711,691.16812 178.96711,702.91079 C 178.96711,714.66387 172.88436,724.16834 165.36296,724.16834 C 157.86678,724.16834 151.78403,714.66387 151.78403,702.91079" />
          <path
             style="font-size:12px;fill:#fcef3c;fill-opacity:1;stroke:#000000;stroke-width:3.00598168;stroke-miterlimit:4;stroke-dasharray:none;stroke-opacity:1"
             id="path8132"
             d="M 156.04851,702.91615 C 156.04851,694.19429 160.22273,687.15801 165.3669,687.15801 C 170.51106,687.15801 174.7026,694.19429 174.7026,702.91615 C 174.7026,711.64577 170.52838,718.70523 165.3669,718.70523 C 160.22273,718.70523 156.04851,711.64577 156.04851,702.91615" />
          <path
             style="fill:#fcef3c;fill-opacity:1;fill-rule:evenodd;stroke:#000000;stroke-width:3.00598168;stroke-linecap:butt;stroke-linejoin:miter;stroke-miterlimit:4;stroke-dasharray:none;stroke-opacity:1"
             id="path8134"
             d="M 305.05374,650.05495 C 304.01796,650.13947 299.83049,651.86964 295.75392,653.89655 C 291.00672,656.25688 286.79285,663.06172 286.79285,663.06173 C 286.79285,663.06173 282.89939,661.30133 280.302,660.73494 C 277.70462,660.16857 273.4999,660.1631 273.49987,660.16311 C 273.49987,660.16311 272.36378,663.30715 272.77341,667.91574 C 273.18304,672.52433 272.90372,675.51571 273.78524,676.04743 C 273.78524,676.04743 271.9604,676.4369 269.74743,676.88041 C 267.53448,677.32389 266.33395,679.27133 266.33395,679.27132 C 266.33395,679.27132 270.85034,684.88854 273.31921,686.04424 C 275.7881,687.19997 276.33443,687.32388 278.51473,688.41667 C 280.695,689.50945 280.81534,693.91288 280.81535,693.91288 C 280.81535,693.91288 278.71612,693.50861 276.47157,692.71048 C 274.22702,691.91237 274.95436,689.45648 271.45176,686.5849 C 267.94916,683.71331 258.97683,683.86465 258.97682,683.86465 C 258.97682,683.86465 258.94823,688.7215 261.35178,692.94979 C 263.75531,697.17807 267.72828,697.11092 267.72828,697.11092 L 268.14333,701.10226 C 268.14333,701.10226 264.01733,701.76363 261.96284,699.31709 C 259.94341,696.9123 259.72975,693.59984 255.18195,692.91684 C 250.42799,692.20288 249.24512,696.68467 246.22952,699.4226 C 243.21391,702.16053 238.59598,703.80982 238.59598,703.80982 C 238.59598,703.80982 241.62333,708.36966 243.66413,712.1698 C 246.11839,716.73978 246.57677,719.25771 249.75136,719.94995 C 252.92596,720.64219 258.01708,716.4297 258.01708,716.4297 L 260.82332,717.15099 L 259.23844,721.47183 C 259.23844,721.47183 257.24548,721.37733 253.13975,723.56886 C 249.03401,725.7604 247.64669,736.1516 247.64668,736.1516 C 247.64668,736.1516 256.49742,738.92066 260.59239,736.05798 C 264.81154,733.10851 265.64427,728.11838 265.64427,728.11839 L 269.69712,727.54389 L 268.94518,732.62965 C 268.94518,732.62965 264.26647,734.57914 262.2125,738.45283 C 260.15853,742.32649 260.67848,743.69508 259.97819,747.22555 C 259.44386,749.91943 256.3283,753.64804 256.3283,753.64805 C 256.3283,753.64805 269.40357,753.9523 275.01656,751.78076 C 290.5398,743.30341 279.9198,742.1239 290.28643,755.11046 C 294.48582,759.42167 306.50076,764.5885 306.50076,764.5885 C 306.50075,764.58849 305.22032,759.90132 305.856,757.22954 C 306.68909,753.72802 307.73161,752.70015 307.47678,748.32303 C 307.22195,743.94589 303.7796,740.22554 303.7796,740.22554 L 305.21322,735.28842 L 308.65898,737.49806 C 308.65899,737.49805 307.33864,742.38185 309.94683,746.82008 C 312.47826,751.12768 321.67834,752.29473 321.67834,752.29473 C 321.67834,752.29473 324.74301,742.26928 321.92237,738.56742 C 319.10174,734.86552 317.25036,734.12173 317.25036,734.12173 L 317.60819,729.53335 L 320.45998,730.04582 C 320.45997,730.04582 323.36926,736.00286 326.54386,736.6951 C 329.71845,737.38736 331.1494,735.28139 335.28342,732.14803 C 338.72105,729.54251 343.37191,726.65695 343.37191,726.65695 C 343.3719,726.65695 339.85981,723.23486 338.25782,719.49002 C 336.65583,715.74519 337.4462,711.17782 332.82657,709.84781 C 328.40728,708.57546 326.83398,711.49826 323.99672,712.84402 C 321.11018,714.21315 317.66819,711.90151 317.66819,711.90151 L 319.67314,708.43786 C 319.67314,708.43786 323.25749,710.15295 327.20314,707.30914 C 331.14879,704.46533 333.14481,700.0375 333.14481,700.0375 C 333.14482,700.03751 325.04999,696.16456 320.66987,697.31726 C 316.28974,698.46995 315.92862,701.0057 313.55557,700.79692 C 311.18252,700.58814 309.10553,700.08175 309.10553,700.08175 C 309.10552,700.08176 311.04819,696.12818 313.48548,696.0423 C 315.9228,695.9564 316.47112,696.07119 319.19703,696.04823 C 321.92293,696.02528 328.36785,692.79826 328.36785,692.79826 C 328.36784,692.79826 328.08707,690.52782 326.25964,689.2033 C 324.43222,687.87876 322.93517,686.76492 322.93517,686.76492 C 323.95802,686.64847 324.94943,683.81236 327.24052,679.79269 C 329.53162,675.773 329.80757,672.44139 329.80757,672.44139 C 329.80757,672.44138 325.98227,670.69585 323.38488,670.12947 C 320.78748,669.56309 316.51459,669.54277 316.51459,669.54277 C 316.5146,669.54276 315.51626,661.60137 312.18267,657.47895 C 309.95918,654.95989 307.81897,651.8321 305.05374,650.05495 z" />
          <path
             style="fill:#fcef3c;fill-opacity:1;fill-rule:evenodd;stroke:#000000;stroke-width:3.00598168;stroke-linecap:round;stroke-linejoin:miter;stroke-miterlimit:4;stroke-dasharray:none;stroke-opacity:1"
             id="path8136"
             d="M 281.28831,732.35088 C 281.28831,732.35088 279.19011,736.23619 277.86251,737.73494 C 276.53491,739.23366 272.44666,741.91865 272.44666,741.91865" />
          <path
             style="fill:#fcef3c;fill-opacity:1;fill-rule:evenodd;stroke:#000000;stroke-width:3.00598168;stroke-linecap:round;stroke-linejoin:miter;stroke-miterlimit:4;stroke-dasharray:none;stroke-opacity:1"
             id="path8138"
             d="M 276.46286,720.05836 C 271.69826,719.30625 267.44196,720.78675 263.40412,722.5755" />
          <path
             style="fill:#fcef3c;fill-opacity:1;fill-rule:evenodd;stroke:#000000;stroke-width:3.00598168;stroke-linecap:round;stroke-linejoin:miter;stroke-miterlimit:4;stroke-dasharray:none;stroke-opacity:1"
             id="path8140"
             d="M 277.39481,712.3423 C 272.88921,710.21715 267.3841,708.74843 260.54348,708.15682" />
          <path
             style="fill:#fcef3c;fill-opacity:1;fill-rule:evenodd;stroke:#000000;stroke-width:3.00598168;stroke-linecap:round;stroke-linejoin:miter;stroke-miterlimit:4;stroke-dasharray:none;stroke-opacity:1"
             id="path8142"
             d="M 280.45021,704.0674 C 280.45021,704.0674 278.4079,700.81199 276.17901,699.55958 C 273.95014,698.30717 272.70367,695.99169 272.70367,695.99169" />
          <path
             style="fill:#fcef3c;fill-opacity:1;fill-rule:evenodd;stroke:#000000;stroke-width:3.00598168;stroke-linecap:round;stroke-linejoin:miter;stroke-miterlimit:4;stroke-dasharray:none;stroke-opacity:1"
             id="path8144"
             d="M 295.05107,694.47817 C 294.83927,693.15467 299.30521,674.96892 299.30521,674.96892" />
          <path
             style="fill:#fcef3c;fill-opacity:1;fill-rule:evenodd;stroke:#000000;stroke-width:3.00598168;stroke-linecap:round;stroke-linejoin:miter;stroke-miterlimit:4;stroke-dasharray:none;stroke-opacity:1"
             id="path8146"
             d="M 290.14085,695.1957 C 290.14085,695.1957 290.27166,693.81331 288.63032,689.50162 C 287.03956,685.32283 284.36004,682.69485 284.36004,682.69485" />
          <path
             style="fill:#fcef3c;fill-opacity:1;fill-rule:evenodd;stroke:#000000;stroke-width:3.00598168;stroke-linecap:round;stroke-linejoin:miter;stroke-miterlimit:4;stroke-dasharray:none;stroke-opacity:1"
             id="path8148"
             d="M 292.27498,734.74661 C 292.27498,734.74661 292.56518,739.15273 293.1483,741.06812 C 293.73143,742.98349 296.33073,747.12675 296.33073,747.12675" />
          <path
             style="fill:#fcef3c;fill-opacity:1;fill-rule:evenodd;stroke:#000000;stroke-width:3.00598168;stroke-linecap:round;stroke-linejoin:miter;stroke-miterlimit:4;stroke-dasharray:none;stroke-opacity:1"
             id="path8150"
             d="M 301.77998,725.57894 C 306.42516,726.8787 309.6787,729.99676 312.6053,733.30416" />
          <path
             style="fill:#fcef3c;fill-opacity:1;fill-rule:evenodd;stroke:#000000;stroke-width:3.00598168;stroke-linecap:round;stroke-linejoin:miter;stroke-miterlimit:4;stroke-dasharray:none;stroke-opacity:1"
             id="path8152"
             d="M 304.14497,718.17536 C 309.12629,718.11891 314.74309,719.07539 321.20901,721.38536" />
          <path
             style="fill:#fcef3c;fill-opacity:1;fill-rule:evenodd;stroke:#000000;stroke-width:3.00598168;stroke-linecap:round;stroke-linejoin:miter;stroke-miterlimit:4;stroke-dasharray:none;stroke-opacity:1"
             id="path8154"
             d="M 304.81194,709.37965 C 304.81194,709.37965 308.02414,707.27001 310.57208,707.05924 C 313.12002,706.84844 315.2173,705.26209 315.2173,705.26209" />
          <path
             style="fill:#fcef3c;fill-opacity:1;fill-rule:evenodd;stroke:#000000;stroke-width:3.00598168;stroke-linecap:round;stroke-linejoin:miter;stroke-miterlimit:4;stroke-dasharray:none;stroke-opacity:1"
             id="path8156"
             d="M 299.69449,697.27893 C 299.69449,697.27893 300.15107,695.96758 303.43844,692.73065 C 306.6245,689.59347 310.15485,688.31959 310.15485,688.31959" />
          <path
             style="font-size:12px;fill:#fcef3c;fill-opacity:1;stroke:#000000;stroke-width:3.00598168;stroke-miterlimit:4;stroke-dasharray:none;stroke-opacity:1"
             id="path8158"
             d="M 277.86049,712.93665 C 280.36228,701.46359 288.2012,693.47705 295.37436,695.0412 C 302.54751,696.60536 306.37401,707.13563 303.87222,718.60869 C 301.36821,730.09194 293.52264,738.10897 286.32535,736.53955 C 279.15218,734.97539 275.35648,724.4199 277.86049,712.93665" />
          <path
             style="font-size:12px;fill:#fcef3c;fill-opacity:1;stroke:#000000;stroke-width:3.00598168;stroke-miterlimit:4;stroke-dasharray:none;stroke-opacity:1"
             id="path8160"
             d="M 281.94006,713.83173 C 283.79827,705.31011 289.2917,699.30637 294.2142,700.37975 C 299.13669,701.45314 301.64853,709.20249 299.79032,717.72411 C 297.93048,726.25329 292.4321,732.27969 287.49304,731.20268 C 282.57054,730.1293 280.08022,722.36091 281.94006,713.83173" />
          <path
             style="fill:#fcef3c;fill-opacity:1;fill-rule:evenodd;stroke:#000000;stroke-width:3.00598168;stroke-linecap:butt;stroke-linejoin:miter;stroke-miterlimit:4;stroke-dasharray:none;stroke-opacity:1"
             id="path8162"
             d="M 25.697374,650.05495 C 26.733153,650.13947 30.92062,651.86964 34.997193,653.89655 C 39.744392,656.25688 43.958257,663.06172 43.958257,663.06173 C 43.958257,663.06173 47.851718,661.30133 50.44911,660.73494 C 53.046491,660.16857 57.251215,660.1631 57.251238,660.16311 C 57.251238,660.16311 58.387332,663.30715 57.977703,667.91574 C 57.568074,672.52433 57.847387,675.51571 56.965872,676.04743 C 56.965872,676.04743 58.790715,676.4369 61.00368,676.88041 C 63.216633,677.32389 64.417162,679.27133 64.417162,679.27132 C 64.417162,679.27132 59.900777,684.88854 57.431899,686.04424 C 54.963011,687.19997 54.416683,687.32388 52.236385,688.41667 C 50.056111,689.50945 49.935769,693.91288 49.935757,693.91288 C 49.935757,693.91288 52.03499,693.50861 54.279539,692.71048 C 56.524088,691.91237 55.796756,689.45648 59.299349,686.5849 C 62.801954,683.71331 71.77428,683.86465 71.774291,683.86465 C 71.774291,683.86465 71.802878,688.7215 69.399335,692.94979 C 66.995804,697.17807 63.022829,697.11092 63.022829,697.11092 L 62.607785,701.10226 C 62.607785,701.10226 66.733781,701.76363 68.788276,699.31709 C 70.807699,696.9123 71.021359,693.59984 75.569157,692.91684 C 80.323127,692.20288 81.505989,696.68467 84.521593,699.4226 C 87.537197,702.16053 92.155129,703.80982 92.155129,703.80982 C 92.155129,703.80982 89.127785,708.36966 87.086979,712.1698 C 84.632725,716.73978 84.174346,719.25771 80.999748,719.94995 C 77.82515,720.64219 72.734032,716.4297 72.734032,716.4297 L 69.927791,717.15099 L 71.512668,721.47183 C 71.512668,721.47183 73.505635,721.37733 77.611365,723.56886 C 81.717106,725.7604 83.104418,736.1516 83.104429,736.1516 C 83.104429,736.1516 74.253689,738.92066 70.158719,736.05798 C 65.939576,733.10851 65.106845,728.11838 65.106845,728.11839 L 61.053991,727.54389 L 61.805932,732.62965 C 61.805932,732.62965 66.484639,734.57914 68.53861,738.45283 C 70.59258,742.32649 70.072628,743.69508 70.772923,747.22555 C 71.307249,749.91943 74.422816,753.64804 74.422816,753.64805 C 74.422816,753.64805 61.347541,753.9523 55.734556,751.78076 C 40.211309,743.30341 50.831315,742.1239 40.46468,755.11046 C 36.265291,759.42167 24.250347,764.5885 24.250347,764.5885 C 24.250359,764.58849 25.530789,759.90132 24.89511,757.22954 C 24.062026,753.72802 23.019499,752.70015 23.274329,748.32303 C 23.529159,743.94589 26.971513,740.22554 26.971513,740.22554 L 25.53789,735.28842 L 22.092129,737.49806 C 22.092117,737.49805 23.412476,742.38185 20.804278,746.82008 C 18.272847,751.12768 9.0727739,752.29473 9.0727739,752.29473 C 9.0727739,752.29473 6.0081003,742.26928 8.828738,738.56742 C 11.649376,734.86552 13.500754,734.12173 13.500754,734.12173 L 13.142919,729.53335 L 10.29113,730.04582 C 10.291141,730.04582 7.3818479,736.00286 4.2072499,736.6951 C 1.0326633,737.38736 -0.39829207,735.28139 -4.5323125,732.14803 C -7.9699359,729.54251 -12.620797,726.65695 -12.620797,726.65695 C -12.620786,726.65695 -9.1086978,723.23486 -7.5067122,719.49002 C -5.9047152,715.74519 -6.6950905,711.17782 -2.0754604,709.84781 C 2.3438347,708.57546 3.917131,711.49826 6.7543873,712.84402 C 9.6409296,714.21315 13.082918,711.90151 13.082918,711.90151 L 11.077972,708.43786 C 11.077972,708.43786 7.4936189,710.15295 3.5479769,707.30914 C -0.39767657,704.46533 -2.3936987,700.0375 -2.3936987,700.0375 C -2.3937101,700.03751 5.7011234,696.16456 10.081243,697.31726 C 14.461374,698.46995 14.822492,701.0057 17.195544,700.79692 C 19.568597,700.58814 21.64558,700.08175 21.64558,700.08175 C 21.645592,700.08176 19.702925,696.12818 17.265632,696.0423 C 14.828316,695.9564 14.279994,696.07119 11.554087,696.04823 C 8.8281795,696.02528 2.3832611,692.79826 2.3832611,692.79826 C 2.3832725,692.79826 2.6640449,690.52782 4.4914759,689.2033 C 6.3188955,687.87876 7.8159378,686.76492 7.8159378,686.76492 C 6.7930957,686.64847 5.8016785,683.81236 3.5105907,679.79269 C 1.2194915,675.773 0.94354058,672.44139 0.94354058,672.44139 C 0.94354058,672.44138 4.7688402,670.69585 7.3662324,670.12947 C 9.963636,669.56309 14.236521,669.54277 14.236521,669.54277 C 14.236509,669.54276 15.234857,661.60137 18.568437,657.47895 C 20.791934,654.95989 22.932143,651.8321 25.697374,650.05495 z" />
          <path
             style="fill:#fcef3c;fill-opacity:1;fill-rule:evenodd;stroke:#000000;stroke-width:3.00598168;stroke-linecap:round;stroke-linejoin:miter;stroke-miterlimit:4;stroke-dasharray:none;stroke-opacity:1"
             id="path8164"
             d="M 49.4628,732.35088 C 49.4628,732.35088 51.561007,736.23619 52.888603,737.73494 C 54.216199,739.23366 58.304456,741.91865 58.304456,741.91865" />
          <path
             style="fill:#fcef3c;fill-opacity:1;fill-rule:evenodd;stroke:#000000;stroke-width:3.00598168;stroke-linecap:round;stroke-linejoin:miter;stroke-miterlimit:4;stroke-dasharray:none;stroke-opacity:1"
             id="path8166"
             d="M 54.288247,720.05836 C 59.052852,719.30625 63.309152,720.78675 67.346994,722.5755" />
          <path
             style="fill:#fcef3c;fill-opacity:1;fill-rule:evenodd;stroke:#000000;stroke-width:3.00598168;stroke-linecap:round;stroke-linejoin:miter;stroke-miterlimit:4;stroke-dasharray:none;stroke-opacity:1"
             id="path8168"
             d="M 53.356306,712.3423 C 57.861897,710.21715 63.367009,708.74843 70.207628,708.15682" />
          <path
             style="fill:#fcef3c;fill-opacity:1;fill-rule:evenodd;stroke:#000000;stroke-width:3.00598168;stroke-linecap:round;stroke-linejoin:miter;stroke-miterlimit:4;stroke-dasharray:none;stroke-opacity:1"
             id="path8170"
             d="M 50.300899,704.0674 C 50.300899,704.0674 52.34321,700.81199 54.572097,699.55958 C 56.800974,698.30717 58.047437,695.99169 58.047437,695.99169" />
          <path
             style="fill:#fcef3c;fill-opacity:1;fill-rule:evenodd;stroke:#000000;stroke-width:3.00598168;stroke-linecap:round;stroke-linejoin:miter;stroke-miterlimit:4;stroke-dasharray:none;stroke-opacity:1"
             id="path8172"
             d="M 35.700042,694.47817 C 35.911843,693.15467 31.445907,674.96892 31.445907,674.96892" />
          <path
             style="fill:#fcef3c;fill-opacity:1;fill-rule:evenodd;stroke:#000000;stroke-width:3.00598168;stroke-linecap:round;stroke-linejoin:miter;stroke-miterlimit:4;stroke-dasharray:none;stroke-opacity:1"
             id="path8174"
             d="M 40.610258,695.1957 C 40.610258,695.1957 40.479452,693.81331 42.120796,689.50162 C 43.711554,685.32283 46.39107,682.69485 46.39107,682.69485" />
          <path
             style="fill:#fcef3c;fill-opacity:1;fill-rule:evenodd;stroke:#000000;stroke-width:3.00598168;stroke-linecap:round;stroke-linejoin:miter;stroke-miterlimit:4;stroke-dasharray:none;stroke-opacity:1"
             id="path8176"
             d="M 38.476135,734.74661 C 38.476135,734.74661 38.185936,739.15273 37.602815,741.06812 C 37.019682,742.98349 34.420386,747.12675 34.420386,747.12675" />
          <path
             style="fill:#fcef3c;fill-opacity:1;fill-rule:evenodd;stroke:#000000;stroke-width:3.00598168;stroke-linecap:round;stroke-linejoin:miter;stroke-miterlimit:4;stroke-dasharray:none;stroke-opacity:1"
             id="path8178"
             d="M 28.971137,725.57894 C 24.325952,726.8787 21.07241,729.99676 18.145814,733.30416" />
          <path
             style="fill:#fcef3c;fill-opacity:1;fill-rule:evenodd;stroke:#000000;stroke-width:3.00598168;stroke-linecap:round;stroke-linejoin:miter;stroke-miterlimit:4;stroke-dasharray:none;stroke-opacity:1"
             id="path8180"
             d="M 26.606143,718.17536 C 21.624824,718.11891 16.008021,719.07539 9.542107,721.38536" />
          <path
             style="fill:#fcef3c;fill-opacity:1;fill-rule:evenodd;stroke:#000000;stroke-width:3.00598168;stroke-linecap:round;stroke-linejoin:miter;stroke-miterlimit:4;stroke-dasharray:none;stroke-opacity:1"
             id="path8182"
             d="M 25.939176,709.37965 C 25.939176,709.37965 22.726975,707.27001 20.179028,707.05924 C 17.631093,706.84844 15.533809,705.26209 15.533809,705.26209" />
          <path
             style="fill:#fcef3c;fill-opacity:1;fill-rule:evenodd;stroke:#000000;stroke-width:3.00598168;stroke-linecap:round;stroke-linejoin:miter;stroke-miterlimit:4;stroke-dasharray:none;stroke-opacity:1"
             id="path8184"
             d="M 31.056623,697.27893 C 31.056623,697.27893 30.600045,695.96758 27.312673,692.73065 C 24.126608,689.59347 20.59626,688.31959 20.59626,688.31959" />
          <path
             style="font-size:12px;fill:#fcef3c;fill-opacity:1;stroke:#000000;stroke-width:3.00598168;stroke-miterlimit:4;stroke-dasharray:none;stroke-opacity:1"
             id="path8186"
             d="M 52.89062,712.93665 C 50.388837,701.46359 42.549916,693.47705 35.376754,695.0412 C 28.203603,696.60536 24.377107,707.13563 26.878891,718.60869 C 29.382897,730.09194 37.228475,738.10897 44.425767,736.53955 C 51.598929,734.97539 55.394627,724.4199 52.89062,712.93665" />
          <path
             style="font-size:12px;fill:#fcef3c;fill-opacity:1;stroke:#000000;stroke-width:3.00598168;stroke-miterlimit:4;stroke-dasharray:none;stroke-opacity:1"
             id="path8188"
             d="M 48.811049,713.83173 C 46.952843,705.31011 41.459414,699.30637 36.53691,700.37975 C 31.614418,701.45314 29.102581,709.20249 30.960787,717.72411 C 32.820635,726.25329 38.319011,732.27969 43.258076,731.20268 C 48.180568,730.1293 50.670897,722.36091 48.811049,713.83173" />
          <path
             style="fill:#fcef3c;fill-opacity:1;fill-rule:evenodd;stroke:#000000;stroke-width:3.00598168;stroke-linecap:butt;stroke-linejoin:miter;stroke-miterlimit:4;stroke-dasharray:none;stroke-opacity:1"
             id="path8190"
             d="M -53.4063,780.11788 C -49.866437,782.09527 -48.84296,782.39663 -43.44326,782.50256 C -37.898345,782.90536 -26.34593,778.62004 -26.34593,778.62004 C -26.345952,778.62003 -30.040936,775.94763 -31.190173,773.49084 C -32.696345,770.27109 -32.594981,768.76029 -35.393267,765.61895 C -38.191598,762.47756 -42.837729,762.02139 -42.837729,762.02139 L -44.761179,757.31962 L -41.021138,756.64285 C -41.021126,756.64284 -39.035443,761.22144 -34.5384,762.80501 C -30.173725,764.34199 -22.962083,758.95811 -22.962083,758.95811 C -22.962083,758.95812 -26.805483,749.29583 -31.012076,748.41476 C -35.218714,747.53368 -36.960522,748.20104 -36.960522,748.20104 L -39.453883,744.49662 L -37.138619,742.92937 C -37.138619,742.92936 -31.531208,745.4594 -28.87491,743.81985 C -26.218634,742.18032 -26.465337,739.60718 -25.419824,734.41632 C -24.550436,730.09988 -22.997702,724.76345 -22.997702,724.76345 C -22.997714,724.76348 -27.498016,724.54863 -30.869598,722.80438 C -34.241192,721.06014 -36.428419,717.06536 -40.486846,719.20682 C -44.369251,721.25542 -43.740343,724.55302 -44.939276,727.50615 C -46.159029,730.51053 -49.961614,731.10371 -49.961614,731.10371 L -50.638384,727.11434 C -50.638381,727.11432 -47.057881,725.97342 -45.972237,721.13027 C -44.886571,716.28708 -46.150335,711.58426 -46.150335,711.58426 C -46.150324,711.58425 -51.978964,711.93347 -54.383097,715.79203 C -56.787222,719.65057 -55.556498,720.50417 -57.357454,721.96355 C -59.158423,723.42292 -61.194864,723.35504 -61.194864,723.35504 C -61.194871,723.35504 -62.188158,720.12793 -60.518095,718.40161 C -58.848002,716.67525 -59.231044,716.79749 -57.319498,714.92209 C -55.407926,713.04674 -51.96943,704.74403 -51.96943,704.74403 C -51.96944,704.74404 -54.345992,704.32116 -56.429012,704.5636 C -58.512022,704.80604 -61.432888,706.05305 -61.987465,704.99103 C -62.542042,703.92901 -61.795785,704.06939 -63.476721,699.20897 C -65.157656,694.34857 -67.439058,690.85868 -67.439058,690.85868 C -70.234537,691.55754 -72.214127,692.97465 -75.797927,695.90495 C -79.381725,698.83525 -78.250972,698.50194 -82.909594,703.21369 C -86.643647,701.27823 -92.899892,700.23336 -98.617766,702.99244 C -104.06251,705.61972 -105.87498,707.18372 -109.05452,713.83375 C -99.119354,713.38504 -88.627741,721.16003 -81.342339,730.28447 C -80.296765,731.68493 -79.283009,733.26568 -78.279067,734.98623 C -77.275126,736.70678 -76.308299,738.53882 -75.358273,740.47163 C -73.458223,744.33724 -71.661652,748.55022 -70.050977,752.61785 C -68.440303,756.68549 -66.999664,760.60909 -65.776645,764.01607 C -65.165135,765.71957 -64.348228,767.48231 -63.354523,769.21651 C -62.360818,770.95072 -61.179917,772.68603 -59.935057,774.38133 C -58.885195,775.81108 -54.548895,778.76144 -53.4063,780.11788 z" />
          <path
             style="fill:#fcef3c;fill-opacity:1;fill-rule:evenodd;stroke:#000000;stroke-width:3.00598168;stroke-linecap:round;stroke-linejoin:miter;stroke-miterlimit:4;stroke-dasharray:none;stroke-opacity:1"
             id="path8192"
             d="M -59.455472,765.22625 C -59.455472,765.22625 -56.669557,768.64293 -55.096375,769.865 C -53.523197,771.08705 -49.05996,772.95997 -49.05996,772.95997" />
          <path
             style="fill:#fcef3c;fill-opacity:1;fill-rule:evenodd;stroke:#000000;stroke-width:3.00598168;stroke-linecap:round;stroke-linejoin:miter;stroke-miterlimit:4;stroke-dasharray:none;stroke-opacity:1"
             id="path8194"
             d="M -57.241498,752.29498 C -52.806521,750.67671 -48.419548,751.33894 -44.18183,752.34348" />
          <path
             style="fill:#fcef3c;fill-opacity:1;fill-rule:evenodd;stroke:#000000;stroke-width:3.00598168;stroke-linecap:round;stroke-linejoin:miter;stroke-miterlimit:4;stroke-dasharray:none;stroke-opacity:1"
             id="path8196"
             d="M -59.662144,744.91095 C -55.747543,741.99597 -50.741764,739.53887 -44.277963,737.69362" />
          <path
             style="fill:#fcef3c;fill-opacity:1;fill-rule:evenodd;stroke:#000000;stroke-width:3.00598168;stroke-linecap:round;stroke-linejoin:miter;stroke-miterlimit:4;stroke-dasharray:none;stroke-opacity:1"
             id="path8198"
             d="M -64.235927,737.3726 C -64.235927,737.3726 -62.914264,733.80656 -61.017464,732.1676 C -59.120678,730.52863 -58.37895,728.03037 -58.37895,728.03037" />
          <path
             style="fill:#fcef3c;fill-opacity:1;fill-rule:evenodd;stroke:#000000;stroke-width:3.00598168;stroke-linecap:round;stroke-linejoin:miter;stroke-miterlimit:4;stroke-dasharray:none;stroke-opacity:1"
             id="path8200"
             d="M -75.310675,730.47765 C -75.310675,730.47765 -75.709568,729.14806 -74.982267,724.62181 C -74.277381,720.23507 -72.218787,717.16557 -72.218787,717.16557" />
          <path
             style="font-size:12px;fill:#fcef3c;fill-opacity:1;stroke:#000000;stroke-width:3.00598168;stroke-miterlimit:4;stroke-dasharray:none;stroke-opacity:1"
             id="path8202"
             d="M -62.820231,769.89328 C -56.506184,766.78846 -55.022129,756.0098 -59.614482,745.42273 C -64.28741,734.64989 -73.432831,728.2801 -80.02442,731.13933 C -80.316229,731.26591 -80.535993,731.51583 -80.808047,731.67362 C -80.572445,733.4148 -80.64009,733.4243 -80.309375,735.4849 C -79.765204,738.87551 -79.099549,742.51812 -78.314687,745.81454 C -77.529825,749.11096 -76.612234,752.069 -75.607609,754.07825 C -74.602985,756.08749 -73.104044,758.28368 -71.440135,760.41851 C -69.776226,762.55334 -67.955931,764.632 -66.239697,766.47381 C -64.398822,768.44939 -63.997625,768.75391 -62.820231,769.89328 z" />
          <path
             style="font-size:12px;fill:#fcef3c;fill-opacity:1;stroke:#000000;stroke-width:3.00598168;stroke-miterlimit:4;stroke-dasharray:none;stroke-opacity:1"
             id="path8204"
             d="M -77.098713,752.82766 C -80.56953,744.82614 -82.378071,738.11835 -77.854669,736.15623 C -73.331266,734.19411 -66.845486,739.05051 -63.37467,747.05202 C -59.900769,755.06065 -60.762,763.12922 -65.300626,765.09795 C -69.824029,767.06006 -73.624813,760.83629 -77.098713,752.82766" />
          <path
             style="fill:#fcef3c;fill-opacity:1;fill-rule:evenodd;stroke:#000000;stroke-width:3.00598168;stroke-linecap:butt;stroke-linejoin:miter;stroke-miterlimit:4;stroke-dasharray:none;stroke-opacity:1"
             id="path8206"
             d="M 384.15743,780.11788 C 380.61756,782.09527 379.59408,782.39663 374.19438,782.50256 C 368.64948,782.90536 357.09705,778.62004 357.09705,778.62004 C 357.09708,778.62003 360.79206,775.94763 361.9413,773.49084 C 363.44747,770.27109 363.3461,768.76029 366.14439,765.61895 C 368.94272,762.47756 373.58885,762.02139 373.58885,762.02139 L 375.5123,757.31962 L 371.77226,756.64285 C 371.77225,756.64284 369.78658,761.22144 365.28952,762.80501 C 360.92485,764.34199 353.71321,758.95811 353.71321,758.95811 C 353.71321,758.95812 357.55661,749.29583 361.7632,748.41476 C 365.96984,747.53368 367.71165,748.20104 367.71165,748.20104 L 370.20501,744.49662 L 367.88974,742.92937 C 367.88975,742.92936 362.28233,745.4594 359.62603,743.81985 C 356.96976,742.18032 357.21646,739.60718 356.17095,734.41632 C 355.30156,730.09988 353.74883,724.76345 353.74883,724.76345 C 353.74884,724.76348 358.24914,724.54863 361.62072,722.80438 C 364.99231,721.06014 367.17954,717.06536 371.23797,719.20682 C 375.12039,721.25542 374.49147,724.55302 375.6904,727.50615 C 376.91016,730.51053 380.71274,731.10371 380.71274,731.10371 L 381.38951,727.11434 C 381.38951,727.11432 377.80901,725.97342 376.72336,721.13027 C 375.63769,716.28708 376.90146,711.58426 376.90146,711.58426 C 376.90145,711.58425 382.73009,711.93347 385.13422,715.79203 C 387.53835,719.65057 386.30762,720.50417 388.10858,721.96355 C 389.90955,723.42292 391.94599,723.35504 391.94599,723.35504 C 391.94599,723.35504 392.93928,720.12793 391.26922,718.40161 C 389.59912,716.67525 389.98217,716.79749 388.07062,714.92209 C 386.15905,713.04674 382.72056,704.74403 382.72056,704.74403 C 382.72057,704.74404 385.09712,704.32116 387.18014,704.5636 C 389.26315,704.80604 392.18401,706.05305 392.73859,704.99103 C 393.29317,703.92901 392.54691,704.06939 394.22785,699.20897 C 395.90878,694.34857 398.19019,690.85868 398.19019,690.85868 C 400.98566,691.55754 402.96526,692.97465 406.54905,695.90495 C 410.13286,698.83525 409.0021,698.50194 413.66072,703.21369 C 417.39478,701.27823 423.65102,700.23336 429.36889,702.99244 C 434.81364,705.61972 436.6261,707.18372 439.80565,713.83375 C 429.87048,713.38504 419.37886,721.16003 412.09346,730.28447 C 411.04789,731.68493 410.03414,733.26568 409.03019,734.98623 C 408.02625,736.70678 407.05943,738.53882 406.1094,740.47163 C 404.20935,744.33724 402.41277,748.55022 400.8021,752.61785 C 399.19143,756.68549 397.75079,760.60909 396.52777,764.01607 C 395.91626,765.71957 395.09936,767.48231 394.10565,769.21651 C 393.11194,770.95072 391.93104,772.68603 390.68618,774.38133 C 389.63633,775.81108 385.30002,778.76144 384.15743,780.11788 z" />
          <path
             style="fill:#fcef3c;fill-opacity:1;fill-rule:evenodd;stroke:#000000;stroke-width:3.00598168;stroke-linecap:round;stroke-linejoin:miter;stroke-miterlimit:4;stroke-dasharray:none;stroke-opacity:1"
             id="path8208"
             d="M 390.2066,765.22625 C 390.2066,765.22625 387.42068,768.64293 385.8475,769.865 C 384.27432,771.08705 379.81108,772.95997 379.81108,772.95997" />
          <path
             style="fill:#fcef3c;fill-opacity:1;fill-rule:evenodd;stroke:#000000;stroke-width:3.00598168;stroke-linecap:round;stroke-linejoin:miter;stroke-miterlimit:4;stroke-dasharray:none;stroke-opacity:1"
             id="path8210"
             d="M 387.99262,752.29498 C 383.55764,750.67671 379.17067,751.33894 374.93296,752.34348" />
          <path
             style="fill:#fcef3c;fill-opacity:1;fill-rule:evenodd;stroke:#000000;stroke-width:3.00598168;stroke-linecap:round;stroke-linejoin:miter;stroke-miterlimit:4;stroke-dasharray:none;stroke-opacity:1"
             id="path8212"
             d="M 390.41327,744.91095 C 386.49867,741.99597 381.49289,739.53887 375.0291,737.69362" />
          <path
             style="fill:#fcef3c;fill-opacity:1;fill-rule:evenodd;stroke:#000000;stroke-width:3.00598168;stroke-linecap:round;stroke-linejoin:miter;stroke-miterlimit:4;stroke-dasharray:none;stroke-opacity:1"
             id="path8214"
             d="M 394.98705,737.3726 C 394.98705,737.3726 393.66539,733.80656 391.76859,732.1676 C 389.8718,730.52863 389.13007,728.03037 389.13007,728.03037" />
          <path
             style="fill:#fcef3c;fill-opacity:1;fill-rule:evenodd;stroke:#000000;stroke-width:3.00598168;stroke-linecap:round;stroke-linejoin:miter;stroke-miterlimit:4;stroke-dasharray:none;stroke-opacity:1"
             id="path8216"
             d="M 406.0618,730.47765 C 406.0618,730.47765 406.46069,729.14806 405.73339,724.62181 C 405.02851,720.23507 402.96992,717.16557 402.96992,717.16557" />
          <path
             style="font-size:12px;fill:#fcef3c;fill-opacity:1;stroke:#000000;stroke-width:3.00598168;stroke-miterlimit:4;stroke-dasharray:none;stroke-opacity:1"
             id="path8218"
             d="M 393.57136,769.89328 C 387.25731,766.78846 385.77325,756.0098 390.36561,745.42273 C 395.03854,734.64989 404.18395,728.2801 410.77555,731.13933 C 411.06735,731.26591 411.28712,731.51583 411.55917,731.67362 C 411.32357,733.4148 411.39122,733.4243 411.0605,735.4849 C 410.51633,738.87551 409.85067,742.51812 409.06581,745.81454 C 408.28095,749.11096 407.36336,752.069 406.35874,754.07825 C 405.35411,756.08749 403.85517,758.28368 402.19126,760.41851 C 400.52735,762.55334 398.70705,764.632 396.99082,766.47381 C 395.14995,768.44939 394.74875,768.75391 393.57136,769.89328 z" />
          <path
             style="font-size:12px;fill:#fcef3c;fill-opacity:1;stroke:#000000;stroke-width:3.00598168;stroke-miterlimit:4;stroke-dasharray:none;stroke-opacity:1"
             id="path8220"
             d="M 407.84984,752.82766 C 411.32065,744.82614 413.1292,738.11835 408.60579,736.15623 C 404.0824,734.19411 397.59662,739.05051 394.1258,747.05202 C 390.6519,755.06065 391.51312,763.12922 396.05176,765.09795 C 400.57515,767.06006 404.37593,760.83629 407.84984,752.82766" />
          <path
             style="font-size:12px;fill:#fcef3c;fill-opacity:1;stroke:#000000;stroke-width:3.00598168;stroke-miterlimit:4;stroke-dasharray:none;stroke-opacity:1"
             id="path8222"
             d="M 165.41599,841.37654 C 97.119851,838.82695 40.435235,847.88888 -8.1184889,865.0817 C -11.321993,864.10941 -12.996813,861.17571 -12.811341,858.14083 C -12.867546,855.19026 -11.215214,852.51508 -8.1184889,851.58215 C 35.640281,838.4198 96.962134,830.31559 165.41599,830.21443 C 233.85861,830.31559 295.13549,838.4198 338.89992,851.58215 C 341.99659,852.51508 343.62083,855.19026 343.56464,858.14083 C 343.73324,861.17571 342.08095,864.10941 338.89992,865.0817 C 281.07194,848.10556 223.24397,843.57901 165.41599,840.50326" />
          <path
             style="font-size:12px;fill:none;fill-opacity:1;stroke:#000000;stroke-width:3.00598168;stroke-miterlimit:4;stroke-dasharray:none;stroke-opacity:1"
             id="path8224"
             d="M -11.190905,862.53419 L 5.1131462,859.29296 C 47.618602,848.29438 103.45518,841.5727 165.23226,841.45468 C 226.99808,841.5727 283.13254,848.29438 325.63798,859.29296 L 340.49287,866.12583" />
          <path
             style="font-size:12px;fill:#fcef3c;fill-opacity:1;stroke:#000000;stroke-width:3.00598168;stroke-miterlimit:4;stroke-dasharray:none;stroke-opacity:1"
             id="path8226"
             d="M 165.34718,821.86058 C 149.33368,821.86058 136.41498,815.82828 136.41498,808.39427 C 136.41498,800.96026 149.33368,794.90294 165.34718,794.90294 C 181.37488,794.90294 194.33614,800.93524 194.33614,808.39427 C 194.33614,815.82828 181.37488,821.86058 165.34718,821.86058" />
          <path
             style="font-size:12px;fill:#fcef3c;fill-opacity:1;stroke:#000000;stroke-width:3.00598168;stroke-miterlimit:4;stroke-dasharray:none;stroke-opacity:1"
             id="path8228"
             d="M 165.3545,817.63147 C 153.46048,817.63147 143.86509,813.49186 143.86509,808.39036 C 143.86509,803.28886 153.46048,799.13207 165.3545,799.13207 C 177.25908,799.13207 186.88609,803.27168 186.88609,808.39036 C 186.88609,813.49186 177.25908,817.63147 165.3545,817.63147" />
          <path
             style="font-size:12px;fill:#fcef3c;fill-opacity:1;stroke:#000000;stroke-width:3.00598168;stroke-miterlimit:4;stroke-dasharray:none;stroke-opacity:1"
             id="path8230"
             d="M 349.91987,817.43691 C 349.37372,817.26106 348.947,816.99457 348.38823,816.83138 C 333.01684,812.34226 318.91343,814.53971 316.82941,821.67562 C 314.75422,828.78136 325.39186,838.10838 340.65881,842.61985 C 341.42775,841.67978 342.25806,840.90729 342.97408,839.91277 C 344.05082,838.41721 345.06676,836.89717 345.93049,835.31787 C 346.79422,833.73856 347.49345,832.125 348.03204,830.50924 C 348.53799,828.99139 348.94269,827.43219 349.2431,825.91434 C 349.54351,824.39648 349.74872,822.92555 349.88425,821.46191 C 350.01917,820.00479 349.90816,818.78669 349.91987,817.43691 z" />
          <path
             style="font-size:12px;fill:#fcef3c;fill-opacity:1;stroke:#000000;stroke-width:3.00598168;stroke-miterlimit:4;stroke-dasharray:none;stroke-opacity:1"
             id="path8232"
             d="M 350.1692,822.03182 C 349.15784,821.66275 348.28862,821.20619 347.21279,820.89199 C 335.79569,817.5577 325.41905,818.8446 323.98892,823.74155 C 322.55878,828.63849 330.59527,835.3318 342.01235,838.66609 C 342.70168,838.86741 343.32692,838.88994 344.00704,839.05791 C 344.91744,838.37676 345.86618,837.79557 346.6785,836.99198 C 347.42996,836.2486 348.12977,835.44556 348.70881,834.60548 C 349.28785,833.76539 349.74077,832.86303 350.06235,831.93402 C 350.38759,830.9944 350.59677,829.98552 350.7035,828.94199 C 350.81022,827.89846 350.83571,826.82043 350.77473,825.73624 C 350.70307,824.46225 350.39612,823.26697 350.1692,822.03182 z" />
          <path
             style="font-size:12px;fill:#fcef3c;fill-opacity:1;stroke:#000000;stroke-width:3.00598168;stroke-miterlimit:4;stroke-dasharray:none;stroke-opacity:1"
             id="path8234"
             d="M -19.929188,817.43691 C -19.383042,817.26106 -18.956315,816.99457 -18.397552,816.83138 C -3.0261631,812.34226 11.077253,814.53971 13.16127,821.67562 C 15.236464,828.78136 4.5988244,838.10838 -10.668134,842.61985 C -11.437069,841.67978 -12.267384,840.90729 -12.983397,839.91277 C -14.060142,838.41721 -15.076076,836.89717 -15.939811,835.31787 C -16.803545,833.73856 -17.502769,832.125 -18.041357,830.50924 C -18.547313,828.99139 -18.952007,827.43219 -19.252418,825.91434 C -19.55283,824.39648 -19.758043,822.92555 -19.893568,821.46191 C -20.028489,820.00479 -19.917482,818.78669 -19.929188,817.43691 z" />
          <path
             style="font-size:12px;fill:#fcef3c;fill-opacity:1;stroke:#000000;stroke-width:3.00598168;stroke-miterlimit:4;stroke-dasharray:none;stroke-opacity:1"
             id="path8236"
             d="M -20.178524,822.03182 C -19.16716,821.66275 -18.297943,821.20619 -17.22211,820.89199 C -5.8050149,817.5577 4.5716282,818.8446 6.0017629,823.74155 C 7.4318975,828.63849 -0.60458846,835.3318 -12.021673,838.66609 C -12.711003,838.86741 -13.336241,838.88994 -14.016361,839.05791 C -14.92676,838.37676 -15.875502,837.79557 -16.687819,836.99198 C -17.439281,836.2486 -18.139086,835.44556 -18.718127,834.60548 C -19.297168,833.76539 -19.750087,832.86303 -20.071665,831.93402 C -20.396914,830.9944 -20.606094,829.98552 -20.712815,828.94199 C -20.819537,827.89846 -20.845035,826.82043 -20.784054,825.73624 C -20.712394,824.46225 -20.405439,823.26697 -20.178524,822.03182 z" />
          <path
             style="font-size:12px;fill:#fcef3c;fill-opacity:1;stroke:#000000;stroke-width:3.00598168;stroke-miterlimit:4;stroke-dasharray:none;stroke-opacity:1"
             id="path8238"
             d="M 112.21113,809.18978 C 112.21113,805.99755 114.94816,803.40105 118.32027,803.40105 C 121.71486,803.40105 124.45751,805.99755 124.45751,809.18978 C 124.45751,812.3764 121.71486,814.99538 118.32027,814.99538 C 114.94816,814.99538 112.21113,812.3764 112.21113,809.18978" />
          <path
             style="font-size:12px;fill:#fcef3c;fill-opacity:1;stroke:#000000;stroke-width:3.00598168;stroke-miterlimit:4;stroke-dasharray:none;stroke-opacity:1"
             id="path8240"
             d="M 20.062561,819.95234 C 20.062561,816.76009 22.805213,814.1636 26.1717,814.1636 C 29.566295,814.1636 32.303326,816.76009 32.303326,819.95234 C 32.303326,823.16143 29.566295,825.75792 26.1717,825.75792 C 22.805213,825.75792 20.062561,823.16143 20.062561,819.95234" />
          <path
             style="font-size:12px;fill:#fcef3c;fill-opacity:1;stroke:#000000;stroke-width:3.00598168;stroke-miterlimit:4;stroke-dasharray:none;stroke-opacity:1"
             id="path8242"
             d="M 207.22597,809.18978 C 207.22597,805.99755 209.96866,803.40105 213.34076,803.40105 C 216.72975,803.40105 219.47238,805.99755 219.47238,809.18978 C 219.47238,812.3764 216.72975,814.99538 213.34076,814.99538 C 209.96866,814.99538 207.22597,812.3764 207.22597,809.18978" />
          <path
             style="font-size:12px;fill:#fcef3c;fill-opacity:1;stroke:#000000;stroke-width:3.00598168;stroke-miterlimit:4;stroke-dasharray:none;stroke-opacity:1"
             id="path8244"
             d="M 298.4478,819.95234 C 298.4478,816.76009 301.19045,814.1636 304.55694,814.1636 C 307.95153,814.1636 310.68856,816.76009 310.68856,819.95234 C 310.68856,823.16143 307.95153,825.75792 304.55694,825.75792 C 301.19045,825.75792 298.4478,823.16143 298.4478,819.95234" />
          <rect
             style="fill:#fcef3c;fill-opacity:1;fill-rule:evenodd;stroke:#000000;stroke-width:3.29224706;stroke-linecap:round;stroke-linejoin:miter;marker:none;marker-start:none;marker-mid:none;marker-end:none;stroke-miterlimit:4;stroke-dasharray:none;stroke-dashoffset:0;stroke-opacity:1;visibility:visible;display:inline;overflow:visible;enable-background:accumulate"
             id="rect8246"
             transform="matrix(0.9333663,0.3589253,-0.8147016,0.5798804,0,0)"
             y="862.19482"
             x="826.34521"
             height="35.759937"
             width="35.527664" />
          <rect
             style="fill:#fcef3c;fill-opacity:1;fill-rule:evenodd;stroke:#000000;stroke-width:3.29988313;stroke-linecap:round;stroke-linejoin:miter;marker:none;marker-start:none;marker-mid:none;marker-end:none;stroke-miterlimit:4;stroke-dasharray:none;stroke-dashoffset:0;stroke-opacity:1;visibility:visible;display:inline;overflow:visible;enable-background:accumulate"
             id="rect8248"
             transform="matrix(0.9346144,0.3556626,-0.8166963,0.5770677,0,0)"
             y="873.9408"
             x="838.09674"
             height="23.446106"
             width="23.294518" />
          <rect
             style="fill:#fcef3c;fill-opacity:1;fill-rule:evenodd;stroke:#000000;stroke-width:3.29224706;stroke-linecap:round;stroke-linejoin:miter;marker:none;marker-start:none;marker-mid:none;marker-end:none;stroke-miterlimit:4;stroke-dasharray:none;stroke-dashoffset:0;stroke-opacity:1;visibility:visible;display:inline;overflow:visible;enable-background:accumulate"
             id="rect8250"
             transform="matrix(-0.9333663,0.3589253,0.8147016,0.5798804,0,0)"
             y="1004.5972"
             x="596.27948"
             height="35.759937"
             width="35.527664" />
          <rect
             style="fill:#fcef3c;fill-opacity:1;fill-rule:evenodd;stroke:#000000;stroke-width:3.29988313;stroke-linecap:round;stroke-linejoin:miter;marker:none;marker-start:none;marker-mid:none;marker-end:none;stroke-miterlimit:4;stroke-dasharray:none;stroke-dashoffset:0;stroke-opacity:1;visibility:visible;display:inline;overflow:visible;enable-background:accumulate"
             id="rect8252"
             transform="matrix(-0.9346144,0.3556626,0.8166963,0.5770677,0,0)"
             y="1015.7042"
             x="608.08368"
             height="23.446106"
             width="23.294518" />
        </g>
      </g>
    </g>
    <path
       d="M 301.71061,2.28126 L 301.71061,658.5 C 304.44886,657.46355 599.96049,544.94253 599.96049,260.8125 C 599.96049,-24.63903 599.96049,2.28126 599.96049,2.28126 L 301.71061,2.28126 z"
       style="fill:none;fill-opacity:1;fill-rule:evenodd;stroke:#000000;stroke-width:3;stroke-linecap:butt;stroke-linejoin:miter;stroke-miterlimit:4;stroke-dasharray:none;stroke-opacity:1;display:inline"
       id="path2870" />
  </g>
  <g
     inkscape:groupmode="layer"
     id="layer6"
     inkscape:label="reflet"
     sodipodi:insensitive="true">
    <path
       d="M 298.50001,660 C 298.50001,660 597.00001,547.67969 597.00001,262.22817 C 597.00001,-23.223335 597.00001,3.676486 597.00001,3.676486 L -1.3045121e-15,3.676486 L -1.3045121e-15,262.22817 C -1.3045121e-15,547.67969 298.50001,660 298.50001,660 z"
       style="opacity:1;fill:url(#radialGradient2445);fill-opacity:1;fill-rule:evenodd;stroke:none;stroke-width:1px;stroke-linecap:butt;stroke-linejoin:miter;stroke-opacity:1"
       id="path2875" />
  </g>
  <g
     id="layer1">
    <path
       d="M 299.99999,658.50028 C 299.99999,658.50028 1.5,546.17992 1.5,260.72828 C 1.5,-24.723336 1.5,2.1764957 1.5,2.1764957 L 598.49999,2.1764957 L 598.49999,260.72828 C 598.49999,546.17992 299.99999,658.50028 299.99999,658.50028 z "
       style="opacity:1;fill:none;fill-opacity:1;fill-rule:evenodd;stroke:#000000;stroke-width:3.00000048;stroke-linecap:butt;stroke-linejoin:miter;stroke-miterlimit:4;stroke-dasharray:none;stroke-opacity:1"
       id="path1411" />
  </g>
</svg>
