<svg xmlns="http://www.w3.org/2000/svg" width="600.002" height="400" xmlns:v="https://vecta.io/nano"><path d="M0 0v400h600V0z" fill="#fea"/><g fill="red" stroke="#000"><g stroke-width=".783"><path d="M224.979 233.133c2.898-1.296 5.953-3.783 8.809-7.144 4.271-5.092 7.374-11.003 14.338-27.429 1.674-3.972 2.749-6.243 5.923-12.658.347-.755.886-1.36 1.098-1.369.835.021 1.552 3.166 1.554 6.662-.002 7.922-2.203 14.284-9.58 27.695-1.914 3.443-3.833 7.144-4.268 8.196l-.832 1.87 1.147-.625c1.853-1.024 6.153-4.516 7.66-6.26 6.084-6.964 10.607-16.471 13.359-27.944.405-1.722.909-3.28 1.136-3.498.636-.569.283 2.439-1.088 9.212-1.401 6.906-1.586 11.337-.651 13.956l.463 1.35 1.001-.859c2.997-2.608 6.48-9.539 8.578-17.024 1.653-5.937 2.068-5.331 1.899 2.8-.1 3.46-.047 6.376.082 6.536.357.356 2.498-2.371 3.988-5.122 2.935-5.29 4.291-10.117 5.279-18.561.707-6.043.915-9.572.561-10.576-.128-.419-.899-.579-3.129-.66-2.589-.049-3.15-.216-4.439-1.147-2.081-1.45-3.004-3.605-2.668-6.171.391-2.989 2.928-5.599 5.441-5.616.768.005.757-.045-.219-.56-1.355-.687-6.038-.889-8.03-.334-1.909.516-2.56 1.837-2.736 5.361-.125 2.143.039 2.997.876 4.907.592 1.381 1.189 2.242 1.433 2.099s.289-.073.104.191c-.755 1.131-2.865-.444-3.239-2.481-.129-.704-.535-.872-2.25-1.112-7.669-1.04-17.447-8.083-20.213-14.549-1.108-2.566-1.116-5.956-.024-7.763 1.122-1.942 3.452-3.846 4.311-3.57 2 .686 3.093 1.572 4.589 3.816.888 1.333 2.111 2.922 2.732 3.494l1.128 1.035.275-1.08c.623-2.25.735-7.808.229-9.617-.713-2.448-2.916-4.966-4.987-5.564-3.108-.974-7.505-.187-9.904 1.806-1.108.931-3.1 3.374-3.891 4.744-2.115 3.785-2.659 10.812-1.146 15.28.457 1.324.753 2.493.653 2.588-.764.693-3.214-7.611-3.06-10.302.02-.573-.982-2.146-2.955-4.598-11.199-13.803-15.606-25.7-12.107-32.557 1.931-3.651 4.267-5.53 7.55-5.932 1.872-.276 4.327.519 4.992 1.551.542.896.619 3.654.064 3.641-.184.004-.497-.567-.711-1.231-.726-2.368-.749-2.339-3.281-2.396-1.762-.052-2.759.161-3.964.795l-1.676.865.045 2.479c.014 4.632 2.727 6.964 8.405 7.083 3.837.132 6.282-.73 7.391-2.591 1.135-1.892 1.279-7.041.303-9.162-2.661-5.732-9.852-8.041-16.135-5.162-2.28 1.041-6.019 4.156-7.509 6.235-.402.532-1.216 1.673-1.844 2.551-2.071 2.898-5.117 8.387-4.884 8.866.153.26.099.294-.179.159-.222-.171-.873.606-1.649 2.053-4.788 8.618-8.03 12.429-13.932 16.308-2.289 1.534-4.664 3.239-5.302 3.808l-1.056 1.024.831.28c1.553.475 4.924.448 7.147-.041 2.946-.682 7.043-2.509 6.763-3.06-.145-.235-.1-.294.126-.124.388.222 3.415-1.845 6.211-4.264 2.359-2.038 5.082-3.824 5.369-3.508.541.612.634 7.742.108 11.22-1.496 10.389-5.932 18.122-17.313 30.134-1.361 1.437-2.414 2.746-2.266 2.852.3.366 3.495-.434 5.65-1.352 2.545-1.084 6.035-3.822 8.544-6.687 2.466-2.78 9.197-11.893 9.226-12.441.013-.209.293-.332.651-.235.35.047 1.085 1.12 1.624 2.404.922 2.156.996 2.48.747 6.896s-.326 4.894-1.825 8.682c-2.835 7.215-7.559 14.761-14.707 23.527-3.973 4.784-3.855 4.635-2.569 4.351 4.28-.898 10.502-4.984 14.224-9.391 2.425-2.826 6.525-8.537 8.229-11.427 1.609-2.77 6.685-9.442 7.147-9.438.279.007.804.828 1.145 1.782.602 1.56.642 2.278.308 5.517-.673 6.323-2.128 10.983-5.327 17.404-1.601 3.21-5.193 8.994-7.569 12.173-.603.849-1.143 1.712-1.161 1.897-.014.209-.125.408-.29.486s-.847.862-1.5 1.77l-3.81 5.094a137.7 137.7 0 0 0-3.856 5.438l.537 1.001c4.154-2.25 8.901-6.331 11.929-10.289 3.867-4.974 9.549-14.384 9.176-15.075-.117-.239-.08-.349.101-.224.19.151 1.213-1.282 2.293-3.14 1.087-1.833 2.293-3.814 2.694-4.344s.737-1.077.766-1.211c-.01-.309 3.702-5.439 5.231-7.214.622-.774 1.342-1.382 1.562-1.365.527.019-.319 8.285-1.37 13.632-1.353 6.846-4.463 15.011-8.33 22.005-1.653 2.987-5.499 8.864-6.814 10.499-.417.456-.628 1.008-.554 1.202.134.186.07.299-.101.224-.167-.052-1.519 1.281-3.001 2.996l-3.26 3.737c-.543.579-.532.628.456.65.585.035 1.915-.335 2.972-.816zm58.884-6.015c.68-5.884 2.726-10.38 5.839-13.007 1.317-1.092 1.622-1.505 1.66-2.545.115-2.324-.121-6.04-.399-6.047-.153-.001-.543.45-.866 1.046-1.099 2.042-4.629 6.08-6.999 8.069-2.657 2.215-6.347 4.079-9.451 4.736-1.113.232-2.129.629-2.231.851-.349.757 2.185 1.771 4.8 1.919 1.341.094 2.733.129 3.094.097.572-.041.778.315 1.058 2.081.204 1.157.411 2.6.43 3.09.119 1.196 1.328 2.867 2.11 2.921.496.024.641-.417.956-3.211zm-62.819-3.68c7.222-2.254 14.482-10.805 18.537-21.816 2.004-5.346 3.184-10.663 4.054-17.742l.304-2.301-.777.902c-1.232 1.468-5.356 9.487-7.873 15.278-5.833 13.576-8.84 18.696-14.105 23.741-1.503 1.486-2.618 2.649-2.529 2.635.065.015 1.154-.316 2.39-.696zm22.846-4.57c6.629-8.215 10.353-17.05 11.256-26.673.417-4.624.436-4.807-.208-4.004-.388.451-1.571 2.532-2.66 4.624-1.792 3.448-3.597 8.037-8.722 22.172-.883 2.448-1.924 5.154-2.363 6.052-.416.869-.725 1.67-.677 1.741.076.065 1.576-1.705 3.375-3.911zm-31.26-13.567c6.646-2.368 14.128-10.748 17.525-19.53 2.3-6.067 3.634-14.205 2.363-14.259-1.385-.01-3.783 3.873-8.965 14.394-4.784 9.704-7.601 14.171-11.479 18.164-.992 1.042-1.686 1.903-1.501 1.9.154.001 1.067-.301 2.057-.668zm-6.873-22.424c7.559-3.603 12.287-8.715 14.249-15.453.653-2.255 1.018-7.104.703-9.822-.17-1.682-.215-1.752-.859-1.208-1.132.959-2.731 3.911-4.869 9.202-2.415 5.826-4.33 9.139-6.783 11.839-1.032 1.124-1.674 2.082-1.487 2.363.121.265.079.349-.179.159-.217-.146-.997.342-1.79 1.169-2.119 2.155-3.021 3.31-2.648 3.327.152.001 1.805-.706 3.662-1.576zm-9.183-26.479c.735-.273 1.496-.708 1.63-.937.161-.233.268-.302.284-.097-.016.469 5.585-2.429 7.872-4.119 4.85-3.502 7.481-7.577 8.037-12.405.353-3.422.128-6.286-.491-6.316-.798 0-2.887 2.02-3.706 3.679-.474.88-1.408 2.973-2.122 4.693-1.474 3.63-3.657 6.572-8.268 11.121-3.549 3.551-4.917 4.963-4.672 4.949.083-.039.735-.273 1.435-.568zm99.546-4.202c.972-.349 2.26-.713 2.868-.789.653-.118 1.165-.273 1.141-.401-.05-.715-2.314-8.596-2.937-10.192-2.368-6.337-4.763-11.313-8.701-18.309-1.592-2.814-5.24-6.303-6.506-6.189-1.313.076-.401-.635 2.07-1.602 2.612-1.009 4.052-2.284 3.966-3.528-.107-.699-.136-.69-1.007-.181-2.494 1.514-4.839 1.199-8.86-1.068-3.926-2.269-5.469-2.8-6.83-2.468-2.446.58-4.103 2.842-3.886 5.289.139 1.445-.328 1.775-.958.751-.381-.587-.364-1.89.079-3.918.19-.679-.114-.937-2.156-1.887-5.189-2.451-9.985-3.239-13.227-2.201-1.692.541-3.865 2.201-3.402 2.601.148.118 1.904.557 3.94.966 8.819 1.864 12.057 4.179 13.23 9.446.546 2.538-.144 2.503-2.607-.1-1.857-2.005-4.76-3.989-5.721-3.913-.402.04-.426.13.033.53.256.22 1.361 1.45 2.496 2.675 1.127 1.28 2.176 2.15 2.421 2.05.261-.134.361-.056.233.171-.241.479 4.459 4.702 5.144 4.656.18-.028.584-.285.775-.585.357-.514.562-.333 1.389 1.146.546.97 1.565 2.445 2.248 3.292 1.397 1.685 2.906 4.822 3.033 6.162.053.794.275.863 3.104 1.031 2.936.19 6.181 1.177 7.543 2.332 2.706 2.342 5.03 6.258 7.214 12.164 1.146 3.113 1.068 3.083 3.871 2.069zm-17.656-30.944c-1.146-2.22-1.87-2.784-3.286-2.652-1.563.097-3.521-.66-4.338-1.737-.359-.458-.753-1.528-.844-2.338l-.199-1.508 1.781-.108c2.123-.131 3.946.828 5.655 3.014 1.083 1.401 3.628 6.954 3.375 7.41-.222.526-1.302-.498-2.144-2.08z"/><path d="M245.264 244.204c-3.641-1.562-7.894-.822-12.794 2.195l-2.389 1.499.322-1.139c.16-.647.385-1.408.476-1.68 1.102-2.846 4.398-3.869 12.823-3.962 2.295-.033 4.247-.09 4.348-.184.107-.069-.154-.804-.577-1.589-2.068-4.068-6.93-6.545-10.526-5.344-1.257.411-1.323.395-.98-.126.617-.928 1.692-1.594 3.568-2.259 1.999-.657 2.738-.519 5.127.932 1.253.783 5.066 4.308 5.6 5.155.345.565 2.932 2.348 3.428 2.371.715.041 3.741-1.769 4.114-2.424.149-.283.464-.387.742-.249.305.13.454.107.378-.089-.068-.169 5.362-2.469 7.011-4.262 1.618-1.789 5.518-4.206 6.116-4.95s1.35-1.616 1.713-1.907c.332-.285.517-.55.366-.551-.438-.032 2.331-2.291 3.55-2.875.629-.336 1.637-.628 2.264-.704l1.108-.128-1.256 1.756c-1.766 2.356-2.871 3.572-6.554 6.936-4.662 4.324-13.035 7.592-14.737 10.223-2.009 3.173-3.509 2.25-2.07 3.311 1.334 1.003 3.167 4.59 2.543 4.949-.251.119-.262.197.012.181.964-.079-1.147 5.642-2.841 7.681l-.718.861.481-1.431c.289-.776.332-2.453.168-3.71-.825-6.222-8.224-5.618-15.782-1.472-2.775 1.561-4.455 2.945-5.971 5.056-.515.704-.938 1.264-.974 1.243-.222-.3 1.164-4.045 1.902-5.252 1.535-2.422 6.142-5.367 10.315-6.456.724-.193 1.365-.478 1.36-.634.025-.158-.716-.581-1.666-.973z"/><g fill-rule="evenodd"><path d="M296.222 229.872c-3.085-1.748-4.299-6.551-4.622-18.286-.229-8.314-.62-10.759-3.32-20.738-2.722-10.064-3.311-13.636-3.157-19.156.186-6.657 1.719-10.688 5.453-14.331l1.485-1.449 4.671.118c2.569.064 6.009.045 7.644-.044 3.678-.2 4.609.201 7.264 3.134 3.019 3.334 3.257 4.017 3.477 9.954.371 10.03-1.351 20.346-6.014 36.012-1.125 3.779-1.276 4.953-1.579 12.251-.193 4.636-.553 8.668-.847 9.474-.285.783-1.181 1.916-2.027 2.564-1.373 1.052-1.779 1.164-4.328 1.195-2.242.027-3.074-.115-4.101-.696zm3.907 71.118c-2.576-2.893-4.905-5.102-5.249-11.73l-.255-4.917-1.073-.105c-.81-.079-1.725.384-3.73 1.888-3.79 2.843-6.278 3.602-7.749 2.365-.984-.827-.592-3.184 1.089-6.549s1.498-3.916-1.181-3.607c-5.818.67-7.091.661-9.976-.077-3.759-.961-6.08-2.432-7.428-4.707-1.176-1.984-1.439-4.66-.553-5.617.698-.754 3.638-2.38 4.301-2.38.405 0 .431.27.109 1.15-.992 2.718 1.754 6.264 5.735 7.404 2.779.796 6.749.739 9.534-.137 2.522-.793 5.196-2.931 7.122-5.693 3.475-4.985 6.491-16.318 6.519-24.5.015-4.206.022-4.215 3.334-4.215h2.821l.259 1.317c.142.724.261 2.214.264 3.311.016 6.92 4.175 19.497 8.417 25.45 1.958 2.748 4.758 5.293 6.79 6.172 2.346 1.015 7.271 1.253 10.348.501 4.189-1.024 6.533-3.883 5.408-6.596-.255-.616-.379-1.191-.275-1.278.297-.25 2.828 1.171 4.14 2.324 1.072.942 1.162 1.2.89 2.571-.419 2.113-1.547 3.844-3.394 5.207-2.571 1.898-4.916 2.606-8.588 2.596-2.798-.008-3.567-.159-5.933-1.169-4.298-1.834-4.771-1.221-2.967 3.845 1.132 3.179 1.352 6.188.522 7.134-.487.556-.639.547-2.275-.136-.964-.402-3.337-2.144-5.274-3.871-4.804-4.284-4.891-4.233-5.517 3.194-.527 6.25-3.178 9.431-6.184 10.852-.065.046.246-.209 0 0z" paint-order="normal"/><path d="M306.156 156.531c1.247-.429 2.333-.95 2.414-1.159.268-.691-1.517-2.179-3.719-3.102-3.669-1.537-9.145-1.091-12.241.998l-1.253.846 1.209 1.067c1.638 1.445 4.342 2.154 8.161 2.141 2.285-.007 3.793-.227 5.43-.79z" paint-order="normal"/></g></g><path d="M306.652 234.857a6.655 4.451 0 0 1-6.655 4.451 6.655 4.451 0 0 1-6.655-4.451 6.655 4.451 0 0 1 6.655-4.451 6.655 4.451 0 0 1 6.655 4.451zm-28.188-113.606c-.206-.235-.64-.905-.964-1.489-.685-1.236-1.515-2.214-2.079-2.449-.218-.091-.724-.166-1.124-.166-.721 0-.728-.003-.815-.397-.158-.714-.104-1.683.105-1.892.256-.256 1.545-.435 1.772-.247.531.441 1.851 2.864 2.9 5.325l.637 1.685c-.031.031-.226-.135-.432-.37z" fill-rule="evenodd" paint-order="normal"/><g stroke-width=".783"><path d="M375.279 233.133c-2.898-1.296-5.953-3.783-8.809-7.144-4.271-5.092-7.374-11.003-14.338-27.429-1.674-3.972-2.749-6.243-5.923-12.658-.347-.755-.886-1.36-1.098-1.369-.835.021-1.552 3.166-1.554 6.662.002 7.922 2.203 14.284 9.58 27.695 1.914 3.443 3.833 7.144 4.268 8.196l.832 1.87-1.147-.625c-1.853-1.024-6.153-4.516-7.66-6.26-6.084-6.964-10.607-16.471-13.359-27.944-.405-1.722-.909-3.28-1.136-3.498-.636-.569-.283 2.439 1.088 9.212 1.401 6.906 1.586 11.337.651 13.956l-.463 1.35-1.001-.859c-2.997-2.608-6.48-9.539-8.578-17.024-1.653-5.937-2.068-5.331-1.899 2.8.1 3.46.047 6.376-.082 6.536-.357.356-2.498-2.371-3.988-5.122-2.935-5.29-4.291-10.117-5.279-18.561-.707-6.043-.426-8.594-.072-9.598.128-.419.411-1.557 2.64-1.638 2.589-.049 3.15-.216 4.439-1.147 2.081-1.45 3.004-3.605 2.668-6.171-.391-2.989-2.928-5.599-5.441-5.616-.768.005-.757-.045.219-.56 1.355-.687 6.038-.889 8.03-.334 1.909.516 2.56 1.837 2.736 5.361.125 2.143-.039 2.997-.876 4.907-.592 1.381-1.189 2.242-1.433 2.099s-.289-.073-.104.191c.755 1.131 2.865-.444 3.239-2.481.129-.704.535-.872 2.25-1.112 7.669-1.04 17.447-8.083 20.213-14.549 1.108-2.566 1.116-5.956.024-7.763-1.122-1.942-3.452-3.846-4.311-3.57-2 .686-3.093 1.572-4.589 3.816-.888 1.333-2.111 2.922-2.732 3.494l-1.128 1.035-.275-1.08c-.623-2.25-.735-7.808-.229-9.617.713-2.448 2.916-4.966 4.987-5.564 3.108-.974 7.505-.187 9.904 1.806 1.108.931 3.1 3.374 3.891 4.744 2.115 3.785 2.659 10.812 1.146 15.28-.457 1.324-.753 2.493-.653 2.588.764.693 3.214-7.611 3.06-10.302-.02-.573.982-2.146 2.955-4.598 11.199-13.803 15.606-25.7 12.107-32.557-1.931-3.651-4.267-5.53-7.55-5.932-1.872-.276-4.327.519-4.992 1.551-.542.896-.619 3.654-.064 3.641.184.004.497-.567.711-1.231.726-2.368.749-2.339 3.281-2.396 1.762-.052 2.759.161 3.964.795l1.676.865-.045 2.479c-.014 4.632-2.727 6.964-8.405 7.083-3.837.132-6.282-.73-7.391-2.591-1.135-1.892-1.279-7.041-.303-9.162 2.661-5.732 9.852-8.041 16.135-5.162 2.28 1.041 6.019 4.156 7.509 6.235.402.532 1.216 1.673 1.844 2.551 2.071 2.898 5.117 8.387 4.884 8.866-.153.26-.099.294.179.159.222-.171.873.606 1.649 2.053 4.788 8.618 8.03 12.429 13.932 16.308 2.289 1.534 4.664 3.239 5.302 3.808l1.056 1.024-.831.28c-1.553.475-4.924.448-7.147-.041-2.946-.682-7.043-2.509-6.763-3.06.145-.235.1-.294-.126-.124-.388.222-3.415-1.845-6.211-4.264-2.359-2.038-5.082-3.824-5.369-3.508-.541.612-.634 7.742-.108 11.22 1.496 10.389 5.932 18.122 17.313 30.134 1.361 1.437 2.414 2.746 2.266 2.852-.3.366-3.495-.434-5.65-1.352-2.545-1.084-6.035-3.822-8.544-6.687-2.466-2.78-9.197-11.893-9.226-12.441-.013-.209-.293-.332-.651-.235-.35.047-1.085 1.12-1.624 2.404-.922 2.156-.996 2.48-.747 6.896s.326 4.894 1.825 8.682c2.835 7.215 7.559 14.761 14.707 23.527 3.973 4.784 3.855 4.635 2.569 4.351-4.28-.898-10.502-4.984-14.224-9.391-2.425-2.826-6.525-8.537-8.229-11.427-1.609-2.77-6.685-9.442-7.147-9.438-.279.007-.804.828-1.145 1.782-.602 1.56-.642 2.278-.308 5.517.673 6.323 2.128 10.983 5.327 17.404 1.601 3.21 5.193 8.994 7.569 12.173.603.849 1.143 1.712 1.161 1.897.014.209.125.408.29.486s.847.862 1.5 1.77l3.81 5.094a137.7 137.7 0 0 1 3.856 5.438l-.537 1.001c-4.154-2.25-8.901-6.331-11.929-10.289-3.867-4.974-9.549-14.384-9.176-15.075.117-.239.08-.349-.101-.224-.19.151-1.213-1.282-2.293-3.14-1.087-1.833-2.293-3.814-2.693-4.344s-.737-1.077-.766-1.211c.01-.309-3.702-5.439-5.231-7.214-.622-.774-1.342-1.382-1.562-1.365-.527.019.319 8.285 1.37 13.632 1.353 6.846 4.463 15.011 8.33 22.005 1.653 2.987 5.499 8.864 6.814 10.499.417.456.628 1.008.554 1.202-.134.186-.07.299.101.224.167-.052 1.519 1.281 3.001 2.996l3.26 3.737c.543.579.532.628-.456.65-.585.035-1.914-.335-2.972-.816zm-58.884-6.015c-.68-5.884-2.726-10.38-5.839-13.007-1.317-1.092-2.111-1.505-2.149-2.545-.115-2.324.61-6.04.888-6.047.153-.001.543.45.866 1.046 1.099 2.042 4.629 6.08 6.999 8.069 2.657 2.215 6.347 4.079 9.451 4.736 1.113.232 2.129.629 2.231.851.349.757-2.185 1.771-4.8 1.919-1.341.094-2.733.129-3.094.097-.572-.041-.778.315-1.058 2.081-.204 1.157-.411 2.6-.43 3.09-.119 1.196-1.328 2.867-2.11 2.921-.496.024-.641-.417-.956-3.211zm62.819-3.68c-7.222-2.254-14.482-10.805-18.537-21.816-2.004-5.346-3.184-10.663-4.054-17.742l-.304-2.301.777.902c1.232 1.468 5.356 9.487 7.873 15.278 5.833 13.576 8.84 18.696 14.105 23.741 1.503 1.486 2.618 2.649 2.529 2.635-.065.015-1.154-.316-2.39-.696zm-22.846-4.57c-6.629-8.215-10.353-17.05-11.256-26.673-.417-4.624-.437-4.807.208-4.004.388.451 1.57 2.532 2.66 4.624 1.792 3.448 3.597 8.037 8.722 22.172.883 2.448 1.924 5.154 2.363 6.052.416.869.725 1.67.677 1.741-.076.065-1.576-1.705-3.375-3.911zm31.26-13.567c-6.646-2.368-14.128-10.748-17.525-19.53-2.3-6.067-3.634-14.205-2.363-14.259 1.385-.01 3.783 3.873 8.965 14.394 4.784 9.704 7.601 14.171 11.479 18.164.992 1.042 1.686 1.903 1.501 1.9-.154.001-1.067-.301-2.057-.668zm6.873-22.424c-7.559-3.603-12.287-8.715-14.249-15.453-.653-2.255-1.018-7.104-.703-9.822.17-1.682.215-1.752.859-1.208 1.132.959 2.731 3.911 4.869 9.202 2.415 5.826 4.33 9.139 6.783 11.839 1.032 1.124 1.674 2.082 1.487 2.363-.121.265-.079.349.179.159.217-.146.997.342 1.79 1.169 2.119 2.155 3.021 3.31 2.648 3.327-.152.001-1.805-.706-3.662-1.576zm9.183-26.479c-.735-.273-1.496-.708-1.63-.937-.161-.233-.268-.302-.284-.097.016.469-5.585-2.429-7.872-4.119-4.85-3.502-7.481-7.577-8.037-12.405-.353-3.422-.128-6.286.491-6.316.798 0 2.887 2.02 3.706 3.679.474.88 1.408 2.973 2.122 4.693 1.474 3.63 3.657 6.572 8.268 11.121 3.549 3.551 4.917 4.963 4.672 4.949-.083-.039-.735-.273-1.435-.568zm-99.546-4.202c-.972-.349-2.26-.713-2.868-.789-.653-.118-1.165-.273-1.141-.401.05-.715 2.314-8.596 2.937-10.192 2.368-6.337 4.763-11.313 8.701-18.309 1.592-2.814 5.24-6.303 6.506-6.189 1.313.076.401-.635-2.07-1.602-2.612-1.009-4.052-2.284-3.966-3.528.107-.699.136-.69 1.007-.181 2.494 1.514 4.839 1.199 8.86-1.068 3.926-2.269 5.469-2.8 6.83-2.468 2.446.58 4.103 2.842 3.886 5.289-.139 1.445.328 1.775.958.751.381-.587.364-1.89-.079-3.918-.19-.679.114-.937 2.156-1.887 5.189-2.451 9.985-3.239 13.227-2.201 1.692.541 3.865 2.201 3.402 2.601-.148.118-1.904.557-3.94.966-8.819 1.864-12.057 4.179-13.23 9.446-.546 2.538.144 2.503 2.607-.1 1.857-2.005 4.76-3.989 5.721-3.913.402.04.426.13-.033.53-.256.22-1.361 1.45-2.496 2.675-1.127 1.28-2.176 2.15-2.421 2.05-.261-.134-.361-.056-.233.171.241.479-4.459 4.702-5.144 4.656-.18-.028-.584-.285-.775-.585-.357-.514-.562-.333-1.389 1.146-.546.97-1.565 2.445-2.248 3.292-1.397 1.685-2.906 4.822-3.033 6.162-.053.794-.275.863-3.104 1.031-2.936.19-6.181 1.177-7.543 2.332-2.706 2.342-5.03 6.258-7.214 12.164-1.146 3.113-1.068 3.083-3.871 2.069zm17.656-30.944c1.146-2.22 1.87-2.784 3.286-2.652 1.563.097 3.521-.66 4.338-1.737.359-.458.753-1.528.844-2.338l.199-1.508-1.781-.108c-2.123-.131-3.946.828-5.655 3.014-1.083 1.401-3.628 6.954-3.375 7.41.222.526 1.302-.498 2.144-2.08z"/><path d="M354.994 244.204c3.641-1.562 7.894-.822 12.794 2.195l2.389 1.499-.322-1.139c-.16-.647-.385-1.408-.476-1.68-1.102-2.846-4.398-3.869-12.823-3.962-2.295-.033-4.247-.09-4.348-.184-.107-.069.154-.804.577-1.589 2.068-4.068 6.93-6.545 10.526-5.344 1.257.411 1.323.395.98-.126-.617-.928-1.692-1.594-3.568-2.259-1.999-.657-2.738-.519-5.127.932-1.253.783-5.066 4.308-5.6 5.155-.345.565-2.932 2.348-3.428 2.371-.715.041-3.741-1.769-4.114-2.424-.149-.283-.464-.387-.742-.249-.305.13-.454.107-.378-.089.068-.169-5.362-2.469-7.011-4.262-1.618-1.789-5.518-4.206-6.116-4.95s-1.35-1.616-1.713-1.907c-.332-.285-.517-.55-.366-.551.438-.032-2.331-2.291-3.55-2.875-.629-.336-1.637-.628-2.264-.704l-1.108-.128 1.256 1.756c1.766 2.356 2.871 3.572 6.554 6.936 4.662 4.324 13.035 7.592 14.737 10.223 2.009 3.173 3.509 2.25 2.07 3.311-1.334 1.003-3.167 4.59-2.543 4.949.251.119.262.197-.012.181-.964-.079 1.147 5.642 2.841 7.681l.718.861-.481-1.431c-.289-.776-.332-2.453-.168-3.71.825-6.222 8.224-5.618 15.782-1.472 2.775 1.561 4.455 2.945 5.971 5.056.515.704.938 1.264.974 1.243.222-.3-1.164-4.045-1.902-5.252-1.535-2.422-6.142-5.367-10.315-6.456-.724-.193-1.365-.478-1.36-.634-.026-.158.716-.581 1.666-.973z"/></g><path d="M321.794 121.251c.206-.235.64-.905.964-1.489.685-1.236 1.515-2.214 2.079-2.449.218-.091.724-.166 1.124-.166.721 0 .728-.003.815-.397.158-.714.104-1.683-.105-1.892-.256-.256-1.545-.435-1.772-.247-.531.441-1.851 2.864-2.9 5.325l-.637 1.685c.031.031.226-.135.432-.37z" fill-rule="evenodd" paint-order="normal"/></g></svg>