<?xml version="1.0" standalone="no"?>
<!DOCTYPE svg PUBLIC "-//W3C//DTD SVG 20010904//EN"
 "http://www.w3.org/TR/2001/REC-SVG-20010904/DTD/svg10.dtd">
<svg version="1.0" xmlns="http://www.w3.org/2000/svg"
 width="22.000000pt" height="15.000000pt" viewBox="0 0 22.000000 15.000000"
 preserveAspectRatio="xMidYMid meet">

<g transform="translate(0.000000,15.000000) scale(0.100000,-0.100000)"
fill="#000000" stroke="none">
<path d="M0 75 l0 -75 110 0 110 0 0 75 0 75 -110 0 -110 0 0 -75z m77 27
c-10 -10 -17 -22 -17 -27 0 -5 7 -17 17 -27 13 -15 14 -18 2 -18 -21 0 -39 21
-39 45 0 24 18 45 39 45 12 0 11 -3 -2 -18z m63 -27 c0 -8 -4 -15 -9 -15 -13
0 -22 16 -14 24 11 11 23 6 23 -9z"/>
</g>
</svg>
