<?xml version="1.0" encoding="UTF-8"?>
<!DOCTYPE svg PUBLIC "-//W3C//DTD SVG 1.1//EN" "http://www.w3.org/Graphics/SVG/1.1/DTD/svg11.dtd">
<!-- Creator: CorelDRAW -->
<svg xmlns="http://www.w3.org/2000/svg" xml:space="preserve" width="280.67mm" height="283.21mm" style="shape-rendering:geometricPrecision; text-rendering:geometricPrecision; image-rendering:optimizeQuality; fill-rule:evenodd; clip-rule:evenodd"
viewBox="0 0 280.67 283.21"
 xmlns:xlink="http://www.w3.org/1999/xlink">
 <defs>
  <style type="text/css">
   <![CDATA[
    .fil1 {fill:#DA251D}
    .fil0 {fill:#F8C300}
    .fil5 {fill:#E7BA03}
    .fil2 {fill:#FFCC33}
    .fil3 {fill:black}
    .fil4 {fill:white}
   ]]>
  </style>
 </defs>
 <g id="Layer_x0020_1">
  <metadata id="CorelCorpID_0Corel-Layer"/>
  <g id="_39316944">
   <path id="_39429456" class="fil0" d="M235.633 84.7215c-2.7804,-4.4558 -5.3247,-8.8017 -9.2331,-12.804 -0.0224,-0.0488 -4.6902,-4.4871 -5.415,-5.3211 0.3731,-0.705 1.6952,-2.2717 1.6952,-2.8253l0 -2.2601c0,-1.0473 -2.507,-3.6729 -4.5204,-3.6729l-1.1302 0c-1.4615,0 -1.7115,2.5427 -3.1077,2.5427l-0.2826 0c-0.4488,0 -15.0337,-8.2572 -16.7695,-9.2228 -2.7712,-1.5413 -5.5847,-3.0929 -8.3199,-4.6764 -2.1045,-1.2184 -6.4169,-3.4983 -8.6133,-4.3829 -3.3149,-1.3351 -5.7642,-2.4026 -9.3261,-3.6701 -7.6847,-2.7688 -14.3017,-3.1738 -21.1055,-4.887 -2.0802,-0.5238 -9.8877,-0.9594 -9.8877,-2.826 0,-4.2708 8.4758,-5.6221 8.4758,-7.0632 0,-1.6823 -1.1775,-4.643 -2.2602,-5.368 -3.2677,0 -7.1977,-0.615 -8.7584,-2.2603 0.6954,-1.3141 2.5428,-5.0335 2.5428,-6.7806 0,-1.5689 -1.9836,-4.6579 -3.1962,-5.2797 -2.3963,-1.2286 -3.1067,-1.7835 -6.6923,-1.7835 -2.0844,0 -5.368,2.7911 -5.368,5.6505 0,1.0446 0.1815,2.415 0.5651,2.5428l0.8476 0.2825c1.6524,-0.8743 1.8194,-3.3903 3.1077,-3.3903l0.8476 0c2.5022,0 -1.2432,5.5439 -1.5823,6.0458 -2.3442,3.4686 -5.2406,7.3276 -9.1054,9.2589 -2.13,1.0644 -2.915,3.7133 -1.4609,5.8848 1.4025,0 3.6729,1.1528 3.6729,2.8253l0 0.2825c0,1.0333 -3.1903,1.9279 -4.0197,2.196 -11.2852,3.6482 -26.0434,10.9226 -35.9905,17.6895 -3.5023,1.7483 -24.4313,17.3202 -25.2536,17.6906l-0.565 0c-1.2926,0 -2.6269,-1.6952 -4.803,-1.6952 -0.0611,0 -2.6954,0.9164 -2.8926,1.0628 -0.6787,0.5037 -1.3453,1.2356 -1.3453,2.3275l0 1.4127c0,0.9215 1.2529,1.7673 1.9777,1.9777 0.9525,0.2765 2.3507,-0.0769 2.9718,0.149 0.6212,0.2259 0.2503,0.6257 0.1361,0.981 -2.4927,4.7109 -5.994,9.2259 -8.628,13.9742 -2.4921,4.4924 -5.509,10.0004 -7.2002,15.1518 -3.6396,8.6463 -5.337,17.79 -6.6717,27.4818 -0.7476,3.2574 -0.5746,7.2451 -1.2324,10.0686l-3.3212 -1.286c-3.2152,-1.2451 -1.3758,-6.6248 -5.7197,-6.6248 -4.184,0 -3.8767,5.0471 -5.0518,8.2269 -1.1616,3.1428 -1.3902,4.6127 -4.2716,5.617 -1.3572,0.4731 -3.1078,-0.8309 -3.1078,-2.5427l0 -1.1302c-0.6336,-0.1476 -0.6495,-0.2825 -1.4126,-0.2825l-0.2826 0c-2.9402,0 -3.9553,4.6802 -3.9553,7.9107 0,1.3014 2.9438,5.1301 5.0821,5.1104 2.9841,-0.0276 6.585,-1.7201 8.4792,-1.7201l0.2825 0c1.131,0 1.4041,0.5824 2.5427,0.8476 -0.0484,2.1764 -1.6951,1.1903 -1.6951,3.6729l0 2.5427c0,1.4224 2.3946,3.6729 3.3903,3.6729l1.9777 0c0.8736,0 3.1078,-1.0476 3.1078,-1.9777l0 -1.9777c0,-1.5996 -1.4127,-2.1329 -1.4127,-3.1078 0,-0.9326 3.1642,-2.8253 3.6729,-2.8253l0.8476 0c3.4057,-0.9864 9.5195,27.5 13.5146,35.6451 4.5153,11.2351 12.1626,19.2966 19.4993,28.4885 -1.8753,0.4369 -3.3486,2.3715 -3.3486,4.5205l0 0.2825c0,2.8681 1.5401,3.6103 4.1736,4.0257 4.4562,0.7026 3.4571,-2.3305 5.1498,-2.3305l0.2825 0c1.1055,0 4.2606,2.7379 5.6078,3.433 3.8657,1.9947 7.6235,3.9478 11.399,6.1177 1.4628,0.8407 4.3305,2.1413 5.9609,2.7975 3.83,1.5416 7.9729,4.1824 11.826,5.6907 1.5944,0.624 4.4493,1.9688 5.9493,2.809 6.892,3.8603 20.7269,6.8397 28.1935,6.8397 0.3415,0.5099 0.5651,0.4966 0.5651,1.1301 0,1.1923 -1.862,3.1078 -3.3903,3.1078l-0.2825 0c-2.3755,0 -3.7345,-0.8476 -5.9331,-0.8476 -1.1672,0 -3.3903,1.4229 -3.3903,3.1078l0 3.3904c0,1.1076 2.238,2.5351 3.1645,2.7685 0.9721,0.245 1.455,0.2081 2.469,0.3562 3.0469,0.4449 3.8095,1.2766 4.358,4.1178 0.4741,2.4556 1.9926,10.2741 4.9824,10.2741l2.8253 0c1.2601,0 3.0759,-1.6785 3.1078,-3.1078l-1.1301 0c-0.5535,0 -2.3645,-1.0441 -2.8253,-1.6952 -2.1851,-3.0877 0.6818,-5.7166 2.9529,-8.7625 2.3946,-3.2116 1.6304,-2.4513 5.5229,-1.4084l0.565 0c2.261,0 4.2379,-2.3287 4.2379,-5.0855 0,-1.9442 -1.3969,-4.803 -3.3903,-4.803l-1.6951 0c-1.2367,0 -1.6979,0.8476 -3.1078,0.8476 -0.4781,0 -3.104,-2.9928 -3.104,-3.7297 5.9236,-1.0593 19.679,-4.4218 22.4313,-5.1957 5.1039,-1.4352 10.1588,-4.1126 15.1706,-6.0188 1.9398,-0.7378 2.9288,-1.3898 4.7371,-2.0435 2.7642,-0.9993 6.7896,-3.2368 9.4206,-4.7058 0.8715,-0.4866 1.529,-0.7278 2.374,-1.2989 5.9959,-4.0517 12.6638,-8.897 19.081,-12.2378 1.3527,-0.7042 2.9736,-2.2904 4.4765,-2.3459 1.1554,-0.0425 1.7482,1.4127 3.3903,1.4127l2.2602 0c1.6417,0 3.3903,-2.6349 3.3903,-3.9554 0,-1.0694 -2.5427,-1.9101 -2.5427,-3.3903 0,-0.992 5.982,-8.5574 6.9581,-9.9936 8.8502,-13.0203 12.2233,-28.6808 16.3251,-43.5705 0.6445,-2.3394 0.946,-4.8136 1.5791,-7.1792 0.405,-1.5127 1.0913,-5.8803 1.1301,-7.6282 2.8829,-0.1058 6.7615,-0.2247 5.3681,3.9553 -0.2826,0.8476 1.5989,1.4543 2.8252,1.4127 1.491,0 2.4977,-0.784 3.1078,-1.6951l0.1763 -3.056c0.2247,-3.8946 4.8191,-2.8772 6.8869,-2.8772l3.6728 0 3.1028 -0.3225c2.5452,-0.2645 3.3484,-2.1734 3.1128,-6.1755 -0.1042,-1.7708 -3.0219,-3.9554 -5.368,-3.9554l-0.565 0c-0.5454,0 -0.503,0.0889 -0.8476,0.2825 0.3969,1.4867 1.4126,1.5577 1.4126,3.6729 0,1.0152 -1.1863,1.9316 -1.9776,1.6951 -3.5501,-1.0609 -3.8639,-1.7448 -6.4279,-4.3081 -1.3657,-1.3653 -8.2228,-8.4428 -2.8955,-8.9706 0.6287,-0.0623 1.0707,-1.0761 0.8807,-1.6787 -0.4611,-1.4625 -2.5552,-3.4069 -4.5536,-3.4069l-0.565 0c-1.8537,0 -4.5205,1.7177 -4.5205,3.1079l0 1.4126c0,0.6676 2.1309,2.5184 0.2578,3.6458 -0.8846,0.5325 -2.7043,1.7512 -3.3656,1.4397 -1.6248,-0.6558 -2.7399,-11.0809 -3.0838,-13.7645 -1.3622,-10.6278 -6.9345,-22.3097 -12.781,-31.679z"/>
   <path id="_38911584" class="fil1" d="M72.709 221.847c-31.94,-32.0213 -43.8,-64.6561 -32.0298,-107.593 1.9174,-6.9946 6.9781,-14.8911 10.764,-21.7512 4.0829,-7.3984 7.3444,-14.2944 14.1906,-19.6605 4.7897,-3.7542 10.3125,-8.9662 15.7688,-11.6364 -11.8765,12.2773 -20.6265,22.9554 -27.6862,38.1426 -1.525,2.8284 -2.8701,5.9476 -4.0637,8.9325 -1.4149,3.5381 -2.386,6.2716 -3.397,9.8818 -2.1134,7.5482 -2.7084,14.3812 -3.277,22.1506 0.0005,4.4385 0.4555,8.6633 1.3183,12.9979 1.3414,6.7383 3.5907,14.8685 6.4237,21.1018 9.8936,21.7679 22.7185,42.2995 38.8752,59.9817l-4.0462 -2.1469c-6.2298,-3.8378 -10.1335,-7.6866 -12.8407,-10.4005zm-20.1241 -52.1512c-9.6245,-25.6431 -7.3628,-54.9925 8.0843,-77.8038 0.5107,-0.7541 0.5443,-0.9284 1.1213,-1.7039 0.1672,-0.2247 1.1668,-1.6586 1.2478,-1.5775 -10.3788,28.056 -13.4658,49.1459 -6.3927,79.2847 1.8898,10.5884 5.6451,16.5062 7.8054,24.6852 -2.3319,-1.5615 -10.6976,-18.9004 -11.8661,-22.8847zm12.0801 16.4552c-10.0302,-32.9339 -13.2475,-63.0983 0.3442,-95.287 0.8741,-2.07 2.9025,-6.2509 4.0616,-8.3696 4.1739,-7.6299 9.8245,-15.1349 15.6542,-21.6394 5.2077,-5.8103 10.6748,-9.827 17.6419,-13.1535 10.3924,-4.9619 20.0107,-12.3888 30.727,-12.1955 5.2196,0.0941 6.9866,0.1682 11.4817,0.9501 19.9895,3.4774 34.3216,10.6621 46.9351,27.3695 7.9381,10.5151 12.2385,20.987 16.8341,32.8907 6.1197,15.8516 8.6402,30.0154 10.2655,44.6081 2.2258,19.983 -3.8459,46.1327 -12.4831,63.5349 -5.2927,10.6642 -14.7504,24.614 -24.4755,32.0299 -4.108,3.1325 -11.4776,6.3624 -16.2268,8.0705 -19.6511,7.068 -37.6708,9.0675 -56.7417,-0.2697 -4.2198,-2.0662 -9.6286,-4.4025 -13.2342,-7.3904 -2.4269,-2.011 -7.4684,-8.1967 -9.3622,-10.9796 -5.7661,-8.4736 -9.9325,-17.0788 -15.1874,-25.7791 -2.2224,-3.6795 -4.8576,-9.8568 -6.2344,-14.3899zm146.983 -91.3248c-4.4278,-11.3955 -10.3766,-22.4829 -17.8544,-32.1553 0.8566,0.1613 4.5408,4.327 4.4596,4.4081 2.3111,2.0863 8.9063,12.3498 11.0837,15.0844 1.2944,1.6255 4.2336,5.977 5.2618,7.7344 9.3542,15.9881 13.0584,28.728 15.3725,48.4036l-0.0106 13.8775c-1.5296,14.9524 -3.1019,21.5335 -8.2296,33.533 -3.2212,4.9109 -7.8784,15.9012 -18.2139,28.5904 6.3241,-10.4894 10.8181,-19.6031 13.767,-29.9296 7.4764,-31.9776 4.765,-58.4592 -2.2338,-79.3774l-3.4023 -10.1691zm-21.5533 -39.5683c-0.1608,-0.09 -0.322,-0.1793 -0.4838,-0.268 0.143,0.0596 0.3055,0.1506 0.4838,0.268zm27.6526 34.3166c-0.9924,-1.4454 -1.6725,-2.6689 -2.5611,-4.2196 -0.2279,-0.3975 -5.877,-8.234 -5.9197,-8.2901 -3.7698,-4.9383 -8.5882,-11.1099 -12.5903,-15.2964 -1.114,-1.1655 -4.7143,-5.2816 -6.5815,-6.5105 17.3428,9.7079 28.5039,26.9182 38.6739,43.3547 1.7398,2.8118 3.6012,6.2326 4.8294,9.2969 2.9312,7.314 5.3915,14.6047 7.5408,22.1245 4.9354,17.2695 -1.9361,38.1966 -7.9327,54.3175 -5.5184,11.0085 -10.9172,18.7669 -18.5252,27.931 -3.3908,4.0845 -7.6515,7.473 -11.5837,11.0185 -3.6893,3.3268 -9.9303,7.3293 -14.1632,9.6258 9.9648,-8.8846 10.126,-10.2603 13.8854,-14.7066 8.6889,-10.2761 15.4595,-20.2109 21.7178,-32.2448 9.4376,-16.1864 9.8291,-38.682 7.4527,-56.9634 -0.6107,-3.2559 -1.4132,-6.3909 -1.9223,-9.6591 -0.8585,-5.5096 -2.6294,-10.7546 -5.1856,-15.7236 -2.3045,-4.4807 -4.2918,-9.9136 -7.1347,-14.0548zm7.1858 -2.6654c-2.2345,-3.2681 -4.3905,-6.9971 -6.9977,-9.9539 -4.847,-5.4967 -10.332,-13.5666 -16.0108,-17.8924 -6.5028,-4.9536 -13.7117,-9.1375 -20.9271,-12.9761 -2.0649,-1.0985 -3.2261,-2.0226 -5.4729,-3.003 -1.1022,-0.4809 -5.1899,-2.0057 -5.9731,-2.5027 3.9534,-0.1496 12.535,4.3511 16.3507,6.3994 6.8629,3.684 19.3738,12.9244 29.1361,16.7678 0.7321,0 1.3961,-0.1506 1.5363,-1.2681l0.2301 -1.8328c0.4387,-0.3483 0.4254,-0.5719 1.0589,-0.5719l0.2825 0c0.6868,0 2.2602,1.5734 2.2602,2.2602l0 0.2826c0,1.2531 -1.516,0.8475 -2.8252,0.8475 -1.0509,0.7037 -1.4127,0.7116 -1.4127,2.5428 0,0.4523 6.0057,5.3597 6.8037,6.1925 6.9936,7.2994 10.6281,14.5302 15.2013,23.5049 4.6746,9.1741 7.4342,19.7387 9.1427,29.846 0.2482,1.4683 1.0263,4.0528 1.0714,5.4268 0.078,2.3768 -0.1692,3.9663 2.2492,3.9663 1.1945,0 1.7483,-2.2221 3.8472,-3.4984 0.6653,-0.4045 3.781,-2.593 3.781,-3.2822 0,-2.3323 -1.4127,-2.8622 -1.4127,-3.6729 0,-0.9154 1.2278,-1.6951 2.2603,-1.6951l0.2825 0c0.7979,0 1.09,0.6483 1.4127,1.1301 -1.235,0.9806 -1.9777,1.3909 -1.9777,3.1077l0 0.5651c0,1.8512 4.1398,6.4164 5.5755,7.7032 1.5186,1.361 5.5493,5.5756 7.7032,5.5756l1.1301 0c2.5762,0 2.8181,-2.6994 4.2379,-3.6501l0 2.52c0,6.7123 -16.154,-3.0596 -15.7886,8.6365 0.0782,2.5042 -2.5756,0.6317 -2.5756,-0.1608 0,-0.4784 0.5084,-1.2718 0.2736,-1.5999 -2.2362,-3.1231 -1.3522,-1.0846 -4.0462,-2.2556 -2.0181,-0.6584 -2.5196,-2.36 -4.4207,-2.36 -0.9215,0 -1.5577,1.3505 -1.9777,1.9777 -3.1752,21.6518 -9.1075,46.0884 -22.1204,64.0502 -0.6306,0.8705 -5.2847,6.3483 -5.2847,6.5815l0 0.8476c0,1.3254 2.5427,1.9518 2.5427,3.3903 0,0.3439 -0.5844,0.8476 -1.13,0.8476l-0.8477 0c-0.2252,-0.6224 -2.1082,-1.6952 -2.8252,-1.6952l-0.2825 0c-1.1684,0 -12.05,6.9676 -14.3606,8.5241 -3.9355,2.6512 -8.2119,5.7635 -12.4688,7.5906 -0.4075,0.1748 -2.0076,0.8232 -2.318,0.6014 3.21,-2.184 6.7567,-4.4399 9.8885,-6.5921 4.0176,-2.7609 7.9741,-5.7349 11.5163,-9.2751 4.6037,-4.6012 8.5324,-9.4501 12.9244,-14.2774 12.8064,-14.0767 21.3093,-43.5571 21.7888,-62.1865 -0.8743,-5.7255 -1.0793,-10.3155 -2.6606,-15.9364 -2.7012,-10.7459 -7.2437,-20.905 -12.5261,-30.6115 -1.9913,-3.6588 -3.5831,-5.629 -5.8445,-8.9359zm10.6863 -2.2105c-2.7804,-4.4558 -5.3247,-8.8017 -9.233,-12.8041 -0.0224,-0.0488 -4.6902,-4.4871 -5.415,-5.321 0.3731,-0.705 1.6951,-2.2718 1.6951,-2.8253l0 -2.2602c0,-1.0473 -2.5069,-3.6728 -4.5204,-3.6728l-1.1301 0c-1.4616,0 -1.7116,2.5427 -3.1078,2.5427l-0.2825 0c-0.4488,0 -15.0337,-8.2572 -16.7696,-9.2228 -2.7711,-1.5414 -5.5847,-3.0929 -8.3199,-4.6764 -2.1045,-1.2184 -6.4168,-3.4983 -8.6133,-4.383 -3.3149,-1.3351 -5.7642,-2.4025 -9.3261,-3.6701 -7.6847,-2.7687 -14.3016,-3.1737 -21.1055,-4.8869 -2.0802,-0.5239 -9.8877,-0.9595 -9.8877,-2.8261 0,-4.2707 8.4759,-5.622 8.4759,-7.0631 0,-1.6824 -1.1775,-4.643 -2.2603,-5.368 -3.2677,0 -7.1977,-0.615 -8.7583,-2.2603 0.6953,-1.3141 2.5427,-5.0335 2.5427,-6.7806 0,-1.569 -1.9836,-4.658 -3.1961,-5.2797 -2.3963,-1.2287 -3.1068,-1.7835 -6.6923,-1.7835 -2.0844,0 -5.368,2.7911 -5.368,5.6505 0,1.0446 0.1815,2.415 0.5651,2.5428l0.8475 0.2825c1.6525,-0.8744 1.8194,-3.3903 3.1078,-3.3903l0.8476 0c2.5021,0 -1.2433,5.5439 -1.5824,6.0458 -2.3441,3.4686 -5.2406,7.3276 -9.1054,9.2588 -2.1299,1.0645 -2.915,3.7134 -1.4609,5.8849 1.4026,0 3.6729,1.1528 3.6729,2.8253l0 0.2825c0,1.0333 -3.1903,1.9278 -4.0196,2.196 -11.2853,3.6481 -26.0435,10.9225 -35.9906,17.6895 -3.5022,1.7483 -24.4313,17.3202 -25.2535,17.6905l-0.5651 0c-1.2925,0 -2.6268,-1.6951 -4.803,-1.6951 -0.061,0 -2.6954,0.9164 -2.8926,1.0628 -0.6786,0.5037 -1.3452,1.2356 -1.3452,2.3275l0 1.4127c0,0.9215 1.2528,1.7673 1.9777,1.9777 0.9524,0.2765 2.3506,-0.0769 2.9717,0.149 0.6212,0.2259 0.2503,0.6257 0.1361,0.981 -2.4927,4.7109 -5.994,9.2258 -8.628,13.9742 -2.4921,4.4924 -5.509,10.0004 -7.2001,15.1518 -3.6397,8.6463 -5.3371,17.79 -6.6717,27.4818 -0.7476,3.2574 -1.0477,10.1401 -1.2325,10.0686 -1.107,-0.4286 -3.5172,-1.1961 -4.072,-2.2455 -1.6116,-3.048 -0.625,-5.6653 -4.9689,-5.6653 -4.1839,0 -3.8767,5.0471 -5.0518,8.2269 -1.1616,3.1428 -1.3902,4.6127 -4.2715,5.617 -1.3573,0.473 -3.1079,-0.8309 -3.1079,-2.5428l0 -1.1301c0,-0.6506 -0.8764,-0.3289 -1.4126,-0.2825l-0.2825 0c-2.9403,0 -3.9553,4.6802 -3.9553,7.9107 0,1.3013 2.9437,5.1301 5.0821,5.1103 2.984,-0.0276 6.585,-1.72 8.4792,-1.72l0.2824 0c1.1311,0 1.4042,0.5824 2.5428,0.8476 -0.0485,2.1764 -1.6952,1.1903 -1.6952,3.6729l0 2.5427c0,1.4223 2.3946,3.6728 3.3903,3.6728l1.9777 0c0.8737,0 3.1079,-1.0475 3.1079,-1.9776l0 -1.9777c0,-1.5996 -1.4127,-2.133 -1.4127,-3.1078 0,-0.9326 3.1641,-2.8253 3.6728,-2.8253l0.8476 0c2.4974,-0.9865 8.4233,27.4999 13.5147,35.6451 4.5153,11.235 12.1625,19.2966 19.4993,28.4885 -1.8753,0.4369 -3.3486,2.3715 -3.3486,4.5204l0 0.2826c0,2.8681 1.54,3.6103 4.1736,4.0256 4.4561,0.7027 3.4571,-2.3305 5.1497,-2.3305l0.2826 0c1.1055,0 4.2606,2.738 5.6077,3.4331 3.8658,1.9947 7.6236,3.9477 11.399,6.1177 1.4628,0.8407 4.3306,2.1413 5.9609,2.7975 3.83,1.5416 7.973,4.1824 11.826,5.6906 1.5944,0.6241 4.4493,1.9689 5.9493,2.8091 6.892,3.8603 20.727,6.8397 28.1936,6.8397 0.3415,0.5099 0.5651,0.4966 0.5651,1.13 0,1.1924 -1.862,3.1079 -3.3903,3.1079l-0.2826 0c-2.3755,0 -3.7345,-0.8476 -5.933,-0.8476 -1.1673,0 -3.3904,1.4229 -3.3904,3.1077l0 3.3904c0,1.1077 2.2381,2.5351 3.1645,2.7686 0.9721,0.2449 1.4551,0.2081 2.4691,0.3562 3.0469,0.4449 3.8095,1.2766 4.358,4.1178 0.4741,2.4555 1.9925,10.2741 4.9824,10.2741l2.8252 0c1.2601,0 3.0759,-1.6786 3.1078,-3.1079l-1.1301 0c-0.5534,0 -2.3645,-1.0441 -2.8253,-1.6951 -2.185,-3.0877 0.6819,-5.7166 2.953,-8.7625 2.3946,-3.2116 1.6304,-2.4513 5.5229,-1.4084l0.565 0c2.2609,0 4.2379,-2.3287 4.2379,-5.0856 0,-1.9441 -1.3969,-4.8029 -3.3903,-4.8029l-1.6952 0c-1.2367,0 -1.6979,0.8476 -3.1077,0.8476 -0.4781,0 -3.1041,-2.9928 -3.1041,-3.7298 5.9236,-1.0592 19.679,-4.4217 22.4313,-5.1956 5.1039,-1.4353 10.1589,-4.1126 15.1707,-6.0189 1.9397,-0.7377 2.9287,-1.3898 4.7371,-2.0435 2.7641,-0.9992 6.7895,-3.2367 9.4206,-4.7057 0.8715,-0.4867 1.5289,-0.7279 2.3739,-1.2989 5.9959,-4.0517 12.6639,-8.8971 19.081,-12.2378 1.3528,-0.7042 2.9736,-2.2905 4.4765,-2.3459 1.1554,-0.0426 1.7483,1.4127 3.3903,1.4127l2.2602 0c1.6417,0 3.3903,-2.635 3.3903,-3.9554 0,-1.0694 -2.5427,-1.9102 -2.5427,-3.3903 0,-0.9921 5.982,-8.5574 6.9582,-9.9936 8.8501,-13.0204 12.2232,-28.6808 16.3251,-43.5705 0.6444,-2.3394 0.9459,-4.8137 1.5791,-7.1792 0.4049,-1.5128 1.0912,-5.8803 1.1301,-7.6282 2.8828,-0.1058 6.7615,-0.2247 5.368,3.9553 -0.2826,0.8476 1.5989,1.4543 2.8253,1.4127 1.491,0 2.4976,-0.7841 3.1077,-1.6952l0.1764 -3.0559c0.2246,-3.8946 4.819,-2.8772 6.8868,-2.8772l3.6729 0 3.1028 -0.3225c2.5451,-0.2646 3.3483,-2.1734 3.1128,-6.1756 -0.1042,-1.7707 -3.0219,-3.9554 -5.3681,-3.9554l-0.565 0c-0.5454,0 -0.5029,0.089 -0.8476,0.2826 0.397,1.4866 1.4126,1.5576 1.4126,3.6728 0,1.0152 -1.1862,1.9317 -1.9776,1.6952 -3.5501,-1.061 -3.8639,-1.7448 -6.4279,-4.3081 -1.3656,-1.3653 -8.2227,-8.4428 -2.8955,-8.9707 0.6287,-0.0623 1.0707,-1.076 0.8807,-1.6786 -0.461,-1.4625 -2.5552,-3.4069 -4.5536,-3.4069l-0.565 0c-1.8536,0 -4.5204,1.7177 -4.5204,3.1078l0 1.4126c0,0.6676 2.1309,2.5185 0.2577,3.6459 -0.8846,0.5325 -2.7042,1.7512 -3.3656,1.4397 -1.6248,-0.6559 -2.7398,-11.0809 -3.0838,-13.7645 -1.3622,-10.6278 -6.9344,-22.3097 -12.781,-31.679zm-100.77 174.67l3.6244 -4.3495c1.9877,0.0443 1.4157,2.5517 2.636,3.9579 2.1586,2.487 4.6302,-0.0868 8.1,-0.0025 2.3518,0.0571 1.3004,5.9331 -1.4127,5.9331 -0.9546,0 -1.9765,-0.7299 -3.3789,-0.8279 -2.3893,2.5531 -6.4101,6.4026 -7.3098,9.6396 -0.9699,3.4898 2.0327,4.7119 2.4954,6.4447 -4.45,-0.0991 -4.5257,-6.8482 -5.3007,-10.8032 -1.0292,-5.2515 -9.6732,-3.163 -9.6732,-6.7134l0 -0.8477c0,-0.6836 1.294,-1.9776 1.9777,-1.9776l1.1301 0c1.8055,0 2.1499,0.565 3.9554,0.565l0.2825 0c1.2153,0 2.2092,-0.2208 2.8738,-1.0185zm-76.3307 -34.2973c0,-1.1137 0.8083,-2.5427 2.2601,-2.5427l0.8476 0c0.8675,0 1.6952,0.2615 1.6952,1.13l0 1.1301c0,0.8781 -1.6629,2.2603 -2.8253,2.2603 -1.3189,0 -1.9776,-0.6588 -1.9776,-1.9777z"/>
   <path id="_38864040" class="fil2" d="M195.33 64.2834l0.2274 -0.2297c0.0811,-0.0811 -0.8937,-1.1986 -1.7503,-1.3598l1.5229 1.5895z"/>
   <path id="_38879480" class="fil2" d="M157.982 37.7787l0 -0.5651c-2.0061,0 -1.3358,-0.5255 -3.1079,-0.565 0.7619,0.6622 1.7108,1.099 3.1079,1.1301z"/>
   <path id="_38895584" class="fil2" d="M143.008 34.3883l2.2601 0.2826c-0.3309,-0.4762 -0.0405,-0.565 -0.8475,-0.565l-1.4126 0 0 0.2824z"/>
   <path id="_38886624" class="fil3" d="M128.599 23.3698c0,-1.3666 0.8935,-2.2602 2.2602,-2.2602l0.5651 0c2.0315,0 3.6727,0.5279 3.6727,2.5428 0,2.4214 -0.2958,4.9197 -1.862,4.6968l-2.9409 -0.4186c-0.5049,-0.0718 -1.6951,-2.9988 -1.6951,-3.1482l0 -1.4126zm3.1077 -5.0854c-1.1916,0 -3.9205,1.9807 -4.3962,2.9494 -1.592,3.2414 -1.2543,1.3576 -1.2543,5.2438 0.6792,1.0142 1.1084,1.9129 2.2087,2.5942 0.229,0.1418 3.0815,1.3612 3.1594,1.3612l1.9776 0c1.6906,0 4.803,-4.3179 4.803,-6.2156l0 -0.2825c0,-3.056 -3.2231,-5.6505 -6.2156,-5.6505l-0.2826 0z"/>
   <path id="_38885472" class="fil4" d="M143.008 34.3883l2.2601 0.2826c-0.3309,-0.4762 -0.0405,-0.565 -0.8475,-0.565l-1.4126 0 0 0.2824z"/>
   <path id="_38883928" class="fil4" d="M157.982 37.7787l0 -0.5651c-2.0061,0 -1.3358,-0.5255 -3.1079,-0.565 0.7619,0.6622 1.7108,1.099 3.1079,1.1301z"/>
   <path id="_38882904" class="fil4" d="M195.33 64.2834l0.2274 -0.2297c0.0811,-0.0811 -0.8937,-1.1986 -1.7503,-1.3598l1.5229 1.5895z"/>
   <path id="_38877632" class="fil3" d="M100.575 95.8529c-1.8,1.3867 -4.7972,1.745 -7.002,1.2705 -2.4216,-0.5211 -3.1279,-1.4302 -4.8103,-2.5568 -0.2581,0.1728 -0.8476,0.4599 -0.8476,0.8476 0,0.7736 0.5651,0.9215 0.5651,1.6952 0,0.4666 -0.8116,0.9167 -1.1302,1.1301 -1.7322,0 -2.7538,-0.478 -3.0908,0.7901l2.0407 1.0177c0.3146,0.4432 1.0047,0.5527 1.3192,0.9959 0.7105,1.0011 1.8988,-1.8433 3.1212,-1.9561 5.9937,-0.5534 8.0176,-0.3483 11.4822,-3.2509 1.6778,-1.4057 3.6062,-5.2294 4.1861,-6.5221 2.1459,-1.2738 3.9499,1.2367 4.9576,1.8608 6.3702,3.9453 7.7238,-1.4113 10.7346,-1.4113l0.5651 0c1.606,0 2.5428,3.1848 2.5428,4.5205l0 0.8475c0,3.0858 -2.5334,5.2254 -3.6729,6.7807 0.3625,0.1918 2.38,1.4126 2.5427,1.4126 2.9903,0 3.6384,-8.2223 3.1078,-11.0185 -0.1388,-0.7315 -2.2602,-2.218 -2.2602,-3.1078 0,-0.6664 0.5542,-1.2571 0.8476,-1.6951 7.3959,-0.9623 13.2539,-7.2038 18.4587,-11.7541 4.2721,-3.7349 10.1188,-6.2353 11.7717,-1.2422 0,1.7382 -4.4293,7.6319 -5.3511,9.0578 -1.0717,1.6576 -1.5878,8.9556 -1.6477,11.6216 -0.0424,1.8893 -4.8674,3.6399 -4.8674,5.5956 0,0.5232 3.8283,2.2052 4.5667,2.1639 0.7707,-0.0432 2.2651,-1.1063 3.3441,-1.3163 2.279,0.3417 2.0341,-1.948 1.6951,-3.3903 -0.1138,-0.4841 -2.2602,-2.8558 -2.2602,-3.3904 0,-2.6111 8.1879,-12.9962 10.171,-12.9962l0.2825 0c0.9856,0 7.4497,5.4795 8.5473,6.4266 1.3488,1.1636 3.2955,1.6624 4.8404,2.7878 2.1296,1.5513 2.1996,2.1256 3.2814,4.3469 0.3369,0.6919 -0.184,1.9777 0.5651,1.9777 0.4084,0 1.5653,0.2168 1.9193,-0.2714 0.9048,-1.2478 0.7132,-4.107 0.0584,-4.8141 -1.3467,-1.4542 -3.2633,-1.9143 -4.0551,-3.5731 -1.7763,-3.7213 -3.6407,-7.6392 -4.8102,-11.5765 -1.0142,-3.4145 -1.2139,-3.0712 -0.0238,-6.4622 0.657,-1.8723 1.6235,-2.9676 2.3909,-5.5108 -1.0803,0.7915 -2.3854,4.4059 -5.0819,4.1807l-9.6095 -0.5078c-4.7352,0 -9.1537,0.8107 -13.8349,1.4214 -4.6684,0.6091 -10.0099,1.6863 -14.7002,1.6863l-6.2156 0c-5.7658,0.0835 -5.0567,-3.6007 -8.0765,-4.6372 -0.8307,-0.2852 -1.5295,-0.3099 -1.5295,-1.2958l0 -1.1301c0,-0.809 2.1131,-5.3492 0.8476,-5.6506 -0.322,-0.0766 -3.6547,3.4202 -6.7331,3.0533 -3.3448,-0.3986 -5.4271,0.9531 -5.8905,1.2747 -1.8154,1.2596 -2.0154,5.5732 -4.5777,6.1584 -3.4289,0.783 -4.2689,3.4547 -2.2191,2.8948 0.718,-0.1961 2.4825,-1.515 3.0339,-1.515l0.2825 0c3.7025,0 4.8412,2.911 3.0439,5.0215 -1.1474,1.3474 -4.174,3.9725 -4.174,5.997 0,1.1109 6.498,2.8242 6.498,4.803l0 1.1301c0,2.734 -3.0597,6.1826 -5.1392,7.7844zm62.8356 -38.1979c-1.2815,-0.773 -27.7511,2.7114 -34.1902,3.5667 -1.0257,-0.3315 -2.9836,-2.0681 -3.077,-0.9945l-0.0872 1.0012c-0.0458,0.5272 1.6677,1.7653 2.4233,1.7653 1.3785,-0.1561 2.757,-0.3122 4.1355,-0.4683 0.4211,-0.0477 2.6789,0.173 5.2474,-0.3737 5.3074,-1.1297 8.1877,-1.1087 8.5239,-0.5034 0.321,0.5777 0.0794,2.208 1.5498,1.6699l15.4745 -5.6632zm-37.9195 0.1831c-0.878,0 -2.2601,1.6629 -2.2601,2.8253l0 0.565c0,3.8586 6.1571,3.1078 8.1933,3.1078 2.8425,0 3.7678,0.5947 6.6596,-0.4035 0.8442,-0.2913 5.7079,-1.0736 6.3783,-1.0736 1.384,0 0.3987,0.8476 1.4625,1.674 1.3692,1.0635 9.7115,-2.4794 11.3773,-3.1368 2.3592,-0.931 6.9265,-1.863 10.0031,-1.863 2.8769,0 4.1597,-0.1094 5.5321,2.899 1.3792,7.0021 -10.7612,3.9823 -14.3037,4.3362l-12.4179 1.2406c-7.1179,0.8607 -14.2531,1.9776 -21.472,1.9776 -1.125,0 -3.2962,-1.5718 -3.6398,-2.2932 -0.5345,-1.1222 -0.2504,-0.7775 -1.0393,-1.786 -0.4861,-0.6215 -1.5365,-1.2163 -1.5365,-1.5713 0,-1.9977 2.8237,-7.6282 -1.6952,-7.6282l-1.1301 0c-1.5296,0 -5.9219,2.6261 -7.0574,3.1511 -10.6525,-0.0652 -4.0401,1.5586 -9.6786,7.2355 -2.8811,2.9008 -5.7918,1.8709 -5.084,4.8017 0.2574,1.0663 0.441,3.4584 2.0432,3.4584 0.9204,0 4.1375,-3.3723 5.7206,-1.4126 1.7829,2.2071 -5.9654,4.1181 -5.3505,8.0836 0.6298,4.0629 6.693,3.8094 6.693,6.0428l0 0.2825c0,5.0265 -3.8748,6.2156 -7.9107,6.2156 -2.6201,0 -3.0115,-2.6471 -6.7807,-3.1078 -3.7395,-0.4571 -1.4468,2.3199 -2.885,3.8957 -0.4307,0.4719 -4.4607,1.7336 -4.4607,2.6024 0,2.3086 1.1638,3.1814 3.0104,3.7703 1.9925,0.6354 1.554,2.2624 4.3804,2.3765 2.6151,0.1056 1.1677,-2.2763 4.1833,-2.4834 5.3411,-0.3669 7.3789,-0.3184 11.2464,-4.0101 0.5293,-0.5053 4.1181,-4.4563 4.3021,-4.4563 1.375,0 4.4739,2.2603 7.6282,2.2603l1.4127 0c1.4544,0 3.8306,-1.9777 4.5204,-1.9777 0.651,0 0.8476,0.1966 0.8476,0.8476l0 0.565c0,5.1101 -5.9331,6.5648 -5.9331,7.9108 0,1.4809 2.4199,1.5526 3.9396,1.711 2.2341,0.2328 3.2324,2.2443 3.6886,2.2443 5.5734,0 6.5824,-13.2969 4.7446,-16.8159 8.1344,-2.5022 18.1646,-15.3953 21.813,-15.6746l1.6951 0c2.3181,0 -3.1201,7.2886 -3.7317,8.1344 -0.2457,0.3399 -1.8308,4.3913 -1.8953,4.8853 -0.2934,2.2438 -0.0236,3.8391 -0.0236,5.9095l0 0.5651c0,3.1116 -5.368,3.2609 -5.368,7.0632 0,1.5972 0.8012,2.2602 2.5428,2.2602 0.8643,0.5787 1.5745,1.0271 2.6061,1.3492 1.9707,0.6153 0.7199,0.7696 2.1968,1.7586 2.8934,-0.6741 0.6863,-1.2346 4.7941,-1.7041 1.3858,-0.1584 3.1167,-2.7483 3.1167,-3.6639l0 -1.4127c0,-1.4363 -2.2602,-4.2763 -2.2602,-4.8029 0,-0.9523 7.0707,-9.6059 7.6282,-9.6059 0.3885,0 4.892,3.7276 5.9908,4.4627 1.2138,0.8124 0.4024,0.6531 2.2063,1.4665 3.6103,1.6279 5.8049,2.1041 6.1163,7.4896 0.1393,2.4116 6.799,0.866 6.8143,0.1581l0.0618 -2.8409c-0.0939,-0.8298 1.0581,-2.8308 0.8476,-3.3903 -0.6665,-1.7715 -1.4192,-1.82 -3.0535,-2.8796 -4.4135,-2.8615 -5.4099,-10.7842 -7.412,-15.5119 -0.785,-1.8536 4.4582,-9.4072 4.2499,-12.4039 -0.173,-2.4882 -1.7327,-4.0065 -5.3545,-4.8164 -3.3215,-0.6349 -6.1294,-0.5516 -9.0543,-0.5516 -4.384,0 -15.0812,0.6625 -19.9506,1.5215 -3.1638,0.558 -6.7607,0.8568 -9.37,1.079 -0.8293,0.0706 -3.4046,0.7226 -4.6121,0.7793 -1.5164,0.0712 -2.6875,-1.6847 -3.926,-1.6847z"/>
   <path id="_38766120" class="fil3" d="M94.4131 119.429c0,-1.1798 2.345,-5.0856 3.3903,-5.0856 2.8019,0 3.4475,3.9378 3.6729,5.9332 0,1.6099 -1.8723,2.2601 -3.6729,2.2601 -1.0138,0 -3.3903,-0.8192 -3.3903,-1.9777l0 -1.13zm11.8661 -0.8476c0,-1.4699 2.5449,-3.4862 3.9554,-3.1078 2.9869,0.8013 2.5304,3.094 1.9777,5.0854 -0.5527,1.9915 -1.3174,1.6953 -2.8253,1.6953 -1.586,0 -3.1078,-1.8679 -3.1078,-3.3904l0 -0.2825zm-2.4684 0.4282c0.1902,2.9846 3.2706,5.782 6.1413,5.7874 2.9605,0 5.6505,-2.8013 5.6505,-5.6506l0 -0.565c0,-2.2673 -3.2442,-5.368 -5.6505,-5.368 -3.607,0 -5.4642,2.8899 -6.1413,5.7962zm-1.9512 -4.7574c-0.4829,-1.055 -3.3982,-2.734 -4.9038,-2.734l-0.565 0c-0.9542,0 -5.368,7.8817 -5.368,9.3234 0,2.9366 3.3461,4.803 6.4981,4.803l0.2825 0c8.6401,-0.2822 6.0538,-7.906 4.0562,-11.3924z"/>
   <path id="_38862560" class="fil3" d="M98.0348 130.355c1.0762,-1.0134 5.318,-2.6262 6.9057,-2.6262 0.2569,0.6363 2.8195,2.1319 3.5989,2.1541l3.6596 -0.0418c-1.9878,3.4652 -3.5238,5.6923 -8.18,5.6923 -2.9651,0 -5.095,-2.6725 -5.9842,-5.1784zm-1.644 -3.0149l-0.2826 0c-1.0631,0 -1.6951,0.2676 -1.6951,1.4126 0,3.4399 4.7558,9.0409 8.4758,9.0409l5.0855 0c0.6971,0 4.1372,-2.577 4.7371,-3.1736 1.0401,-1.0345 2.6086,-3.6972 2.6086,-5.5847 0,-1.3219 -1.3877,-2.5428 -2.8253,-2.5428 -2.3051,0 -3.1666,1.599 -5.5469,-0.3861 -0.5139,-0.4286 -0.9549,-1.8741 -2.0813,-1.8741 -0.6517,0 -2.8697,1.4738 -3.5002,1.8679 -1.7024,1.0641 -3.2012,1.2399 -4.9756,1.2399z"/>
   <path id="_38767088" class="fil3" d="M17.4472 148.495c-0.1203,-1.9502 2.171,-3.9308 3.4805,-3.9308l1.441 0.292c6.8976,2.3465 -3.721,13.562 -4.9215,3.6388zm-2.1416 0.8816c0,1.2185 2.9686,4.5204 5.0855,4.5204l1.9776 0c2.1517,0 3.9554,-2.7804 3.9554,-5.0854l0 -1.1302c0,-3.4267 -3.0935,-4.2951 -5.6455,-4.5604 -3.2965,-0.2785 -5.373,2.7281 -5.373,5.6906l0 0.565z"/>
   <path id="_38860392" class="fil3" d="M156.287 118.016l-0.5651 0c-1.2179,0 -1.5098,-0.7606 -2.9552,-0.6613 -1.9931,0.137 -2.1293,0.355 -3.3166,0.6051 -1.7913,0.3773 -5.3349,0.9761 -6.7922,1.14 -5.2053,0.5857 -10.1032,-0.5593 -10.1032,-5.6042 0,-2.9461 2.1974,-5.6505 5.368,-5.6505 2.057,0 1.0686,4.9693 5.0512,6.25 5.0095,1.6108 6.2211,0.6762 10.9235,1.3324 0.8525,0.1189 3.8954,-0.2957 4.4634,-0.5492 4.9869,-2.2254 8.1814,-2.9938 13.3708,-4.5976 3.2816,-1.014 6.8177,-1.5146 11.3953,-1.8062 2.485,-0.1582 6.3438,-0.1478 8.2039,-0.363 1.8275,-0.2116 5.9697,-1.6558 6.7548,-1.6558 0.3766,0 0.9713,0.3422 1.1197,0.6637 0.1485,0.3216 -2.5969,8.0383 -3.0859,9.7627 -0.8091,2.8526 -2.2564,7.2801 -2.2564,10.1748l0 0.2825c0,3.0155 1.4874,6.8702 2.7741,9.6571 1.8164,3.9347 8.0005,7.056 9.5965,8.4607 1.596,1.4046 -1.0694,6.6856 -1.0694,8.4397 0,1.5073 0.8475,3.0932 0.8475,4.803 0,1.3406 -1.0918,1.0255 -1.6952,1.9777 -0.9131,1.441 -3.37,5.1939 -3.9553,9.0408 -0.2071,1.3612 -0.4388,2.8253 -1.6952,2.8253 -0.2201,0 -3.9476,-1.5303 -4.8625,-1.1955l-3.5673 1.3056c0.2194,-1.2491 0.8015,-1.4271 0.8015,-2.0878 0,-1.7673 -3.4779,-2.5569 -4.7423,-4.0159 1.334,-2.0219 8.12,-5.0139 10.3699,-7.0256 2.1395,-1.9131 2.4921,-1.2654 4.5473,-4.2111 0.7611,-1.0907 2.8214,-4.2517 2.8214,-5.9369l0 -0.2825c0,-0.7725 -1.0947,-1.5135 -1.6951,-1.4127l-5.6003 0.5032 0.7973 0.0619c-8.3446,-0.9663 -11.0207,-12.1124 -12.7137,-11.8661 -0.2169,0 -1.4126,0.8361 -1.4126,1.0965l0 3.1414c0,4.3566 -7.7749,11.3913 -11.1837,13.6787 -2.4493,1.6435 -5.0447,3.3614 -7.1186,5.3125 -2.1872,2.0577 -1.5777,8.4139 -3.7348,8.4139l-7.6283 0 0 -1.4126c0,-2.0015 -4.5204,-2.9452 -4.5204,-4.238l0 -0.2825c0,-3.798 10.5677,-3.9429 14.3574,-3.9429 1.9453,-2.9049 1.9593,-2.9091 2.8478,-7.2271 1.0748,-5.2231 0.9643,-6.1281 4.161,-10.4079 1.5707,-2.1029 8.5817,-8.6072 8.5817,-10.0651 0,-1.1138 -2.2887,-1.9776 -3.6729,-1.9776 -0.9379,0 -6.364,2.2114 -7.8708,2.8652 -1.5111,0.6558 -6.1026,3.1463 -7.1436,4.1574 -0.7832,0.7607 -19.634,16.427 -20.0189,16.427 -1.4099,0 -1.8711,-0.8475 -3.1078,-0.8475l-1.4127 0c-2.5728,0 -4.2922,5.3048 -5.4124,7.3012 -1.5975,2.8474 -5.8886,3.929 -5.8886,6.8251 0,1.3436 1.3063,1.5798 1.6137,5.6734 -5.6719,-0.0228 -5.4278,5.0306 -13.1376,3.0252 -1.5803,-0.411 -5.3748,-1.8119 -7.1851,-0.5675 -1.0709,0.736 -3.4013,3.735 -4.7407,3.735 -0.2075,0 -2.259,-3.2522 -3.3904,-3.3903 -4.218,-0.5147 -9.1055,0.4006 -7.0632,-2.2602l1.0521 -1.3708c1.1093,-1.4451 -2.1821,-3.5142 -2.1821,-4.5623 0,-0.3036 0.8263,-1.1301 1.4126,-1.1301l1.4126 0c3.9077,0 10.0169,3.651 13.4891,3.8796l5.4402 0.3583c4.6278,0 7.0254,-4.3125 7.1543,-6.4972 0.0767,-1.2986 -0.0011,-3.9334 -1.8612,-6.1416 -0.8326,-0.9883 -1.7573,-4.3127 -3.3154,-4.3127 -0.3095,0 -3.6597,2.0295 -4.0131,2.485 -1.159,1.494 -1.8344,2.0353 -4.4627,2.0353l-1.4126 0c-2.3963,0 -4.6127,-3.2468 -6.3949,-4.341 -4.5709,-2.8065 -10.2077,-4.9823 -15.6422,-4.9823l-0.5651 0c-2.2373,0 -4.2225,2.2254 -5.8928,2.8655 -1.3582,0.5206 -3.9659,2.4313 -5.3314,2.6902 -0.7497,0.1421 -2.0546,-0.8323 -2.0546,-1.8829l0 -0.8475c0,-1.6073 1.0046,-2.6164 -0.0459,-5.3221 -0.3442,-0.8867 -2.7793,-2.9378 -2.7793,-3.7188l0 -0.2826c0,-0.7846 3.0198,-2.1629 3.3903,-2.8253 0.5443,-0.9731 0.5484,-3.1077 1.4126,-3.1077 0.7247,0 1.4872,0.3297 1.9777,0.565 0,3.4215 2.7979,6.6022 5.022,7.9743 0.7818,0.4822 8.9409,2.4793 10.2345,2.4793l3.1078 0c3.9771,0 6.4981,-1.9834 6.4981,-5.9331l0 -1.4126c0,-6.0968 -5.933,-11.3937 -5.933,-16.9517 0,-0.8223 0.8475,-1.9068 0.8475,-2.5427 0,-1.0447 -2.1368,-1.6582 -2.8836,-2.2019 -2.5238,-1.8379 -1.2572,-7.6865 2.0361,-7.6865 2.7643,0 4.6727,2.2601 6.7806,2.2601 1.5737,0 2.8343,-0.9864 4.2379,-0.8475l12.7166 1.1011c0.9161,0.1199 5.3315,-2.5137 5.3651,-2.5137l0.565 0c1.495,0 3.9032,2.4181 3.1079,3.6728 -1.1433,1.8035 -2.3459,2.704 -1.5739,4.6095l1.8058 4.4575c0.6956,1.7169 0.7168,2.9653 0.0505,5.0593l0 0.5651c0,0.9134 1.0257,1.4127 1.9777,1.4127l1.4127 0c15.9101,-1.7955 32.9865,-2.3069 50.5902,-7.0453 5.5404,-1.2573 14.5103,-4.832 17.2162,-10.4715 -0.4342,-0.4577 -1.1059,-1.156 -1.9776,-1.13 -5.8375,0.2376 -12.5152,-0.1728 -18.1798,1.2553 -5.299,1.336 -14.1615,6.9379 -18.2662,6.9379zm-4.803 -4.5204c-3.2628,0 -7.3179,0.1234 -8.4757,-1.9777 -1.3156,-2.3873 -1.8698,-6.2156 -4.5205,-6.2156l-0.5651 0c-3.3971,0 -8.7583,3.0091 -8.7583,6.2156l0 0.2825c0,2.5205 0.7565,3.9851 1.4935,5.8522 0.6938,1.7579 2.5001,2.0791 4.1817,3.0326l4.4958 0.7212c3.8724,0 7.6352,-1.4127 11.0185,-1.4127l2.2603 0c1.645,0 2.4651,0.8476 4.2378,0.8476 1.1179,0 5.0663,-2.2817 5.9377,-2.8206 1.3654,-0.8444 4.7236,-2.2979 6.2663,-2.7745 2.5302,-0.7819 4.2209,-1.5503 6.9371,-2.1039 3.8124,-0.777 8.2362,-0.1521 12.2194,-0.4943 -0.3353,4.0301 -15.4992,7.4255 -18.396,7.879 -10.6624,2.7817 -21.1231,3.7778 -31.2618,4.3367 -1.3241,0.2093 -7.0089,0.7806 -8.2602,0.7806 -1.0557,0.1829 -3.507,0.9421 -3.6211,-0.0849 -0.2062,-1.8549 0.2057,-4.0166 -0.6189,-5.5646l-2.2581 -4.239c0.3055,-0.5774 1.6951,-2.6107 1.6951,-2.8253l0 -1.4126c0,-1.9145 -4.3722,-6.0869 -6.2155,-5.9331 -1.2876,0.1075 -4.4343,3.1079 -5.3681,3.1079l-1.6951 0c-4.9611,0 -9.0616,-1.1907 -14.7346,0.0667 -2.0958,0.4645 -5.8398,-3.9816 -9.7942,-1.9934 -1.5452,0.5922 -4.0064,3.4634 -4.0064,5.5995l0 0.8476c0,3.3631 1.9719,3.9889 4.5204,5.6505 -0.2356,1.0113 -0.565,1.3275 -0.565,2.5428l0 0.2825c0,4.5595 1.3698,5.2677 3.0131,9.1355 1.8863,4.4396 2.932,4.2638 2.3549,9.7938 -0.1282,1.2289 -1.4395,2.5427 -3.1078,2.5427l-2.2602 0c-2.8643,0 -9.8313,-1.8754 -10.9157,-3.4932 -2.0696,-3.0871 -1.5306,-8.0904 -6.601,-8.0904l-0.5651 0c-2.994,0 -5.7168,0.5984 -4.8029,2.5427l0.7385 1.5711c0.7312,1.5557 -3.659,1.9378 -5.2062,2.6871l-0.3353 0.8273c-0.4916,1.2133 4.2379,3.8329 4.2379,7.3457 0,2.3647 -0.1162,4.5013 1.0215,6.6068 0.7852,1.453 4.0324,2.3935 5.7221,1.8535 1.9556,-0.6249 3.824,-1.7851 5.6497,-2.5651 2.3144,-0.9888 2.6918,-2.7873 5.4059,-2.7873l1.6952 0c1.7953,0 3.9983,0.7824 5.5464,1.2342 2.8127,0.8209 6.5525,3.1276 8.5556,5.2882 0.9394,1.0135 3.1929,1.686 4.6764,2.3869 3.5674,1.6851 8.4063,-1.6936 10.3219,-2.9763 0.5047,0.338 3.3903,3.9453 3.3903,4.5204l0 1.6952c0,1.8402 -3.7723,4.5204 -6.2156,4.5204 -2.4017,0 -7.1934,-0.8376 -8.8822,-1.5713 -1.2719,-0.5524 -6.8143,-2.6666 -8.0694,-2.6666l-3.1078 0c-2.1491,0 -4.5205,1.6155 -4.5205,3.3903 0,2.541 3.3904,2.6102 3.3904,3.9554 0,1.4937 -1.6952,3.2659 -1.6952,3.3904 0,2.6648 3.9595,4.4265 6.7849,4.062l1.9639 -0.5656c1.5291,-0.4403 2.8238,3.2842 5.095,3.2842 3.7684,0 5.2852,-4.5205 7.3457,-4.5205 0.444,0 6.2355,1.9777 7.6282,1.9777 3.1306,0 4.7583,-1.4755 7.1032,-2.5026 2.5493,-1.1167 6.4582,-0.5495 6.4582,-3.4304 0,-2.2558 -1.9778,-4.0623 -1.9778,-5.9331 0,-0.8904 4.3677,-3.4464 5.3637,-5.0898 1.0372,-1.7113 1.1762,-1.0667 2.0113,-3.3566 0.3714,-1.0183 1.33,-2.5721 2.796,-2.5721 3.8912,0 2.6981,0.9543 5.6564,-1.1243 10.4121,-7.3157 17.8354,-18.2259 31.0721,-21.7604 -0.0356,1.5957 -3.9907,4.9818 -5.1557,6.1454 -1.8258,1.8235 -3.2312,4.3566 -4.3107,6.9904 -3.6483,8.9018 2.7346,12.5741 -9.4629,12.5741 -4.3988,0 -9.8884,0.8962 -9.8884,5.0855 0,3.1343 1.7375,3.3729 4.332,3.9476l0.1884 3.1156c0.6901,1.0306 1.6754,1.6952 3.3903,1.6952 0.9943,0 2.3105,-0.8476 3.9554,-0.8476 2.0377,0 3.7029,0.8476 5.368,0.8476 1.6514,0 2.1194,-2.2409 2.6517,-3.5639 0.6753,-1.6786 0.7018,-4.1705 1.1867,-5.0289 1.4513,-2.5693 4.5751,-3.9903 7.0649,-5.6488 2.457,-1.6367 10.9014,-11.4739 11.6989,-13.7286 0.182,0 3.4618,3.7341 4.6899,4.6335 1.2578,0.9212 4.7525,2.9947 6.6111,2.9947l1.1395 0.0628 2.5334 -0.3453 0 0.8476c0,3.3856 -5.7908,6.9017 -8.2899,8.3791 -2.7935,1.6513 -9.7764,4.4611 -9.2268,7.7249 0.322,1.912 2.1787,1.9464 1.9722,1.9832 0.3397,0.1745 2.8606,1.309 2.8606,1.6272 0,0.6719 -1.1599,1.1849 -1.1599,2.6052 0,0.6286 1.5309,1.4126 2.2602,1.4126 2.1868,0 3.5347,-1.3983 5.0854,-1.6952 3.1387,0.0977 4.5012,1.8368 5.2889,1.6911l-0.2033 0.0041c2.6379,0 2.8767,-2.1314 3.6728,-4.8029 0.7683,-2.5783 0.7583,-3.5183 2.8998,-5.8586 0.9691,-1.0589 3.3157,-3.7392 3.3157,-5.4425l0 -0.8476c0,-2.428 -1.2869,-3.2898 -1.143,-5.642 0.1096,-1.7877 1.7081,-4.2704 1.7081,-5.3765 0,-2.7849 -5.8688,-5.4286 -7.8029,-7.171 -2.4278,-2.1872 -5.4159,-8.4223 -5.267,-11.8361 0.1521,-3.4843 1.3292,-6.5096 2.3328,-9.8118 0.8865,-2.9173 2.8264,-7.5563 2.8264,-10.4524l0 -1.1301c0,-2.3914 -3.191,-3.0416 -4.238,-2.5427 -5.6263,2.6811 -16.3481,2.1915 -23.8539,3.8337 -7.3445,1.607 -14.2141,5.7722 -21.9154,5.7722z"/>
   <path id="_38767992" class="fil3" d="M177.719 175.409c1.3924,0.604 3.435,1.4878 3.5973,3.4326 0.0908,1.0887 -1.5085,4.1223 -2.0858,5.0626 -2.5292,4.1188 -1.2327,9.6827 -0.9093,14.3523 0.119,1.718 1.3575,4.6401 2.207,5.7038 1.4808,1.8539 2.3634,2.294 4.3673,3.5435 1.4038,0.8754 0.9733,0.3859 2.4146,1.5407 0.6019,0.4823 1.7046,1.2321 2.3147,1.6406 -1.5973,2.3855 -1.291,5.368 -5.6505,5.368 0.1476,-0.6336 0.2825,-0.6496 0.2825,-1.4126l0 -0.8475c0,-1.9373 -3.8096,-2.6926 -5.5991,-3.1593 -1.54,-0.4015 -3.9435,-2.1569 -5.3515,-3.1243 -0.9374,-0.6442 -1.5187,-1.5184 -2.3442,-2.1762 -1.5373,-1.2248 -5.4569,-6.2317 -6.4821,-6.2317 -2.8595,0 -5.5278,5.4912 -6.7782,7.6307 -1.0749,1.8393 -1.1116,3.1905 -1.4019,5.6749 -0.2415,2.0657 2.3722,4.0267 1.3995,5.6237l-0.8567 1.4067 -2.5286 -0.3105c-0.6041,-0.0559 -1.9134,0.646 -2.2652,0.8815l-5.0912 -1.3936c1.741,-2.3875 5.2532,-2.6596 6.915,-5.2585 1.9189,-3.001 -1.5413,-5.1686 -1.5413,-9.1694l0 -0.8476c0,-1.6649 2.4972,-3.5659 3.463,-4.4477 1.4041,-1.2818 4.4478,-2.097 4.4478,-3.463 0,-1.5651 -4.9546,-1.5085 -6.2168,-1.687 -8.2785,-1.1499 -12.0597,8.9816 -22.0359,10.4453 -1.1203,0.1643 -0.4179,1.4265 -0.2826,2.2602 0.1723,1.1688 0.9175,3.7412 0.5651,4.803 0,1.5975 -1.1074,8.7633 -1.7847,9.5486 -1.032,1.1963 -4.783,5.5282 -5.2178,6.5744 -0.6273,1.5091 -1.5885,4.784 -2.8859,4.784 -0.9703,0 -1.2248,-2.6308 -2.5427,-3.1079 0.0346,-1.5564 0.565,-1.4447 0.565,-2.2601 0,-0.7446 -1.3201,-2.4271 -1.4126,-3.1079 -0.0455,-0.335 0.2696,-0.7788 0.606,-0.8135 2.742,-0.2829 5.2699,0.2892 7.2641,-0.6396 0.8394,-0.391 3.046,-3.1912 3.046,-4.2069 0,-2.727 -4.6694,-6.0829 -5.7245,-7.8595 -0.8891,-1.4971 0.3827,-2.7264 -0.6713,-3.4321 -3.5452,0.2951 -3.7037,3.1078 -5.933,3.1078l-0.8476 0c-2.8845,0 -3.2661,-1.9094 -6.1125,-1.3961 -1.8938,1.1883 -2.4751,1.3475 -3.4309,3.7833 -0.6585,1.6781 -1.793,3.9367 -3.3977,4.4485 -1.6606,0.5297 -4.8273,0.0038 -6.9554,0.3903 -1.1991,0.2178 -2.0995,0.1951 -2.9204,0.7525 -0.7013,0.4761 -1.1689,1.0624 -2.328,1.0624 -0.033,0 -3.1868,-1.0191 -4.5204,-1.1301 0.4355,-1.6309 3.9554,-0.8749 3.9554,-3.6729 0,-1.064 -0.1859,-0.5342 -0.2826,-1.6951 1.0312,0.2754 3.4859,2.8253 5.6506,2.8253l3.1078 0c3.4033,0 6.8963,-3.3862 7.5081,-6.2668 0.8428,-3.9675 -5.4456,-3.4863 -5.5304,-7.2945 2.8902,-0.6734 2.226,-0.2696 4.3515,-1.864 1.5897,-1.1926 2.7116,-2.3723 2.7116,-4.3516 0,-3.5934 -9.3233,-5.2068 -9.3233,-6.7807 0,-1.8927 4.3638,-2.4386 6.0406,-3.0002 3.3267,-1.1142 2.8586,-4.229 4.9779,-4.0629 1.9766,0.1549 3.7726,1.0575 5.9302,0.465l5.0569 -1.3889c3.3093,-0.9088 0.0745,7.5379 4.1146,9.5545 3.4001,1.6971 6.7002,1.2578 10.6082,1.2578l4.803 0c6.8677,0 16.1217,-0.3088 22.3059,-0.5728 4.155,-0.1773 7.2151,-0.4826 10.3675,-1.7872 2.0078,-0.8309 4.3376,-4.7684 4.3376,-7.5284l0 -0.5651c0,-0.956 -1.8986,-3.3579 -2.5885,-3.9096 -7.4024,-5.9205 -23.5856,2.7795 -31.5972,2.7795l-3.3903 0c-1.5964,-0.218 -4.2297,0.1159 -4.7892,-0.6539l-2.4919 -3.4285c0.261,-0.0518 0.522,-0.1037 0.7829,-0.1555 3.0689,0.8196 4.7011,2.4956 8.2286,2.7452 10.0685,-1.6683 25.9454,-7.2654 35.8059,-2.988zm-81.6106 13.5216c0,2.1761 9.3235,3.9614 9.3235,6.4981 0,4.6962 -7.6283,3.1834 -7.6283,5.368 0,2.073 1.7085,3.3592 2.9041,4.4416 0.6734,0.6097 3.8766,2.7157 3.8766,3.1866 0,2.1714 -3.1716,4.2379 -5.368,4.2379l-2.8253 0c-2.7169,0 -8.4758,-7.4006 -8.4758,-2.5427l0 3.6729c0,1.6812 -4.803,2.7757 -4.803,4.8029 0,0.4666 0.8115,0.9167 1.1302,1.1301 5.5949,0 6.3903,2.5427 7.3456,2.5427 1.7267,0 2.6702,-1.8753 5.1887,-2.7221 2.3173,-0.7791 4.0767,-0.631 6.9719,-0.6563 6.1848,-0.054 3.9627,-7.1505 7.0513,-8.2052 1.5051,-0.514 3.774,1.4126 5.0854,1.4126 2.4789,0 4.1609,-0.4151 5.6506,-1.4126 0.9141,0.6698 1.0773,2.3219 2.6151,3.6004 0.7616,0.6332 3.0354,2.1294 3.0354,3.1802 0,3.3887 -4.309,3.0395 -7.3572,3.3788 -6.2782,0.6989 -2.8137,4.7959 -2.8137,5.6621 0,1.7075 -1.6952,2.4455 -1.6952,3.3903 0,1.7994 2.2245,0.0883 2.9922,1.2457 0.4653,0.7014 0.7882,2.6481 1.5283,2.7097l3.3903 0.2826c4.9388,0.4116 1.3953,-7.7963 7.6282,-9.8885 2.2771,-0.7643 2.867,-4.4589 3.0198,-6.5426l0.8038 -10.9668c1.4991,-0.8803 3.3642,-1.5305 5.0411,-2.4436 1.03,-0.561 2.9601,-2.2044 4.4764,-3.1519 0.7099,-0.4435 8.5982,-7.8438 8.6959,-3.4526 -0.9548,0.255 -1.8745,1.1501 -2.2695,1.9683 -1.0824,2.2415 -1.1208,3.8205 -1.1208,6.2249 0,1.6947 1.6952,4.4405 1.6952,5.3681l0 0.5651c0,1.8362 -2.8398,2.6989 -4.3362,3.5745 -1.9926,1.1659 -2.6127,2.0492 -3.5746,4.0536 0.5934,1.2368 0.7862,1.9778 2.8253,1.9778 3.8941,0 4.8007,2.2601 5.6506,2.2601 1.6347,0 1.298,-1.9776 3.3903,-1.9776 1.7886,0 1.4703,0.6784 3.2845,-0.6709 0.8164,-0.6071 1.801,-1.4486 1.801,-2.7195l0 -0.565c0,-2.3641 -1.4127,-4.1453 -1.4127,-5.0855 0,-0.8473 1.1017,-5.5264 1.6355,-6.2753 0.9802,-1.3751 2.5481,-5.5007 3.7326,-4.4607 2.5676,2.2542 4.1778,4.7048 7.5757,7.3982 1.4751,1.1692 2.7989,1.7613 4.4028,2.9429 1.7534,1.2917 3.4523,1.3543 4.9731,2.3726 0,2.1703 0.4167,4.8029 2.5427,4.8029l0.565 0c1.6976,0 1.5083,-1.1301 2.5428,-1.1301 1.0415,0 1.1049,0.8477 1.9777,0.8477 0.2824,0 0.8475,-0.2598 0.8475,0l0 -2.8253c0,-0.228 3.344,-4.6911 3.1079,-5.0855 -3.3266,-5.5576 -5.8441,-4.5298 -8.8298,-7.5569 -2.0527,-2.0811 -3.884,-8.5226 -3.884,-12.5025l0 -0.2826c0,-4.1445 5.8728,-10.0597 2.8795,-14.1805 -1.798,-2.4752 -8.7904,-5.7061 -13.3329,-5.0313l-29.6703 4.205c-2.5702,0.4154 -5.5245,-3.6399 -7.3408,-3.6399l-0.8476 0c-0.7137,0 -1.4126,1.1705 -1.4126,1.6951l0 1.6952c0,0.2094 1.0601,2.8835 1.3305,3.1899 0.8333,0.9444 1.3427,1.4607 2.5825,1.9379 1.9371,0.7456 4.6849,1.3703 7.1055,1.3703l2.8253 0c7.8391,0 15.1239,-5.368 23.1672,-5.368l1.9777 0c6.3751,0 7.7833,7.7343 2.6402,10.5509 -2.6358,1.4434 -4.7404,1.349 -8.2888,1.5996 -5.7533,0.4064 -13.366,0.5632 -17.8011,0.5632l-14.1264 0c-3.4598,0 -6.2156,-1.8098 -6.2156,-4.5204 0,-2.8424 0.8974,-2.9268 -0.9236,-5.2919 -1.1939,-1.5504 -2.0597,-2.3307 -4.544,-1.3059 -1.3448,0.5547 -2.9641,1.9554 -4.9458,1.2112 -2.0321,-0.7633 -3.1315,-1.019 -5.9731,-0.264 -2.2498,0.5978 -1.6482,2.597 -3.9554,4.238 -2.9956,2.1304 -9.0409,1.6071 -9.0409,5.368z"/>
   <path id="_38749208" class="fil3" d="M135.097 263.235c0,-1.0583 2.3854,-2.5427 3.3904,-2.5427 0.2484,0 2.3114,0.3304 2.3114,0.967l0.0834 2.391c0,0.9155 -1.5615,2.0289 -2.5939,2.0289l-1.5795 -0.1251c-0.9155,0 -1.6118,-1.6866 -1.6118,-2.7191zm6.4176 3.0516c-0.3315,0.2754 -2.585,1.7513 -3.3097,1.7513 -3.1316,0 -4.5205,-2.0626 -4.5205,-5.0854 0,-1.0114 0.7021,-2.8861 2.527,-3.5094 1.7725,-0.6053 4.1019,-0.551 5.1701,0.3328 0.5185,0.4289 1.45,2.8602 1.45,3.4591 0,0.5989 -0.9855,2.7761 -1.3169,3.0516zm2.9172 -2.1842c1.4025,0.0979 2.4243,0.8278 3.379,0.8278 2.7131,0 3.7645,-5.8759 1.4126,-5.9331 -3.4697,-0.0843 -5.9414,2.4895 -8.0999,0.0025 -1.2203,-1.4062 -0.6484,-3.9136 -2.6361,-3.9579l-3.6243 4.3496c-0.6647,0.7976 -1.6586,1.0184 -2.8738,1.0184l-0.2826 0c-1.8054,0 -2.1499,-0.565 -3.9553,-0.565l-1.1301 0c-0.6837,0 -1.9777,1.294 -1.9777,1.9777l0 0.8476c0,3.5504 8.644,1.4619 9.6731,6.7134 0.7751,3.955 0.8507,10.7041 5.3008,10.8032 -0.4627,-1.7328 -3.4653,-2.9549 -2.4954,-6.4447 0.8997,-3.237 4.9205,-7.0864 7.3097,-9.6395zm-103.075 -158.638c-4.9592,13.2377 -9.287,30.1854 -7.2097,49.7337 3.6703,15.9948 8.2197,34.1894 18.8241,47.269 6.4705,7.9809 11.9748,16.0347 19.5854,23.2947 1.1332,0.9629 2.3695,1.5903 3.4266,2.5064 2.1891,1.8972 14.0384,8.8881 14.475,9.5399 -1.2227,-0.2849 -6.3296,-3.1888 -7.952,-3.9143 -1.8122,-0.8104 -5.3774,-3.3367 -7.3454,-4.2381 -4.3278,-1.9823 -6.5905,-4.7024 -10.2135,-7.3031 -3.7437,-2.6871 -10.7302,-12.0172 -13.253,-15.8473 -1.4517,-2.2038 -3.2661,-4.7975 -4.5603,-7.0234 -2.4293,-4.178 -4.4685,-8.5477 -6.2388,-12.973 -2.2459,-5.373 -4.9201,-11.1502 -6.3411,-17.2322 -1.5907,-3.9241 -4.0797,-19.5368 -11.059,-14.5357 -1.3117,0.9544 -2.7609,0.9811 -3.1036,2.2644l-0.2825 2.2603c0.3359,0.5017 1.4126,1.6167 1.4126,2.2601l0 1.4127c0,0.651 -0.1966,0.8476 -0.8476,0.8476l-1.1301 0c-0.9507,0 -2.2602,-1.2655 -2.2602,-2.5427 0,-0.5043 1.0684,-1.5717 1.4902,-1.9001 1.8798,-1.4639 0.9532,-3.4357 -0.867,-4.6563 -0.7235,-0.4851 -2.0974,-1.3544 -3.166,-1.3544l-2.8252 0c-2.6196,0 -3.9011,1.1301 -5.0855,1.1301l-0.2825 0c-1.6934,0 -3.9554,-2.4861 -3.9554,-4.2379 0,-0.6852 1.0698,-2.9321 1.6952,-3.3903 1.582,1.1591 1.9867,3.6728 4.8029,3.6728 3.0144,0 5.3881,-3.2037 6.5067,-5.3594 0.8674,-1.6716 1.189,-2.0026 1.5758,-4.3574 0.4766,-2.9024 0.5996,-4.4095 1.2409,-4.4095l1.6952 0c1.38,0 0.8475,2.9179 0.8475,4.2379 1.4791,2.2088 1.777,1.2559 3.7965,2.4191 0.7138,0.4111 3.4247,2.3839 3.8317,2.3839 0.7631,0 0.8277,-1.0453 0.9117,-1.5352 1.1569,-26.3366 7.9443,-41.4352 20.754,-62.6874 0.7218,-1.4957 4.6094,-6.2565 4.6094,-6.9742 0,-1.4285 -0.9203,-2.5879 -2.1949,-2.9129 -1.759,-0.4485 -2.0192,0.445 -3.1731,1.2177 -0.2581,-0.1728 -0.8476,-0.4599 -0.8476,-0.8475 0,-1.4296 1.53,-2.2603 3.1077,-2.2603 1.5218,0 2.1009,2.2603 3.6729,2.2603 1.8217,0 6.6151,-4.3763 8.2745,-5.5694 5.3476,-3.8453 10.5035,-7.8124 16.1337,-11.2714 2.9389,-1.8055 5.509,-3.3547 8.4834,-5.0778 3.3024,-1.9131 5.3227,-3.2116 9.141,-4.7029 2.7651,-1.0801 6.1935,-3.1672 9.2984,-4.2629 1.2261,-0.4326 8.6726,-3.5805 9.467,-4.0943 3.7953,-2.4551 7.7206,-1.6789 7.856,-5.7053 0,-3.0501 -4.0894,-2.8128 -4.4096,-5.445 -0.3155,-2.5933 3.1467,-3.4559 4.7668,-4.9338 2.1704,-1.9797 3.1178,-2.4844 4.8431,-5.0453 0.4918,-0.7302 3.2755,-6.0502 3.2755,-6.6129l0 -2.2602c0,-0.8741 -1.7623,-1.6952 -2.2602,-1.6952 -1.138,0 -1.8718,-0.148 -2.8156,0.5747 -0.0647,0.0494 -0.2085,0.5641 -0.3129,0.4181 -0.0775,-0.1082 -0.3333,-0.3156 -0.2618,-0.4277 2.515,-3.9391 10.4535,-0.5618 10.4535,3.9553 0,2.9832 -2.8253,4.6937 -2.8253,7.3457 1.6392,0.4377 3.1213,1.9241 5.2442,2.3841 1.5592,0.3378 5.4918,0.6575 5.4918,2.1363l0 1.1302c0,0.7149 -4.6939,3.009 -5.6574,3.6659 -1.6438,1.1209 -3.4569,4.0155 -2.2143,5.6574l1.3333 1.762c-2.7045,-0.198 -5.0459,-0.61 -7.8714,-0.579 -9.6018,1.7837 -18.0504,6.7596 -26.6536,10.8687 -16.2423,7.7586 -36.1853,21.7446 -48.1421,34.6383 -2.9118,4.2284 -4.6971,8.7905 -7.6088,13.019m182.338 4.3134c-1.9913,-3.6589 -3.5832,-5.629 -5.8445,-8.936 -2.2345,-3.2681 -4.3906,-6.9971 -6.9977,-9.9539 -4.847,-5.4967 -10.332,-13.5666 -16.0108,-17.8924 -6.5029,-4.9536 -13.7117,-9.1374 -20.9272,-12.9761 -2.0648,-1.0985 -3.226,-2.0226 -5.4728,-3.003 -1.1022,-0.4809 -5.1899,-2.0057 -5.9731,-2.5027 3.9534,-0.1496 12.5349,4.3512 16.3506,6.3994 6.8629,3.684 19.3738,12.9245 29.1361,16.7678 0.7321,0 1.3962,-0.1506 1.5364,-1.268l0.2301 -1.8328c0.4387,-0.3483 0.4254,-0.5719 1.0588,-0.5719l0.2826 0c0.6868,0 2.2601,1.5733 2.2601,2.2601l0 0.2826c0,1.2531 -1.5159,0.8476 -2.8252,0.8476 -1.0509,0.7036 -1.4126,0.7115 -1.4126,2.5427 0,0.4523 6.0057,5.3597 6.8037,6.1926 6.9935,7.2993 10.6281,14.5301 15.2012,23.5049 4.6747,9.1741 7.4343,19.7386 9.1427,29.846 0.2482,1.4682 1.0264,4.0528 1.0714,5.4267 0.078,2.3769 -0.1691,3.9663 2.2492,3.9663 1.1945,0 1.7483,-2.222 3.8473,-3.4984 0.6652,-0.4044 3.781,-2.5929 3.781,-3.2822 0,-2.3322 -1.4127,-2.8622 -1.4127,-3.6729 0,-0.9154 1.2278,-1.6951 2.2603,-1.6951l0.2824 0c0.798,0 1.0901,0.6483 1.4127,1.1301 -1.2349,0.9806 -1.9777,1.3909 -1.9777,3.1078l0 0.5651c0,1.8511 4.1398,6.4164 5.5755,7.7031 1.5186,1.361 5.5494,5.5756 7.7033,5.5756l1.1301 0c2.5761,0 2.818,-2.6993 4.2379,-3.6501l0 2.52c0,6.7123 -16.154,-3.0596 -15.7886,8.6365 0.0781,2.5042 -2.5756,0.6317 -2.5756,-0.1607 0,-0.4785 0.5084,-1.2718 0.2735,-1.6 -2.2361,-3.1231 -1.3521,-1.0846 -4.0461,-2.2556 -2.0182,-0.6584 -2.5196,-2.36 -4.4207,-2.36 -0.9216,0 -1.5578,1.3505 -1.9777,1.9777 -3.1752,21.6518 -9.1076,46.0885 -22.1205,64.0502 -0.6305,0.8705 -5.2846,6.3483 -5.2846,6.5815l0 0.8476c0,1.3254 2.5427,1.9519 2.5427,3.3903 0,0.3439 -0.5844,0.8476 -1.13,0.8476l-0.8477 0c-0.2253,-0.6224 -2.1083,-1.6952 -2.8252,-1.6952l-0.2826 0c-1.1683,0 -12.05,6.9677 -14.3605,8.5242 -3.9355,2.6511 -8.212,5.7634 -12.4688,7.5906 -0.4075,0.1748 -2.0076,0.8231 -2.318,0.6014 3.21,-2.1841 6.7566,-4.44 9.8885,-6.5922 4.0176,-2.7608 7.974,-5.7349 11.5163,-9.2751 4.6037,-4.6012 8.5323,-9.4501 12.9244,-14.2774 12.8064,-14.0767 21.3093,-43.5571 21.7888,-62.1865 -0.8743,-5.7254 -1.0793,-10.3155 -2.6607,-15.9364 -2.7012,-10.7459 -7.2436,-20.905 -12.526,-30.6114zm-172.259 129.226c0,-1.1136 0.8083,-2.5427 2.2602,-2.5427l0.8476 0c0.8675,0 1.6951,0.2616 1.6951,1.13l0 1.1302c0,0.878 -1.6629,2.2602 -2.8252,2.2602 -1.3189,0 -1.9777,-0.6588 -1.9777,-1.9777zm153.13 -130.245l3.4024 10.1691c6.9988,20.9182 9.7102,47.3998 2.2338,79.3775 -2.9489,10.3265 -7.4429,19.4401 -13.767,29.9296 10.3355,-12.6893 14.9927,-23.6796 18.2139,-28.5905 5.1276,-11.9994 6.6999,-18.5806 8.2296,-33.533l0.0106 -13.8775c-2.3141,-19.6756 -6.0184,-32.4154 -15.3725,-48.4036 -1.0282,-1.7574 -3.9674,-6.1089 -5.2618,-7.7344 -2.1775,-2.7346 -8.7727,-12.9981 -11.0837,-15.0843 0.0811,-0.0812 -3.603,-4.2469 -4.4596,-4.4081 7.4777,9.6723 13.4265,20.7597 17.8543,32.1552zm-146.638 -3.9622c0.874,-2.07 2.9025,-6.2508 4.0616,-8.3696 4.1739,-7.6299 9.8244,-15.1349 15.6541,-21.6394 5.2078,-5.8102 10.6748,-9.827 17.642,-13.1534 10.3924,-4.962 20.0107,-12.3888 30.727,-12.1956 5.2196,0.0941 6.9866,0.1683 11.4816,0.9502 19.9896,3.4773 34.3217,10.662 46.9351,27.3694 7.9382,10.5151 12.2386,20.9871 16.8341,32.8908 6.1198,15.8516 8.6402,30.0153 10.2656,44.608 2.2257,19.9831 -3.8459,46.1327 -12.4832,63.535 -5.2926,10.6642 -14.7504,24.6139 -24.4755,32.0298 -4.1079,3.1325 -11.4776,6.3624 -16.2268,8.0705 -19.6511,7.068 -37.6707,9.0675 -56.7417,-0.2697 -4.2197,-2.0662 -9.6285,-4.4025 -13.2341,-7.3903 -2.4269,-2.0111 -7.4684,-8.1968 -9.3622,-10.9797 -5.7661,-8.4736 -9.9326,-17.0788 -15.1874,-25.7791 -2.2224,-3.6795 -4.8577,-9.8568 -6.2344,-14.3899 -10.0303,-32.9339 -13.2475,-63.0983 0.3442,-95.287zm-4.34 1.028c0.5107,-0.7541 0.5442,-0.9284 1.1213,-1.7039 0.1672,-0.2247 1.1667,-1.6586 1.2478,-1.5775 -10.3788,28.056 -13.4658,49.1459 -6.3928,79.2848 1.8898,10.5883 5.6451,16.5061 7.8055,24.6851 -2.3319,-1.5615 -10.6976,-18.9004 -11.8662,-22.8847 -9.6244,-25.6431 -7.3627,-54.9925 8.0844,-77.8038zm-19.99 22.3617c1.9173,-6.9947 6.9781,-14.8912 10.764,-21.7513 4.0829,-7.3983 7.3444,-14.2944 14.1906,-19.6605 4.7896,-3.7542 10.3125,-8.9661 15.7688,-11.6364 -11.8765,12.2774 -20.6266,22.9554 -27.6863,38.1426 -1.5249,2.8285 -2.87,5.9477 -4.0637,8.9325 -1.4148,3.5382 -2.3859,6.2716 -3.3969,9.8818 -2.1135,7.5482 -2.7084,14.3812 -3.277,22.1506 0.0004,4.4386 0.4554,8.6633 1.3183,12.9979 1.3413,6.7383 3.5907,14.8685 6.4237,21.1018 9.8935,21.768 22.7184,42.2996 38.8752,59.9818l-4.0463 -2.147c-6.2297,-3.8378 -10.1334,-7.6866 -12.8406,-10.4005 -31.94,-32.0213 -43.8001,-64.6561 -32.0298,-107.593zm155.996 -52.4853c-1.2204,-1.2767 -5.4244,-6.0945 -7.0653,-6.7785 17.6196,9.6569 28.8935,27.0339 39.1577,43.6227 1.7399,2.8119 3.6012,6.2326 4.8295,9.297 2.9311,7.314 5.3915,14.6046 7.5408,22.1244 4.9354,17.2695 -1.9362,38.1966 -7.9327,54.3176 -5.5184,11.0084 -10.9172,18.7668 -18.5252,27.931 -3.3908,4.0844 -7.6516,7.4729 -11.5837,11.0184 -3.6893,3.3269 -9.9303,7.3293 -14.1633,9.6259 9.9649,-8.8846 10.1261,-10.2604 13.8855,-14.7066 8.6888,-10.2762 15.4594,-20.2109 21.7177,-32.2449 9.4377,-16.1864 9.8292,-38.682 7.4527,-56.9634 -0.6107,-3.2559 -1.4132,-6.3909 -1.9222,-9.6591 -0.8585,-5.5095 -2.6295,-10.7546 -5.1856,-15.7236 -2.3046,-4.4806 -4.2918,-9.9136 -7.1348,-14.0548 -0.9924,-1.4454 -1.6724,-2.6689 -2.561,-4.2195 -0.2279,-0.3976 -5.877,-8.2341 -5.9198,-8.2902 -3.7698,-4.9382 -8.5882,-11.1098 -12.5903,-15.2964zm38.9433 22.9302c-2.7804,-4.4558 -5.3247,-8.8017 -9.2331,-12.804 -0.0224,-0.0488 -4.6902,-4.4871 -5.415,-5.3211 0.3731,-0.705 1.6952,-2.2717 1.6952,-2.8253l0 -2.2601c0,-1.0473 -2.507,-3.6729 -4.5204,-3.6729l-1.1302 0c-1.4615,0 -1.7115,2.5427 -3.1077,2.5427l-0.2826 0c-0.4488,0 -15.0337,-8.2572 -16.7695,-9.2228 -2.7712,-1.5413 -5.5847,-3.0929 -8.3199,-4.6764 -2.1045,-1.2184 -6.4169,-3.4983 -8.6133,-4.3829 -3.3149,-1.3351 -5.7642,-2.4026 -9.3261,-3.6701 -7.6847,-2.7688 -14.3017,-3.1738 -21.1055,-4.887 -2.0802,-0.5238 -9.8877,-0.9594 -9.8877,-2.826 0,-4.2708 8.4758,-5.6221 8.4758,-7.0632 0,-1.6823 -1.1775,-4.643 -2.2602,-5.368 -3.2677,0 -7.1977,-0.615 -8.7584,-2.2603 0.6954,-1.3141 2.5428,-5.0335 2.5428,-6.7806 0,-1.5689 -1.9836,-4.6579 -3.1962,-5.2797 -2.3963,-1.2286 -3.1067,-1.7835 -6.6923,-1.7835 -2.0844,0 -5.368,2.7911 -5.368,5.6505 0,1.0446 0.1815,2.415 0.5651,2.5428l0.8476 0.2825c1.6524,-0.8743 1.8194,-3.3903 3.1077,-3.3903l0.8476 0c2.5022,0 -1.2432,5.5439 -1.5823,6.0458 -2.3442,3.4686 -5.2406,7.3276 -9.1054,9.2589 -2.13,1.0644 -2.915,3.7133 -1.4609,5.8848 1.4025,0 3.6729,1.1528 3.6729,2.8253l0 0.2825c0,1.0333 -3.1903,1.9279 -4.0197,2.196 -11.2852,3.6482 -26.0434,10.9226 -35.9905,17.6895 -3.5023,1.7483 -24.4313,17.3202 -25.2536,17.6906l-0.565 0c-1.2926,0 -2.6269,-1.6952 -4.803,-1.6952 -0.0611,0 -2.6954,0.9164 -2.8926,1.0628 -0.6787,0.5037 -1.3453,1.2356 -1.3453,2.3275l0 1.4127c0,0.9215 1.2529,1.7673 1.9777,1.9777 0.9525,0.2765 2.3507,-0.0769 2.9718,0.149 0.6212,0.2259 0.2503,0.6257 0.1361,0.981 -2.4927,4.7109 -5.994,9.2259 -8.628,13.9742 -2.4921,4.4924 -5.509,10.0004 -7.2002,15.1518 -3.6396,8.6463 -5.337,17.79 -6.6717,27.4818 -0.7476,3.2574 -1.0477,10.1401 -1.2324,10.0686 -1.1071,-0.4285 -3.5173,-1.1961 -4.0721,-2.2455 -1.6115,-3.0479 -0.6249,-5.6653 -4.9688,-5.6653 -4.184,0 -3.8767,5.0471 -5.0518,8.2269 -1.1616,3.1428 -1.3902,4.6127 -4.2716,5.617 -1.3572,0.4731 -3.1078,-0.8309 -3.1078,-2.5427l0 -1.1302c0,-0.6506 -0.8764,-0.3289 -1.4126,-0.2825l-0.2826 0c-2.9402,0 -3.9553,4.6802 -3.9553,7.9107 0,1.3014 2.9438,5.1301 5.0821,5.1104 2.9841,-0.0276 6.585,-1.7201 8.4792,-1.7201l0.2825 0c1.131,0 1.4041,0.5824 2.5427,0.8476 -0.0484,2.1764 -1.6951,1.1903 -1.6951,3.6729l0 2.5427c0,1.4224 2.3946,3.6729 3.3903,3.6729l1.9777 0c0.8736,0 3.1078,-1.0476 3.1078,-1.9777l0 -1.9777c0,-1.5996 -1.4127,-2.1329 -1.4127,-3.1078 0,-0.9326 3.1642,-2.8253 3.6729,-2.8253l0.8476 0c2.4974,-0.9864 8.4233,27.4999 13.5146,35.6451 4.5153,11.2351 12.1626,19.2966 19.4993,28.4885 -1.8753,0.4369 -3.3486,2.3715 -3.3486,4.5205l0 0.2825c0,2.8681 1.5401,3.6103 4.1736,4.0257 4.4562,0.7026 3.4571,-2.3305 5.1498,-2.3305l0.2825 0c1.1055,0 4.2606,2.7379 5.6078,3.433 3.8657,1.9947 7.6235,3.9478 11.399,6.1177 1.4628,0.8407 4.3305,2.1413 5.9609,2.7975 3.83,1.5416 7.9729,4.1824 11.826,5.6907 1.5944,0.624 4.4493,1.9688 5.9493,2.809 6.892,3.8603 20.7269,6.8397 28.1935,6.8397 0.3415,0.5099 0.5651,0.4966 0.5651,1.1301 0,1.1923 -1.862,3.1078 -3.3903,3.1078l-0.2825 0c-2.3755,0 -3.7345,-0.8476 -5.9331,-0.8476 -1.1672,0 -3.3903,1.4229 -3.3903,3.1078l0 3.3904c0,1.1076 2.238,2.5351 3.1645,2.7685 0.9721,0.245 1.455,0.2081 2.469,0.3562 3.0469,0.4449 3.8095,1.2766 4.358,4.1178 0.4741,2.4556 1.9926,10.2741 4.9824,10.2741l2.8253 0c1.2601,0 3.0759,-1.6785 3.1078,-3.1078l-1.1301 0c-0.5535,0 -2.3645,-1.0441 -2.8253,-1.6952 -2.1851,-3.0877 0.6818,-5.7166 2.9529,-8.7625 2.3946,-3.2116 1.6304,-2.4513 5.5229,-1.4084l0.565 0c2.261,0 4.2379,-2.3287 4.2379,-5.0855 0,-1.9442 -1.3969,-4.803 -3.3903,-4.803l-1.6951 0c-1.2367,0 -1.6979,0.8476 -3.1078,0.8476 -0.4781,0 -3.104,-2.9928 -3.104,-3.7297 5.9236,-1.0593 19.679,-4.4218 22.4313,-5.1957 5.1039,-1.4352 10.1588,-4.1126 15.1706,-6.0188 1.9398,-0.7378 2.9288,-1.3898 4.7371,-2.0435 2.7642,-0.9993 6.7896,-3.2368 9.4206,-4.7058 0.8715,-0.4866 1.529,-0.7278 2.374,-1.2989 5.9959,-4.0517 12.6638,-8.897 19.081,-12.2378 1.3527,-0.7042 2.9736,-2.2904 4.4765,-2.3459 1.1554,-0.0425 1.7482,1.4127 3.3903,1.4127l2.2602 0c1.6417,0 3.3903,-2.6349 3.3903,-3.9554 0,-1.0694 -2.5427,-1.9101 -2.5427,-3.3903 0,-0.992 5.982,-8.5574 6.9581,-9.9936 8.8502,-13.0203 12.2233,-28.6808 16.3251,-43.5705 0.6445,-2.3394 0.946,-4.8136 1.5791,-7.1792 0.405,-1.5127 1.0913,-5.8803 1.1301,-7.6282 2.8829,-0.1058 6.7615,-0.2247 5.3681,3.9553 -0.2826,0.8476 1.5989,1.4543 2.8252,1.4127 1.491,0 2.4977,-0.784 3.1078,-1.6951l0.1763 -3.056c0.2247,-3.8946 4.8191,-2.8772 6.8869,-2.8772l3.6728 0 3.1028 -0.3225c2.5452,-0.2645 3.3484,-2.1734 3.1128,-6.1755 -0.1042,-1.7708 -3.0219,-3.9554 -5.368,-3.9554l-0.565 0c-0.5454,0 -0.503,0.0889 -0.8476,0.2825 0.3969,1.4867 1.4126,1.5577 1.4126,3.6729 0,1.0152 -1.1863,1.9316 -1.9776,1.6951 -3.5501,-1.0609 -3.8639,-1.7448 -6.4279,-4.3081 -1.3657,-1.3653 -8.2228,-8.4428 -2.8955,-8.9706 0.6287,-0.0623 1.0707,-1.0761 0.8807,-1.6787 -0.4611,-1.4625 -2.5552,-3.4069 -4.5536,-3.4069l-0.565 0c-1.8537,0 -4.5205,1.7177 -4.5205,3.1079l0 1.4126c0,0.6676 2.1309,2.5184 0.2578,3.6458 -0.8846,0.5325 -2.7043,1.7512 -3.3656,1.4397 -1.6248,-0.6558 -2.7399,-11.0809 -3.0838,-13.7645 -1.3622,-10.6278 -6.9345,-22.3097 -12.781,-31.679z"/>
   <path id="_39268184" class="fil1" d="M111.366 91.1749c6.3702,3.9453 7.7238,-1.4113 10.7346,-1.4113l0.5651 0c1.606,0 2.5428,3.1848 2.5428,4.5205l0 0.8475c0,3.0858 -2.5334,5.2254 -3.6729,6.7807 0.3625,0.1918 2.38,1.4126 2.5427,1.4126 2.9903,0 3.6384,-8.2223 3.1078,-11.0185 -0.1388,-0.7315 -2.2602,-2.218 -2.2602,-3.1078 0,-0.6664 0.5542,-1.2571 0.8476,-1.6951 7.3959,-0.9623 13.2539,-7.2038 18.4587,-11.7541 4.2721,-3.7349 10.1188,-6.2353 11.7717,-1.2422 0,1.7382 -4.4293,7.6319 -5.3511,9.0578 -1.0717,1.6576 -1.5878,8.9556 -1.6477,11.6216 -0.0424,1.8893 -4.8674,3.6399 -4.8674,5.5956 0,0.5232 3.8283,2.2052 4.5667,2.1639 0.7707,-0.0432 2.2651,-1.1063 3.3441,-1.3163 2.279,0.3417 2.0341,-1.948 1.6951,-3.3903 -0.1138,-0.4841 -2.2602,-2.8558 -2.2602,-3.3904 0,-2.6111 8.1879,-12.9962 10.171,-12.9962l0.2825 0c0.9856,0 7.4497,5.4795 8.5473,6.4266 1.3488,1.1636 3.2955,1.6624 4.8404,2.7878 2.1296,1.5513 2.1996,2.1256 3.2814,4.3469 0.3369,0.6919 -0.184,1.9777 0.5651,1.9777 0.4084,0 1.5653,0.2168 1.9193,-0.2714 0.9048,-1.2478 0.7132,-4.107 0.0584,-4.8141 -1.3467,-1.4542 -3.2633,-1.9143 -4.0551,-3.5731 -1.7763,-3.7213 -3.6407,-7.6392 -4.8102,-11.5765 -1.0142,-3.4145 -1.2139,-3.0712 -0.0238,-6.4622 0.657,-1.8723 1.6235,-2.9676 2.3909,-5.5108 -1.0803,0.7915 -2.3854,4.4059 -5.0819,4.1807l-9.6095 -0.5078c-4.7352,0 -9.1537,0.8107 -13.8349,1.4214 -4.6684,0.6091 -10.0099,1.6863 -14.7002,1.6863l-6.2156 0c-5.7658,0.0835 -5.0567,-3.6007 -8.0765,-4.6372 -0.8307,-0.2852 -1.5295,-0.3099 -1.5295,-1.2958l0 -1.1301c0,-0.809 2.1131,-5.3492 0.8476,-5.6506 -0.322,-0.0766 -3.6547,3.4202 -6.7331,3.0533 -3.3448,-0.3986 -5.4271,0.9531 -5.8905,1.2747 -1.8154,1.2596 -2.0154,5.5732 -4.5777,6.1584 -3.4289,0.783 -4.2689,3.4547 -2.2191,2.8948 0.718,-0.1961 2.4825,-1.515 3.0339,-1.515l0.2825 0c3.7025,0 4.8412,2.911 3.0439,5.0215 -1.1474,1.3474 -4.174,3.9725 -4.174,5.997 0,1.1109 6.498,2.8242 6.498,4.803l0 1.1301c0,2.734 -3.0597,6.1826 -5.1392,7.7844 -1.8,1.3867 -4.7972,1.745 -7.002,1.2705 -2.4216,-0.5211 -3.1279,-1.4302 -4.8103,-2.5568 -0.2581,0.1728 -0.8476,0.4599 -0.8476,0.8476 0,0.7736 0.5651,0.9215 0.5651,1.6952 0,0.4666 -0.8116,0.9167 -1.1302,1.1301 -1.7322,0 -2.7538,-0.478 -3.0908,0.7901l2.0407 1.0177c0.3146,0.4432 1.0047,0.5527 1.3192,0.9959 0.7105,1.0011 1.8988,-1.8433 3.1212,-1.9561 5.9937,-0.5534 8.0176,-0.3483 11.4822,-3.2509 1.6778,-1.4057 3.6062,-5.2294 4.1861,-6.5221 2.1459,-1.2738 3.9499,1.2367 4.9576,1.8608z"/>
   <path id="_39798304" class="fil1" d="M119.558 108.693c-0.0336,0 -4.449,2.6336 -5.3651,2.5137l-12.7166 -1.1011c-1.4036,-0.1389 -2.6642,0.8475 -4.2379,0.8475 -2.1079,0 -4.0163,-2.2601 -6.7806,-2.2601 -3.2933,0 -4.5599,5.8486 -2.0361,7.6865 0.7468,0.5437 2.8836,1.1572 2.8836,2.2019 0,0.6359 -0.8475,1.7204 -0.8475,2.5427 0,5.558 5.933,10.8549 5.933,16.9517l0 1.4126c0,3.9497 -2.521,5.9331 -6.4981,5.9331l-3.1078 0c-1.2936,0 -9.4527,-1.9971 -10.2345,-2.4793 -2.2241,-1.3721 -5.022,-4.5528 -5.022,-7.9743 -0.4905,-0.2353 -1.253,-0.565 -1.9777,-0.565 -0.8642,0 -0.8683,2.1346 -1.4126,3.1077 -0.3705,0.6624 -3.3903,2.0407 -3.3903,2.8253l0 0.2826c0,0.781 2.4351,2.8321 2.7793,3.7188 1.0505,2.7057 0.0459,3.7148 0.0459,5.3221l0 0.8475c0,1.0506 1.3049,2.025 2.0546,1.8829 1.3655,-0.2589 3.9732,-2.1696 5.3314,-2.6902 1.6703,-0.6401 3.6555,-2.8655 5.8928,-2.8655l0.5651 0c5.4345,0 11.0713,2.1758 15.6422,4.9823 1.7822,1.0942 3.9986,4.341 6.3949,4.341l1.4126 0c2.6283,0 3.3037,-0.5413 4.4627,-2.0353 0.3534,-0.4555 3.7036,-2.485 4.0131,-2.485 1.5581,0 2.4828,3.3244 3.3154,4.3127 1.8601,2.2082 1.9379,4.843 1.8612,6.1416 -0.1289,2.1847 -2.5265,6.4972 -7.1543,6.4972l-5.4402 -0.3583c-3.4722,-0.2286 -9.5814,-3.8796 -13.4891,-3.8796l-1.4126 0c-0.5863,0 -1.4126,0.8265 -1.4126,1.1301 0,1.0481 3.2914,3.1172 2.1821,4.5623l-1.0521 1.3708c-2.0423,2.6608 2.8452,1.7455 7.0632,2.2602 1.1314,0.1381 3.1829,3.3903 3.3904,3.3903 1.3394,0 3.6698,-2.999 4.7407,-3.735 1.8103,-1.2444 5.6048,0.1565 7.1851,0.5675 7.7098,2.0054 7.4657,-3.048 13.1376,-3.0252 -0.3074,-4.0936 -1.6137,-4.3298 -1.6137,-5.6734 0,-2.8961 4.2911,-3.9777 5.8886,-6.8251 1.1202,-1.9964 2.8396,-7.3012 5.4124,-7.3012l1.4127 0c1.2367,0 1.6979,0.8475 3.1078,0.8475 0.3849,0 19.2357,-15.6663 20.0189,-16.427 1.041,-1.0111 5.6325,-3.5016 7.1436,-4.1574 1.5068,-0.6538 6.9329,-2.8652 7.8708,-2.8652 1.3842,0 3.6729,0.8638 3.6729,1.9776 0,1.4579 -7.011,7.9622 -8.5817,10.0651 -3.1967,4.2798 -3.0862,5.1848 -4.161,10.4079 -0.8885,4.318 -0.9025,4.3222 -2.8478,7.2271 -3.7897,0 -14.3574,0.1449 -14.3574,3.9429l0 0.2825c0,1.2928 4.5204,2.2365 4.5204,4.238l0 1.4126 7.6283 0c2.1571,0 1.5476,-6.3562 3.7348,-8.4139 2.0739,-1.9511 4.6693,-3.669 7.1186,-5.3125 3.4088,-2.2874 11.1837,-9.3221 11.1837,-13.6787l0 -3.1414c0,-0.2604 1.1957,-1.0965 1.4126,-1.0965 1.654,-0.2407 4.2465,10.3931 12.1469,11.7835l5.3698 -0.4825c0.6004,-0.1008 1.6951,0.6402 1.6951,1.4127l0 0.2825c0,1.6852 -2.0603,4.8462 -2.8214,5.9369 -2.0552,2.9457 -2.4078,2.298 -4.5473,4.2111 -2.2499,2.0117 -9.0359,5.0037 -10.3699,7.0256 1.2644,1.459 4.7423,2.2486 4.7423,4.0159 0,0.6607 -0.5821,0.8387 -0.8015,2.0878l3.5673 -1.3056c0.9149,-0.3348 4.6424,1.1955 4.8625,1.1955 1.2564,0 1.4881,-1.4641 1.6952,-2.8253 0.5853,-3.8469 3.0422,-7.5998 3.9553,-9.0408 0.6034,-0.9522 1.6952,-0.6371 1.6952,-1.9777 0,-1.7098 -0.8475,-3.2957 -0.8475,-4.803 0,-1.7541 2.6654,-7.0351 1.0694,-8.4397 -1.596,-1.4047 -7.7801,-4.526 -9.5965,-8.4607 -1.2867,-2.7869 -2.7741,-6.6416 -2.7741,-9.6571l0 -0.2825c0,-2.8947 1.4473,-7.3222 2.2564,-10.1748 0.489,-1.7244 3.2344,-9.4411 3.0859,-9.7627 -0.1484,-0.3215 -0.7431,-0.6637 -1.1197,-0.6637 -0.7851,0 -4.9273,1.4442 -6.7548,1.6558 -1.8601,0.2152 -5.7189,0.2048 -8.2039,0.363 -4.5776,0.2916 -8.1137,0.7922 -11.3953,1.8062 -5.1894,1.6038 -8.3839,2.3722 -13.3708,4.5976 -0.568,0.2535 -3.6109,0.6681 -4.4634,0.5492 -4.7024,-0.6562 -5.914,0.2784 -10.9235,-1.3324 -3.9826,-1.2807 -2.9942,-6.25 -5.0512,-6.25 -3.1706,0 -5.368,2.7044 -5.368,5.6505 0,5.0449 4.8979,6.1899 10.1032,5.6042 1.4573,-0.1639 5.0009,-0.7627 6.7922,-1.14 1.1873,-0.2501 1.3235,-0.4681 3.3166,-0.6051 1.4454,-0.0993 1.7373,0.6613 2.9552,0.6613l0.5651 0c4.1047,0 12.9672,-5.6019 18.2662,-6.9379 5.6646,-1.4281 12.3423,-1.0177 18.1798,-1.2553 0.8717,-0.026 1.5434,0.6723 1.9776,1.13 -2.7059,5.6395 -11.6758,9.2142 -17.2162,10.4715 -17.6037,4.7384 -34.6801,5.2498 -50.5902,7.0453l-1.4127 0c-0.952,0 -1.9777,-0.4993 -1.9777,-1.4127l0 -0.5651c0.6663,-2.094 0.6451,-3.3424 -0.0505,-5.0593l-1.8058 -4.4575c-0.772,-1.9055 0.4306,-2.806 1.5739,-4.6095 0.7953,-1.2547 -1.6129,-3.6728 -3.1079,-3.6728l-0.565 0zm-4.2379 20.3419c0,1.8875 -1.5685,4.5502 -2.6086,5.5847 -0.5999,0.5966 -4.04,3.1736 -4.7371,3.1736l-5.0855 0c-3.72,0 -8.4758,-5.601 -8.4758,-9.0409 0,-1.145 0.632,-1.4126 1.6951,-1.4126l0.2826 0c1.7744,0 3.2732,-0.1758 4.9756,-1.2399 0.6305,-0.3941 2.8485,-1.8679 3.5002,-1.8679 1.1264,0 1.5674,1.4455 2.0813,1.8741 2.3803,1.9851 3.2418,0.3861 5.5469,0.3861 1.4376,0 2.8253,1.2209 2.8253,2.5428zm-13.4605 -14.7827c1.9976,3.4864 4.5839,11.1102 -4.0562,11.3924l-0.2825 0c-3.152,0 -6.4981,-1.8664 -6.4981,-4.803 0,-1.4417 4.4138,-9.3234 5.368,-9.3234l0.565 0c1.5056,0 4.4209,1.679 4.9038,2.734zm13.743 4.8942c0,2.8493 -2.69,5.6506 -5.6505,5.6506 -2.8707,-0.0054 -5.9511,-2.8028 -6.1413,-5.7874 0.6771,-2.9063 2.5343,-5.7962 6.1413,-5.7962 2.4063,0 5.6505,3.1007 5.6505,5.368l0 0.565z"/>
   <path id="_39511696" class="fil1" d="M135.945 191.473c-3.908,0 -7.2081,0.4393 -10.6082,-1.2578 -4.0401,-2.0166 -0.8053,-10.4633 -4.1146,-9.5545l-5.0569 1.3889c-2.1576,0.5925 -3.9536,-0.3101 -5.9302,-0.465 -2.1193,-0.1661 -1.6512,2.9487 -4.9779,4.0629 -1.6768,0.5616 -6.0406,1.1075 -6.0406,3.0002 0,1.5739 9.3233,3.1873 9.3233,6.7807 0,1.9793 -1.1219,3.159 -2.7116,4.3516 -2.1255,1.5944 -1.4613,1.1906 -4.3515,1.864 0.0848,3.8082 6.3732,3.327 5.5304,7.2945 -0.6118,2.8806 -4.1048,6.2668 -7.5081,6.2668l-3.1078 0c-2.1647,0 -4.6194,-2.5499 -5.6506,-2.8253 0.0967,1.1609 0.2826,0.6311 0.2826,1.6951 0,2.798 -3.5199,2.042 -3.9554,3.6729 1.3336,0.111 4.4874,1.1301 4.5204,1.1301 1.1591,0 1.6267,-0.5863 2.328,-1.0624 0.8209,-0.5574 1.7213,-0.5347 2.9204,-0.7525 2.1281,-0.3865 5.2948,0.1394 6.9554,-0.3903 1.6047,-0.5118 2.7392,-2.7704 3.3977,-4.4485 0.9558,-2.4358 1.5371,-2.595 3.4309,-3.7833 2.8464,-0.5133 3.228,1.3961 6.1125,1.3961l0.8476 0c2.2293,0 2.3878,-2.8127 5.933,-3.1078 1.054,0.7057 -0.2178,1.935 0.6713,3.4321 1.0551,1.7766 5.7245,5.1325 5.7245,7.8595 0,1.0157 -2.2066,3.8159 -3.046,4.2069 -1.9942,0.9288 -4.5221,0.3567 -7.2641,0.6396 -0.3364,0.0347 -0.6515,0.4785 -0.606,0.8135 0.0925,0.6808 1.4126,2.3633 1.4126,3.1079 0,0.8154 -0.5304,0.7037 -0.565,2.2601 1.3179,0.4771 1.5724,3.1079 2.5427,3.1079 1.2974,0 2.2586,-3.2749 2.8859,-4.784 0.4348,-1.0462 4.1858,-5.3781 5.2178,-6.5744 0.6773,-0.7853 1.7847,-7.9511 1.7847,-9.5486 0.3524,-1.0618 -0.3928,-3.6342 -0.5651,-4.803 -0.1353,-0.8337 -0.8377,-2.0959 0.2826,-2.2602 9.9762,-1.4637 13.7574,-11.5952 22.0359,-10.4453 1.2622,0.1785 6.2168,0.1219 6.2168,1.687 0,1.366 -3.0437,2.1812 -4.4478,3.463 -0.9658,0.8818 -3.463,2.7828 -3.463,4.4477l0 0.8476c0,4.0008 3.4602,6.1684 1.5413,9.1694 -1.6618,2.5989 -5.174,2.871 -6.915,5.2585l5.0912 1.3936c0.3518,-0.2355 1.6611,-0.9374 2.2652,-0.8815l2.5286 0.3105 0.8567 -1.4067c0.9727,-1.597 -1.641,-3.558 -1.3995,-5.6237 0.2903,-2.4844 0.327,-3.8356 1.4019,-5.6749 1.2504,-2.1395 3.9187,-7.6307 6.7782,-7.6307 1.0252,0 4.9448,5.0069 6.4821,6.2317 0.8255,0.6578 1.4068,1.532 2.3442,2.1762 1.408,0.9674 3.8115,2.7228 5.3515,3.1243 1.7895,0.4667 5.5991,1.222 5.5991,3.1593l0 0.8475c0,0.763 -0.1349,0.779 -0.2825,1.4126 4.3595,0 4.0532,-2.9825 5.6505,-5.368 -0.6101,-0.4085 -1.7128,-1.1583 -2.3147,-1.6406 -1.4413,-1.1548 -1.0108,-0.6653 -2.4146,-1.5407 -2.0039,-1.2495 -2.8865,-1.6896 -4.3673,-3.5435 -0.8495,-1.0637 -2.088,-3.9858 -2.207,-5.7038 -0.3234,-4.6696 -1.6199,-10.2335 0.9093,-14.3523 0.5773,-0.9403 2.1766,-3.9739 2.0858,-5.0626 -0.1623,-1.9448 -2.2049,-2.8286 -3.5973,-3.4326 -9.8605,-4.2774 -25.7374,1.3197 -35.8059,2.988 -3.5275,-0.2496 -5.1597,-1.9256 -8.2286,-2.7452l-0.7829 0.1555 2.4919 3.4285c0.5595,0.7698 3.1928,0.4359 4.7892,0.6539l3.3903 0c8.0116,0 24.1948,-8.7 31.5972,-2.7795 0.6899,0.5517 2.5885,2.9536 2.5885,3.9096l0 0.5651c0,2.76 -2.3298,6.6975 -4.3376,7.5284 -3.1524,1.3046 -6.2125,1.6099 -10.3675,1.7872 -6.1842,0.264 -15.4382,0.5728 -22.3059,0.5728l-4.803 0z"/>
   <path id="_39268224" class="fil1" d="M147.936 63.3182l15.4745 -5.6632c-1.2815,-0.773 -27.7511,2.7114 -34.1902,3.5667 -1.0257,-0.3315 -2.9836,-2.0681 -3.077,-0.9945l-0.0872 1.0012c-0.0458,0.5272 1.6677,1.7653 2.4233,1.7653l4.1355 -0.4683c0.4211,-0.0477 2.6789,0.173 5.2474,-0.3737 5.3074,-1.1297 8.1877,-1.1087 8.5239,-0.5034 0.321,0.5777 0.0794,2.208 1.5498,1.6699z"/>
   <path id="_39064560" class="fil1" d="M63.3351 223.681c0,-0.8684 -0.8276,-1.13 -1.6951,-1.13l-0.8476 0c-1.4519,0 -2.2602,1.4291 -2.2602,2.5427 0,1.3189 0.6588,1.9777 1.9777,1.9777 1.1623,0 2.8252,-1.3822 2.8252,-2.2602l0 -1.1302z"/>
   <path id="_39255416" class="fil1" d="M126.621 259.845c-0.6837,0 -1.9777,1.294 -1.9777,1.9777l0 0.8476c0,3.5504 8.644,1.4619 9.6731,6.7134 0.7751,3.955 0.8507,10.7041 5.3008,10.8032 -0.4627,-1.7328 -3.4653,-2.9549 -2.4954,-6.4447 0.8997,-3.237 4.9205,-7.0864 7.3097,-9.6395 1.4025,0.0979 2.4243,0.8278 3.379,0.8278 2.7131,0 3.7645,-5.8759 1.4126,-5.9331 -3.4697,-0.0843 -5.9414,2.4895 -8.0999,0.0025 -1.2203,-1.4062 -0.6484,-3.9136 -2.6361,-3.9579l-3.6243 4.3496c-0.6647,0.7976 -1.6586,1.0184 -2.8738,1.0184l-0.2826 0c-1.8054,0 -2.1499,-0.565 -3.9553,-0.565l-1.1301 0zm7.0631 3.1078c0,-1.0114 0.7021,-2.8861 2.527,-3.5094 1.7725,-0.6053 4.1019,-0.551 5.1701,0.3328 0.5185,0.4289 1.45,2.8602 1.45,3.4591 0,0.5989 -0.9855,2.7761 -1.3169,3.0516 -0.3315,0.2754 -2.585,1.7513 -3.3097,1.7513 -3.1316,0 -4.5205,-2.0626 -4.5205,-5.0854z"/>
   <path id="_39254136" class="fil1" d="M224.189 204.602c-4.3921,4.8273 -8.3207,9.6762 -12.9244,14.2774 -3.5423,3.5402 -7.4987,6.5143 -11.5163,9.2751 -3.1319,2.1522 -6.6785,4.4081 -9.8885,6.5922 0.3104,0.2217 1.9105,-0.4266 2.318,-0.6014 4.2568,-1.8272 8.5333,-4.9395 12.4688,-7.5906 2.3105,-1.5565 13.1922,-8.5242 14.3605,-8.5242l0.2826 0c0.7169,0 2.5999,1.0728 2.8252,1.6952l0.8477 0c0.5456,0 1.13,-0.5037 1.13,-0.8476 0,-1.4384 -2.5427,-2.0649 -2.5427,-3.3903l0 -0.8476c0,-0.2332 4.6541,-5.711 5.2846,-6.5815 13.0129,-17.9617 18.9453,-42.3984 22.1205,-64.0502 0.4199,-0.6272 1.0561,-1.9777 1.9777,-1.9777 1.9011,0 2.4025,1.7016 4.4207,2.36 2.694,1.171 1.81,-0.8675 4.0461,2.2556 0.2349,0.3282 -0.2735,1.1215 -0.2735,1.6 0,0.7924 2.6537,2.6649 2.5756,0.1607 -0.3654,-11.6961 15.7886,-1.9242 15.7886,-8.6365l0 -2.52c-1.4199,0.9508 -1.6618,3.6501 -4.2379,3.6501l-1.1301 0c-2.1539,0 -6.1847,-4.2146 -7.7033,-5.5756 -1.4357,-1.2867 -5.5755,-5.852 -5.5755,-7.7031l0 -0.5651c0,-1.7169 0.7428,-2.1272 1.9777,-3.1078 -0.3226,-0.4818 -0.6147,-1.1301 -1.4127,-1.1301l-0.2824 0c-1.0325,0 -2.2603,0.7797 -2.2603,1.6951 0,0.8107 1.4127,1.3407 1.4127,3.6729 0,0.6893 -3.1158,2.8778 -3.781,3.2822 -2.099,1.2764 -2.6528,3.4984 -3.8473,3.4984 -2.4183,0 -2.1712,-1.5894 -2.2492,-3.9663 -0.045,-1.3739 -0.8232,-3.9585 -1.0714,-5.4267 -1.7084,-10.1074 -4.468,-20.6719 -9.1427,-29.846 -4.5731,-8.9748 -8.2077,-16.2056 -15.2012,-23.5049 -0.798,-0.8329 -6.8037,-5.7403 -6.8037,-6.1926 0,-1.8312 0.3617,-1.8391 1.4126,-2.5427 1.3093,0 2.8252,0.4055 2.8252,-0.8476l0 -0.2826c0,-0.6868 -1.5733,-2.2601 -2.2601,-2.2601l-0.2826 0c-0.6334,0 -0.6201,0.2236 -1.0588,0.5719l-0.2301 1.8328c-0.1402,1.1174 -0.8043,1.268 -1.5364,1.268 -9.7623,-3.8433 -22.2732,-13.0838 -29.1361,-16.7678 -3.8157,-2.0482 -12.3972,-6.549 -16.3506,-6.3994 0.7832,0.497 4.8709,2.0218 5.9731,2.5027 2.2468,0.9804 3.408,1.9045 5.4728,3.003 7.2155,3.8387 14.4243,8.0225 20.9272,12.9761 5.6788,4.3258 11.1638,12.3957 16.0108,17.8924 2.6071,2.9568 4.7632,6.6858 6.9977,9.9539 2.2613,3.307 3.8532,5.2771 5.8445,8.936 5.2824,9.7064 9.8248,19.8655 12.526,30.6114 1.5814,5.6209 1.7864,10.211 2.6607,15.9364 -0.4795,18.6294 -8.9824,48.1098 -21.7888,62.1865z"/>
   <path id="_39075744" class="fil1" d="M203.531 214.325c10.3355,-12.6893 14.9927,-23.6796 18.2139,-28.5905 5.1276,-11.9994 6.6999,-18.5806 8.2296,-33.533l0.0106 -13.8775c-2.3141,-19.6756 -6.0184,-32.4154 -15.3725,-48.4036 -1.0282,-1.7574 -3.9674,-6.1089 -5.2618,-7.7344 -2.1775,-2.7346 -8.7727,-12.9981 -11.0837,-15.0843 0.0516,-0.0517 -1.4232,-1.7593 -2.7227,-3.0348l-0.214 0.2162 -1.5229 -1.5895c7.4777,9.6723 13.4265,20.7597 17.8543,32.1552l3.4024 10.1691c6.9988,20.9182 9.7102,47.3998 2.2338,79.3775 -2.9489,10.3265 -7.4429,19.4401 -13.767,29.9296z"/>
   <path id="_39281960" class="fil1" d="M56.6598 167.918c-7.073,-30.1389 -3.986,-51.2288 6.3928,-79.2848 -0.0811,-0.0811 -1.0806,1.3528 -1.2478,1.5775 -0.5771,0.7755 -0.6106,0.9498 -1.1213,1.7039 -15.4471,22.8113 -17.7088,52.1607 -8.0844,77.8038 1.1686,3.9843 9.5343,21.3232 11.8662,22.8847 -2.1604,-8.179 -5.9157,-14.0968 -7.8055,-24.6851z"/>
   <path id="_38912976" class="fil5" d="M257.657 133.671c-0.9576,0 -3.1504,1.5917 -3.5327,2.3701 -1.2793,2.6047 -1.0079,1.0909 -1.0079,4.2138 0.5458,0.815 0.8907,1.5372 1.7749,2.0847 0.184,0.1139 2.4762,1.0938 2.5387,1.0938l1.5892 0c1.3585,0 3.8596,-3.4698 3.8596,-4.9947l0 -0.2271c0,-2.4557 -2.59,-4.5406 -4.9947,-4.5406l-0.2271 0z"/>
   <path id="_39572536" class="fil5" d="M255.16 137.758c0,-1.0982 0.7181,-1.8163 1.8162,-1.8163l0.4541 0c1.6325,0 2.9514,0.4242 2.9514,2.0434 0,1.9457 -0.2377,3.9533 -1.4963,3.7742l-2.3632 -0.3364c-0.4058,-0.0577 -1.3622,-2.4097 -1.3622,-2.5298l0 -1.1351z"/>
   <path id="_39074968" class="fil3" d="M254.411 137.17c0,-1.2522 0.8188,-2.071 2.071,-2.071l0.5178 0c1.8615,0 3.3653,0.4837 3.3653,2.3299 0,2.2187 -0.271,4.5079 -1.7061,4.3036l-2.6948 -0.3834c-0.4626,-0.0659 -1.5532,-2.7478 -1.5532,-2.8847l0 -1.2944zm2.8476 -4.6597c-1.0919,0 -3.5923,1.8149 -4.0282,2.7025 -1.4588,2.9701 -1.1493,1.2439 -1.1493,4.8049 0.6223,0.9293 1.0156,1.7527 2.0238,2.377 0.2098,0.1299 2.8235,1.2473 2.8949,1.2473l1.8121 0c1.549,0 4.4009,-3.9565 4.4009,-5.6953l0 -0.2589c0,-2.8002 -2.9533,-5.1775 -5.6953,-5.1775l-0.2589 0z"/>
   <path id="_39480432" class="fil2" d="M17.4472 148.495c1.2005,9.9232 11.8191,-1.2923 4.9215,-3.6388l-1.441 -0.292c-1.3095,0 -3.6008,1.9806 -3.4805,3.9308z"/>
   <path id="_38853952" class="fil2" d="M128.599 24.7824c0,0.1494 1.1902,3.0764 1.6951,3.1482l2.9409 0.4186c1.5662,0.2229 1.862,-2.2754 1.862,-4.6968 0,-2.0149 -1.6412,-2.5428 -3.6727,-2.5428l-0.5651 0c-1.3667,0 -2.2602,0.8936 -2.2602,2.2602l0 1.4126z"/>
  </g>
 </g>
</svg>
